<?xml version="1.0" encoding="utf-8"?>
<!-- Generator: Adobe Illustrator 27.2.0, SVG Export Plug-In . SVG Version: 6.00 Build 0)  -->
<svg version="1.1" id="Calque_1" xmlns="http://www.w3.org/2000/svg" xmlns:xlink="http://www.w3.org/1999/xlink" x="0px" y="0px"
	 viewBox="0 0 32 32" style="enable-background:new 0 0 32 32;" xml:space="preserve">
<style type="text/css">
	.st0{fill:#FFFFFF;}
</style>
<script  id="dashlane_tiresias" xmlns=""></script>
<script  id="dashlane_webauthn" xmlns=""></script>
<path class="st0" d="M16,20c2.2,0,4-1.8,4-4s-1.8-4-4-4s-4,1.8-4,4S13.8,20,16,20z"/>
<path class="st0" d="M21.5,3.5h-11c-1.9,0-3.6,0.7-4.9,2.1s-2.1,3.1-2.1,4.9v11c0,1.9,0.7,3.6,2.1,4.9c1.3,1.3,3.1,2.1,4.9,2.1h11
	c1.9,0,3.6-0.7,4.9-2.1c1.3-1.3,2.1-3.1,2.1-4.9v-11c0-1.9-0.7-3.6-2.1-4.9C25.1,4.2,23.4,3.5,21.5,3.5L21.5,3.5z M16,22
	c-1.2,0-2.3-0.4-3.3-1s-1.8-1.6-2.2-2.7c-0.5-1.1-0.6-2.3-0.3-3.5c0.2-1.2,0.8-2.2,1.6-3.1c0.8-0.8,1.9-1.4,3.1-1.6
	c1.2-0.2,2.4-0.1,3.5,0.3c1.1,0.5,2,1.2,2.7,2.2s1,2.1,1,3.3c0,1.6-0.6,3.1-1.8,4.2C19.1,21.4,17.6,22,16,22L16,22z M22.5,11
	c-0.3,0-0.6-0.1-0.8-0.3c-0.2-0.2-0.4-0.4-0.6-0.7C21,9.8,21,9.5,21,9.2c0.1-0.3,0.2-0.6,0.4-0.8c0.2-0.2,0.5-0.4,0.8-0.4
	c0.3-0.1,0.6,0,0.9,0.1c0.3,0.1,0.5,0.3,0.7,0.6C23.9,8.9,24,9.2,24,9.5c0,0.4-0.2,0.8-0.4,1.1C23.3,10.8,22.9,11,22.5,11z"/>
</svg>
