<?xml version="1.0" encoding="utf-8"?>
<!-- Generator: Adobe Illustrator 27.2.0, SVG Export Plug-In . SVG Version: 6.00 Build 0)  -->
<svg version="1.1" id="Calque_1" xmlns="http://www.w3.org/2000/svg" xmlns:xlink="http://www.w3.org/1999/xlink" x="0px" y="0px"
	 viewBox="0 0 32 32" style="enable-background:new 0 0 32 32;" xml:space="preserve">
<style type="text/css">
	.st0{fill:#FFFFFF;}
</style>
<script  id="dashlane_tiresias" xmlns=""></script>
<script  id="dashlane_webauthn" xmlns=""></script>
<path class="st0" d="M30.7,9.7l-3.8,3.8C26.2,22.2,18.8,29,10,29c-1.8,0-3.3-0.3-4.4-0.9c-0.9-0.5-1.3-0.9-1.4-1.1
	C4.1,26.9,4,26.8,4,26.6c0-0.1,0-0.3,0-0.4c0-0.1,0.1-0.3,0.2-0.4c0.1-0.1,0.2-0.2,0.4-0.2c0,0,3-1.1,4.9-3.3
	c-1.2-0.8-2.2-1.9-3.1-3C4.7,16.9,2.9,12.9,4,6.8c0-0.2,0.1-0.3,0.2-0.5C4.4,6.2,4.5,6.1,4.7,6C4.9,6,5.1,6,5.2,6
	c0.2,0,0.3,0.1,0.5,0.3c0,0,4.2,4.1,9.3,5.5l0-0.8c0-1.6,0.7-3.1,1.8-4.3C17.9,5.6,19.5,5,21.1,5c1,0,2.1,0.3,3,0.8
	c0.9,0.5,1.6,1.3,2.2,2.2L30,8c0.2,0,0.4,0.1,0.6,0.2c0.2,0.1,0.3,0.3,0.4,0.4C31,8.8,31,9,31,9.2C30.9,9.4,30.8,9.6,30.7,9.7z"/>
</svg>
