<svg width="1920" height="907" viewBox="0 0 1920 907" fill="none" xmlns="http://www.w3.org/2000/svg">
<rect width="1920" height="907" fill="url(#paint0_radial_147_7231)"/>
<g clip-path="url(#clip0_147_7231)">
<path d="M1056.59 200.773H1038.96V212.057H1056.59V200.773Z" fill="#E2E2E2"/>
<path d="M1070.34 272.472H871.161V531.914H1070.34V272.472Z" fill="#433D4F"/>
<path d="M1063.47 279.484H1045.92V420.205H1063.47V279.484Z" fill="#2A2633"/>
<path d="M1019.4 279.973H989.248V470.922H1019.4V279.973Z" fill="#2A2633"/>
<path d="M996.879 289.239H926.596V315.102H996.879V289.239Z" fill="#A5A5A5"/>
<path d="M859.584 183.144H849.536V236.822H859.584V183.144Z" fill="#6A6572"/>
<path d="M1035.08 171.957H1017.1V243.737H1035.08V171.957Z" fill="#6A6572"/>
<path d="M872.186 171.957H854.206V243.737H872.186V171.957Z" fill="#5A5663"/>
<path d="M1040.97 497.655H878.36V554.921H1040.97V497.655Z" fill="white"/>
<path d="M1000.36 246.129H972.57V263.482H1000.36V246.129Z" fill="#D6AB8E"/>
<path d="M1000.72 199.203H973.196V247.439H1000.72V199.203Z" fill="#BFA08C"/>
<path d="M972.496 237.619H920.999V262.481H972.496V237.619Z" fill="#BFA08C"/>
<path d="M973.139 157.631H894.713V248.057H973.139V157.631Z" fill="#D6AB8E"/>
<path d="M932.803 141.254H931.762H894.493V166.482H931.762H932.803H969.063V141.254H932.803Z" fill="#313131"/>
<path d="M1000.43 133.387H972.415V200.358H1000.43V133.387Z" fill="#313131"/>
<path d="M946.845 261.635L920.999 261.155L920.934 289.052V303.728H1000V261.578H972.497V288.556H946.91L946.845 261.635Z" fill="white"/>
<path d="M920.934 308.757H842.133V500.991C842.133 500.991 1078.8 499.413 1080.21 500.991C1081.62 502.569 1080.21 308.757 1080.21 308.757H920.934V308.757Z" fill="white"/>
<path d="M967.949 319.341H949.318V478.472H967.949V319.341Z" fill="#E2E2E2"/>
<path d="M868.313 475.209H838V506.287H868.313V475.209Z" fill="#6A6572"/>
<path d="M1053.33 487.624H868.313V500.795H1053.33V487.624Z" fill="#6A6572"/>
<path d="M878.515 554.417V766.99H935.895C936.041 766.608 936.18 766.226 936.31 765.827C936.53 765.176 937.717 765.453 937.498 766.112C937.4 766.413 937.286 766.697 937.18 766.99H938.132V554.417H878.515Z" fill="white"/>
<path d="M1040.94 554.417H995.406V766.99H1040.94V554.417Z" fill="white"/>
<path d="M901.4 500.82H877.458V768.609H901.4V500.82Z" fill="#E2E2E2"/>
<path d="M1016.82 554.522H983.984V768.088H1016.82V554.522Z" fill="#E2E2E2"/>
<path d="M931.241 225.985H920.86V248.195H931.241V225.985Z" fill="#313131"/>
<path d="M977.996 289.239H941.004V314.183H977.996V289.239Z" fill="#E2E2E2"/>
<path d="M972.513 261.416H944.526V292.087H972.513V261.416Z" fill="white"/>
<path d="M972.619 141.522H951.604V229.215H972.619V141.522Z" fill="#DDB99F"/>
<path d="M920.934 247.936H895.282V262.213H920.934V247.936Z" fill="#313131"/>
<path d="M938.344 766.99H847.145V794H938.344V766.99Z" fill="#6A6572"/>
<path d="M1082.07 474.429H1052.75V505.506H1082.07V474.429Z" fill="#6A6572"/>
<path d="M915.475 184.022H900.31V225.628H915.475V184.022Z" fill="#BFA08C"/>
<path d="M927.849 161.991H891.955V172.543H927.849V161.991Z" fill="#313131"/>
<path d="M926.75 173.625H916.524V183.851H926.75V173.625Z" fill="#313131"/>
<path d="M899.594 173.625H894.859V183.851H899.594V173.625Z" fill="#313131"/>
<path d="M920.86 211.691H889.425V225.986H920.86V211.691Z" fill="#313131"/>
<path d="M1023.76 146.16H862.187V267.738H1023.76V146.16Z" fill="#E2E2E2"/>
<path d="M938.124 621.055H876.774V631.102H938.124V621.055Z" fill="#6A6572"/>
<path d="M1041.21 621.055H983.602V631.102H1041.21V621.055Z" fill="#6A6572"/>
<path d="M938.124 691.135H877.067V780.284H938.124V691.135Z" fill="#6A6572"/>
<path d="M901.636 691.135H877.067V767.82H901.636V691.135Z" fill="#4D4954"/>
<path d="M912.473 766.99H847.145V793.902H912.473V766.99Z" fill="#4D4954"/>
<path d="M1040.99 691.663H983.87V793.211H1040.99V691.663Z" fill="#6A6572"/>
<path d="M1016.92 691.663H983.87V793.74H1016.92V691.663Z" fill="#4D4954"/>
<path d="M1065.01 766.99H984.326V794H1065.01V766.99Z" fill="#4D4954"/>
<path d="M889.465 543.043H877.303V548.779H889.465V543.043Z" fill="#6A6572"/>
<path d="M896.34 500.682H889.465V543.051H896.34V500.682Z" fill="#6A6572"/>
<path d="M1028.74 548.779H1040.9V543.044H1028.74V548.779Z" fill="#6A6572"/>
<path d="M1021.86 543.043H1028.74V500.364H1021.86V543.043Z" fill="#6A6572"/>
<path d="M894.404 343.471H868.313V487.339H894.404V343.471Z" fill="#E2E2E2"/>
<path d="M1052.71 343.471H1026.62V488.088H1052.71V343.471Z" fill="#E2E2E2"/>
<path d="M894.42 487.6H868.231V500.795H894.42V487.6Z" fill="#5A5663"/>
<path d="M1052.73 487.6H1026.57V500.852H1052.73V487.6Z" fill="#5A5663"/>
<path d="M1080.57 346.041H1056.94V355.56H1080.57V346.041Z" fill="#FFBC00"/>
<path d="M1008.93 132.37H875.725V158.111H1008.93V132.37Z" fill="#E2E2E2"/>
<path d="M1000.77 123.567H889.465V141.856H1000.77V123.567Z" fill="#E2E2E2"/>
<path d="M987.49 114H900.554V134.135H987.49V114Z" fill="#E2E2E2"/>
<path d="M876.595 276.54H1008.93V250.799L876.595 250.799V276.54Z" fill="#E2E2E2"/>
<path d="M888.221 285.351H1000.05V267.062H888.221V285.351Z" fill="#E2E2E2"/>
<path d="M900.725 294.91H989.459V274.775H900.725V294.91Z" fill="#E2E2E2"/>
<path d="M981.755 294.764H920.632V303.884H981.755V294.764Z" fill="#A5A5A5"/>
<path d="M920.673 284.35H900.595V294.918H920.673V284.35Z" fill="#A5A5A5"/>
<path d="M898.691 269.25H888.229V285.342H898.691V269.25Z" fill="#A5A5A5"/>
<path d="M888.416 261.798H875.887V276.735H888.416V261.798Z" fill="#A5A5A5"/>
<path d="M876.082 146.176H862.138V267.761H876.082V146.176Z" fill="#A5A5A5"/>
<path d="M913.441 275.702H898.276V285.4H913.441V275.702Z" fill="#A5A5A5"/>
<path d="M887.863 146.119H875.188V158.241H887.863V146.119Z" fill="#A5A5A5"/>
<path d="M889.636 138.911H875.725V146.298H889.636V138.911Z" fill="#A5A5A5"/>
<path d="M899.578 138.976H886.292V146.468H899.578V138.976Z" fill="#A5A5A5"/>
<path d="M899.578 132.021H889.116V138.985H899.578V132.021Z" fill="#A5A5A5"/>
<path d="M1013.4 158.388H1000.61V146.648H993.584V139.155H982.129V131.012H907.193V139.155H897.642V146.648H885.796V158.388H874.13V261.888H886.545V269.381H896.568V276.882H907.347V285.025H983.829V276.882H993.356V269.381H1000.61V261.888H1013.4V158.388Z" fill="#313131"/>
<path d="M1000.61 158.388V146.648H993.584V139.155H982.129V131.012H907.193V139.155H897.642V146.648H885.796V158.388H874.13V195.307H885.21V187.814H894.77V179.67H969.706V187.814H981.153V195.307H988.182V207.046H1000.97V261.888H1013.4V158.388H1000.61Z" fill="#1E1E1E"/>
<path d="M868.573 388.867H842.133V395.848H868.573V388.867Z" fill="#6A6572"/>
<path d="M1080.98 388.867H1052.89V395.848H1080.98V388.867Z" fill="#6A6572"/>
<path d="M983.87 294.739H971.805V303.957H983.87V294.739Z" fill="#E2E2E2"/>
<path d="M907.266 194.249H893.517V207.998H907.266V194.249Z" fill="#1E1E1E"/>
<path d="M890.523 211H876.774V224.749H890.523V211Z" fill="#1E1E1E"/>
<path d="M983.048 160.226H970.357V172.917H983.048V160.226Z" fill="#313131"/>
<path d="M1052.89 404.731H868.313V417.439H1052.89V404.731Z" fill="#6A6572"/>
<path d="M894.493 404.731H868.313V417.439H894.493V404.731Z" fill="#5A5663"/>
<path d="M1052.88 404.731H1026.44V417.439H1052.88V404.731Z" fill="#5A5663"/>
<path d="M1024.86 318.804H975.141V332.553H1024.86V318.804Z" fill="#6A6572"/>
<path d="M914.588 412.68H909.031V493.335H914.588V412.68Z" fill="#6A6572"/>
<path d="M1012.17 412.68H1006.61V493.335H1012.17V412.68Z" fill="#6A6572"/>
<path d="M1040.99 183.144H1030.94V236.822H1040.99V183.144Z" fill="#6A6572"/>
<path d="M1067.7 480.196H1052.71V487.421H1067.7V480.196Z" fill="#5A5663"/>
<path d="M868.134 480.196H853.148V487.421H868.134V480.196Z" fill="#5A5663"/>
<path d="M943.412 343.397H931.778V355.031H943.412V343.397Z" fill="#6A6572"/>
<path d="M924.367 343.397H912.733V355.031H924.367V343.397Z" fill="#6A6572"/>
<path d="M1067.17 212.058H1056.59V272.35H1067.17V212.058Z" fill="white"/>
</g>
<path d="M1306.77 414.778H1286.04V489.39H1306.77V414.778Z" fill="#DDB99F"/>
<path d="M1491.42 414.778H1470.69V489.39H1491.42V414.778Z" fill="#DDB99F"/>
<path d="M1361.15 209.746H1326.3V261.491H1361.15V209.746Z" fill="#A5312F"/>
<path d="M1353.96 236.719H1332.16V279.201H1353.96V236.719Z" fill="#313131"/>
<path d="M1362.84 185.359H1320.08V237.104H1362.84V185.359Z" fill="#A5312F"/>
<path d="M1424.16 278.496H1399.12V294.133H1424.16V278.496Z" fill="#DDB99F"/>
<path d="M1424.29 236.057H1399.59V279.694H1424.29V236.057Z" fill="#BFA08C"/>
<path d="M1399.31 270.796H1352.38V293.813H1399.31V270.796Z" fill="#BFA08C"/>
<path d="M1399.52 198.451H1328.59V280.229H1399.52V198.451Z" fill="#DDB99F"/>
<path d="M1366.82 174.664H1364.95H1298V198.729H1364.95H1366.82H1431.93V174.664H1366.82Z" fill="#B94F49"/>
<path d="M1373.47 154.086H1372.14H1323.84V178.172H1372.14H1373.47H1420.46V154.086H1373.47Z" fill="#B94F49"/>
<path d="M1354.43 154.086H1353.96H1337.23V178.172H1353.96H1354.43H1370.71V154.086H1354.43Z" fill="white"/>
<path d="M1373.92 144.523H1372.85H1334.37V161.893H1372.85H1373.92H1411.37V144.523H1373.92Z" fill="#B94F49"/>
<path d="M1372.16 134H1371.41H1344.89V155.691H1371.41H1372.16H1397.98V134H1372.16Z" fill="#B94F49"/>
<path d="M1442.24 185.359H1399.48V237.104H1442.24V185.359Z" fill="#B94F49"/>
<path d="M1440.59 209.746H1408.1V261.491H1440.59V209.746Z" fill="#B94F49"/>
<path d="M1435.76 236.719H1413.96V279.201H1435.76V236.719Z" fill="#B94F49"/>
<path d="M1353.28 330.584H1282V438.695C1282 438.695 1496.04 437.796 1497.32 438.695C1498.61 439.593 1497.32 330.584 1497.32 330.584H1353.28Z" fill="#B94F49"/>
<path d="M1447.72 330.646H1328.53V484.919H1447.72V330.646Z" fill="#B94F49"/>
<path d="M1304.72 485.562H1282.02V509.241H1304.72V485.562Z" fill="#DDB99F"/>
<path d="M1495.1 485.113H1471.42V509.242H1495.1V485.113Z" fill="#DDB99F"/>
<path d="M1461.13 509.691H1313.81V557.757H1461.13V509.691Z" fill="#E2E2E2"/>
<path d="M1313.96 557.308V749.571H1365.85C1365.98 749.207 1366.11 748.865 1366.22 748.523C1366.32 748.18 1367.48 748.18 1367.29 748.758C1367.09 749.335 1367.09 749.293 1367.01 749.571H1367.86V557.308H1313.96Z" fill="#E2E2E2"/>
<path d="M1460.85 557.308H1419.67V749.549H1460.85V557.308Z" fill="#E2E2E2"/>
<path d="M1334.64 510.676H1313V751.026H1334.64V510.676Z" fill="#AFAFAF"/>
<path d="M1440.47 557.308H1410.77V749.592H1440.47V557.308Z" fill="#AFAFAF"/>
<path d="M1352.25 260.272H1325.3V271.182H1352.25V260.272Z" fill="#604925"/>
<path d="M1352.25 280.357H1328.4V293.727H1352.25V280.357Z" fill="#604925"/>
<path d="M1361.64 260.272H1352.25V280.573H1361.64V260.272Z" fill="#604925"/>
<path d="M1401 317.493H1375.8V340.874H1401V317.493Z" fill="#B94F49"/>
<path d="M1347.14 222.324H1333.42V255.972H1347.14V222.324Z" fill="#D8988D"/>
<path d="M1334.19 202.41H1326.86V208.464H1334.19V202.41Z" fill="#604925"/>
<path d="M1358.32 202.41H1345.04V208.464H1358.32V202.41Z" fill="#604925"/>
<path d="M1357.32 212.911H1348.08V222.152H1357.32V212.911Z" fill="#4F381A"/>
<path d="M1332.78 212.911H1328.5V222.152H1332.78V212.911Z" fill="#4F381A"/>
<path d="M1376.23 293.942L1352.85 293.515L1352.78 317.815V330.585H1424.29V293.878H1399.44V317.366H1376.29L1376.23 293.942Z" fill="#DDB99F"/>
<path d="M1401.11 293.898H1375.8V317.471H1401.11V293.898Z" fill="#DDB99F"/>
<path d="M1472.06 476.834H1304.72V536.943H1472.06V476.834Z" fill="#B94F49"/>
<path d="M1328.95 366.542H1304.72V536.922H1328.95V366.542Z" fill="#A5312F"/>
<path d="M1472.02 366.542H1446.97V536.922H1472.02V366.542Z" fill="#A5312F"/>
<path d="M1367.84 749.571H1282.24V774H1367.84V749.571Z" fill="#313131"/>
<path d="M1491.74 749.571H1410.9V774H1491.74V749.571Z" fill="#313131"/>
<path d="M1432.4 214.045H1416.14V234.923H1432.4V214.045Z" fill="white"/>
<path d="M1400.85 174.664H1310.43V188.055H1400.85V174.664Z" fill="#A5312F"/>
<path d="M1411.35 144.523H1397.17V158.706H1411.35V144.523Z" fill="#A5312F"/>
<path d="M1420.29 154.086H1406.11V168.268H1420.29V154.086Z" fill="#A5312F"/>
<path d="M1432.25 174.664H1418.07V188.846H1432.25V174.664Z" fill="#A5312F"/>
<path d="M1397.98 326.434H1374.39V350.028H1397.98V326.434Z" fill="#DDB99F"/>
<path d="M1338.34 330.584H1331.97V350.692H1338.34V330.584Z" fill="white"/>
<path d="M1344.57 350.605H1338.19V360.959H1344.57V350.605Z" fill="white"/>
<path d="M1350.77 360.811H1344.4V371.421H1350.77V360.811Z" fill="white"/>
<path d="M1357.08 371.334H1350.71V537.158H1357.08V371.334Z" fill="white"/>
<path d="M1435.22 350.712H1441.6V330.604H1435.22V350.712Z" fill="white"/>
<path d="M1428.98 360.938H1435.35V350.585H1428.98V360.938Z" fill="white"/>
<path d="M1422.77 371.398H1429.15V360.788H1422.77V371.398Z" fill="white"/>
<path d="M1416.49 537.137H1422.86V371.313H1416.49V537.137Z" fill="white"/>
<path d="M1458.24 536.751H1452.98V749.614H1458.24V536.751Z" fill="#B94F49"/>
<path d="M1324.8 536.751H1319.54V749.614H1324.8V536.751Z" fill="#912A2A"/>
<path opacity="0.28" d="M1460.17 536.751H1313.32V548.709H1460.17V536.751Z" fill="#313131"/>
<path d="M453.764 419.559H428.708V516.203H453.764V419.559Z" fill="#DDB99F"/>
<path d="M635.995 417.707H613.062V516.205H635.995V417.707Z" fill="#DDB99F"/>
<path d="M566.427 291.526H542.037V306.752H566.427V291.526Z" fill="#DDB99F"/>
<path d="M566.552 250.203H542.495V292.693H566.552V250.203Z" fill="#BFA08C"/>
<path d="M542.474 284.028H496.526V306.44H542.474V284.028Z" fill="#BFA08C"/>
<path d="M542.431 200.632H473.364V293.215H542.431V200.632Z" fill="#DDB99F"/>
<path d="M503.399 193.215H502.587H473.406V213.856H502.587H503.399H531.788V193.215H503.399Z" fill="#313131"/>
<path d="M566.469 200.839H542.391V251.223H566.469V200.839Z" fill="#313131"/>
<path d="M497.401 342.952H428V440.513C428 440.513 636.411 439.722 637.661 440.513C638.91 441.305 637.661 342.952 637.661 342.952H497.401Z" fill="white"/>
<path d="M589.359 341.952H473.302V492.543H589.359V341.952Z" fill="white"/>
<path d="M602.128 515.808H458.973V563.443H602.128V515.808Z" fill="#303947"/>
<path d="M511.627 563.007H459.118V742.008H511.627V563.007Z" fill="#303947"/>
<path d="M602.147 563.007H562.052V742.008H602.147V563.007Z" fill="#303947"/>
<path d="M479.26 515.808H458.181V742.006H479.26V515.808Z" fill="#1C2128"/>
<path d="M582.299 563.007H553.389V742.008H582.299V563.007Z" fill="#1C2128"/>
<path d="M503.378 293.339H473.177V306.315H503.378V293.339Z" fill="#BFA08C"/>
<path d="M543.87 329.497H519.333V353.679H543.87V329.497Z" fill="#DDB99F"/>
<path d="M491.424 237.309H477.843V275.883H491.424V237.309Z" fill="#BFA08C"/>
<path d="M510.314 218.793H470.719V226.729H510.314V218.793Z" fill="#313131"/>
<path d="M509.857 230.562H491.527V245.059H509.857V230.562Z" fill="#313131"/>
<path d="M503.753 238.122H496.484V245.058H503.753V238.122Z" fill="#424242"/>
<path d="M509.815 230.562H503.754V237.977H509.815V230.562Z" fill="#1E1E1E"/>
<path d="M477.821 230.562H470.49V245.059H477.821V230.562Z" fill="#313131"/>
<path d="M471.719 238.122H470.49V245.058H471.719V238.122Z" fill="#424242"/>
<path d="M477.781 230.562H471.72V237.977H477.781V230.562Z" fill="#1E1E1E"/>
<path d="M566.219 161.534H463.388V201.109H566.219V161.534Z" fill="#1E1E1E"/>
<path d="M560.949 134H468.157V146.851H560.949V134Z" fill="#1E1E1E"/>
<path d="M519.75 306.566L496.984 306.17L496.921 329.81V342.245H566.551V306.524H542.349V329.394H519.812L519.75 306.566Z" fill="#DDB99F"/>
<path d="M543.974 306.523H519.333V329.477H543.974V306.523Z" fill="#DDB99F"/>
<path d="M564.677 140.583H458.014V163.557H564.677V140.583Z" fill="#1E1E1E"/>
<path d="M613.063 466.945H450.121V515.83H613.063V466.945Z" fill="white"/>
<path d="M589.609 404.001H473.406V426.767H589.609V404.001Z" fill="white"/>
<path d="M589.609 441.263H473.406V464.028H589.609V441.263Z" fill="white"/>
<path d="M511.585 750.213H428.229V773.999H511.585V750.213Z" fill="#313131"/>
<path d="M632.224 750.213H553.513V773.999H632.224V750.213Z" fill="#313131"/>
<path d="M566.385 161.639H463.409V179.405H566.385V161.639Z" fill="white"/>
<path d="M491.861 230.562H476.364V237.707H491.861V230.562Z" fill="#1E1E1E"/>
<path d="M543.724 357.845H519.208V485.316H543.724V357.845Z" fill="#313131"/>
<path d="M543.745 346.909H519.208V368.967H543.745V346.909Z" fill="#1E1E1E"/>
<path d="M507.649 741.634H462.659V750.257H507.649V741.634Z" fill="#191919"/>
<path d="M598.066 741.634H556.784V750.257H598.066V741.634Z" fill="#191919"/>
<path d="M509.148 268.824H473.261V275.968H509.148V268.824Z" fill="#313131"/>
<path d="M497.462 293.235H473.364V306.253H497.462V293.235Z" fill="#313131"/>
<path d="M473.178 161.534H463.388V170.636H473.178V161.534Z" fill="#1E1E1E"/>
<path d="M493.319 161.534H483.529V170.636H493.319V161.534Z" fill="#1E1E1E"/>
<path d="M513.459 161.534H503.67V170.636H513.459V161.534Z" fill="#1E1E1E"/>
<path d="M533.6 161.534H523.811V170.636H533.6V161.534Z" fill="#1E1E1E"/>
<path d="M553.742 161.534H543.953V170.636H553.742V161.534Z" fill="#1E1E1E"/>
<path d="M483.113 170.741H473.282V179.843H483.113V170.741Z" fill="#1E1E1E"/>
<path d="M503.337 170.741H493.506V179.843H503.337V170.741Z" fill="#1E1E1E"/>
<path d="M523.562 170.741H513.731V179.843H523.562V170.741Z" fill="#1E1E1E"/>
<path d="M543.786 170.741H533.955V179.843H543.786V170.741Z" fill="#1E1E1E"/>
<path d="M564.011 170.741H554.18V179.843H564.011V170.741Z" fill="#1E1E1E"/>
<path d="M566.427 161.534H564.094V170.636H566.427V161.534Z" fill="#1E1E1E"/>
<path d="M490.09 156.704H468.157V180.324H490.09V156.704Z" fill="#7F7F7F"/>
<path d="M566.426 179.509H439.122V201.108H566.426V179.509Z" fill="#1E1E1E"/>
<path d="M552.119 179.509H450.892V191.652H552.119V179.509Z" fill="#313131"/>
<path d="M497.318 388.068H450.037V501.709H497.318V388.068Z" fill="#424242"/>
<path d="M519.187 341.952H496.921V346.93H519.187V341.952Z" fill="#E0E0E0"/>
<path d="M566.469 341.952H543.537V346.93H566.469V341.952Z" fill="#E0E0E0"/>
<path d="M528.373 500.958H456.806V510.997H528.373V500.958Z" fill="#424242"/>
<path d="M606.856 500.958H535.206V510.997H606.856V500.958Z" fill="#424242"/>
<path d="M479.009 501.375H456.806V510.998H479.009V501.375Z" fill="#282828"/>
<path d="M606.918 501.375H584.715V510.998H606.918V501.375Z" fill="#282828"/>
<path d="M512.272 360.553H497.255V379.132H512.272V360.553Z" fill="#424242"/>
<path d="M568.427 361.512H550.577V380.403H568.427V361.512Z" fill="#424242"/>
<path d="M611.937 341.952H566.51V361.781H611.937V341.952Z" fill="#424242"/>
<path d="M497.318 360.574H466.658V501.855H497.318V360.574Z" fill="#424242"/>
<path d="M596.774 361.636H565.864V501.833H596.774V361.636Z" fill="#424242"/>
<path d="M612.791 388.068H566.176V501.709H612.791V388.068Z" fill="#424242"/>
<path d="M569.635 501.688V377.195H545.599V387.672H540.6V402.21H523.02V387.672H517.313V377.195H496.901V501.688H569.635Z" fill="#424242"/>
<path d="M535.121 402.398H528.602V501.793H535.121V402.398Z" fill="#7F7F7F"/>
<path d="M496.86 341.952H448.871V361.448H496.86V341.952Z" fill="#424242"/>
<path d="M466.719 377.258H449.973V501.542H466.719V377.258Z" fill="#282828"/>
<path d="M613.187 377.258H596.628V501.688H613.187V377.258Z" fill="#282828"/>
<path d="M521.166 440.367H480.405V481.816H521.166V440.367Z" fill="#282828"/>
<path d="M582.798 440.367H542.037V481.816H582.798V440.367Z" fill="#282828"/>
<path d="M521.166 446.887H480.405V481.816H521.166V446.887Z" fill="#383838"/>
<path d="M582.798 446.887H542.037V481.816H582.798V446.887Z" fill="#383838"/>
<defs>
<radialGradient id="paint0_radial_147_7231" cx="0" cy="0" r="1" gradientUnits="userSpaceOnUse" gradientTransform="translate(960 453.5) rotate(90) scale(565.5)">
<stop stop-color="#2C2C2F"/>
<stop offset="1" stop-color="#1D1D1F"/>
</radialGradient>
<clipPath id="clip0_147_7231">
<rect width="244.066" height="680" fill="white" transform="translate(838 114)"/>
</clipPath>
</defs>
</svg>
