<svg width="106" height="131" viewBox="0 0 106 131" fill="none" xmlns="http://www.w3.org/2000/svg">
<path d="M71.9689 20.4059C76.8689 14.9975 79.6107 7.57241 79.1773 0C72.3994 0 64.5409 3.96389 59.5659 9.80571C55.6713 14.6363 51.4907 22.2088 53.0046 29.7783C59.9992 30.645 67.5716 26.2478 71.9689 20.4059Z" fill="black"/>
<path d="M102.591 44.4044C101.226 45.2187 88.3416 52.9048 88.3416 69.2959C88.3734 70.3129 88.4774 71.2778 88.5959 72.2284H88.5901C90.7252 89.2944 105.728 95.3962 106 95.3962C105.949 95.4609 105.837 95.7943 105.649 96.3509C104.779 98.9264 102.296 106.282 96.8443 113.927C91.5832 121.936 85.7414 130.011 76.8718 130.011C72.8047 130.011 69.9947 128.77 67.084 127.485C63.957 126.104 60.7139 124.672 55.6713 124.672C50.095 124.672 46.652 126.19 43.4385 127.608C40.6265 128.848 37.9903 130.011 34.2542 130.011C25.3846 130.011 19.1123 121.502 13.5622 113.569C6.50411 103.402 0.520731 87.5725 0.0671169 72.2284C0.0629588 72.0717 0.0508107 71.9138 0.0386688 71.7558C0.0255019 71.5844 0.0123302 71.413 0.00932407 71.2432C-0.138022 62.9514 1.451 54.8011 5.48712 47.8788C11.1816 38.2146 21.3513 31.6534 32.4543 31.4367C37.3111 31.2734 41.8629 33.2001 45.8411 34.8839C48.8321 36.1498 51.4987 37.2785 53.7269 37.2785C55.7539 37.2785 58.4992 36.3089 61.7528 35.1596C66.4852 33.4881 72.2931 31.4367 78.5301 31.4367C83.0718 31.4396 95.1889 32.809 102.689 44.3454C102.67 44.3572 102.637 44.3769 102.591 44.4044Z" fill="black"/>
</svg>
