<svg width="720" height="720" viewBox="0 0 720 720" fill="none" xmlns="http://www.w3.org/2000/svg">
<g clip-path="url(#clip0_128_8068)">
<g clip-path="url(#clip1_128_8068)">
<path d="M510.34 215.103H482.892V232.671H510.34V215.103Z" fill="#E2E2E2"/>
<path d="M531.747 326.734H221.629V730.674H531.747V326.734Z" fill="#433D4F"/>
<path d="M521.044 337.652H493.722V556.748H521.044V337.652Z" fill="#2A2633"/>
<path d="M452.429 338.413H405.486V635.712H452.429V338.413Z" fill="#2A2633"/>
<path d="M417.368 352.84H307.94V393.107H417.368V352.84Z" fill="#A5A5A5"/>
<path d="M203.604 187.654H187.961V271.229H203.604V187.654Z" fill="#6A6572"/>
<path d="M476.85 170.237H448.856V281.995H476.85V170.237Z" fill="#6A6572"/>
<path d="M223.226 170.237H195.232V281.995H223.226V170.237Z" fill="#5A5663"/>
<path d="M486.008 677.335H232.839V766.496H486.008V677.335Z" fill="white"/>
<path d="M422.789 285.72H379.52V312.738H422.789V285.72Z" fill="#D6AB8E"/>
<path d="M423.346 212.658H380.495V287.759H423.346V212.658Z" fill="#BFA08C"/>
<path d="M379.406 272.47H299.226V311.179H379.406V272.47Z" fill="#BFA08C"/>
<path d="M380.406 147.932H258.3V288.722H380.406V147.932Z" fill="#D6AB8E"/>
<path d="M317.604 122.434H315.983H257.957V161.713H315.983H317.604H374.06V122.434H317.604Z" fill="#313131"/>
<path d="M422.902 110.185H379.278V214.457H422.902V110.185Z" fill="#313131"/>
<path d="M339.467 309.862L299.225 309.114L299.124 352.548V375.399H422.231V309.773H379.405V351.776H339.569L339.467 309.862Z" fill="white"/>
<path d="M299.124 383.228H176.435V682.528C176.435 682.528 544.921 680.071 547.112 682.528C549.303 684.985 547.112 383.228 547.112 383.228H299.124V383.228Z" fill="white"/>
<path d="M372.325 399.707H343.318V647.467H372.325V399.707Z" fill="#E2E2E2"/>
<path d="M217.196 642.388H170V690.774H217.196V642.388Z" fill="#6A6572"/>
<path d="M505.262 661.717H217.196V682.224H505.262V661.717Z" fill="#6A6572"/>
<path d="M268.712 682.262H231.434V1099.2H268.712V682.262Z" fill="#E2E2E2"/>
<path d="M315.172 254.356H299.01V288.936H315.172V254.356Z" fill="#313131"/>
<path d="M387.968 352.84H330.373V391.676H387.968V352.84Z" fill="#E2E2E2"/>
<path d="M379.431 309.52H335.857V357.273H379.431V309.52Z" fill="white"/>
<path d="M379.595 122.852H346.877V259.386H379.595V122.852Z" fill="#DDB99F"/>
<path d="M299.124 288.531H259.186V310.761H299.124V288.531Z" fill="#313131"/>
<path d="M550 641.172H504.362V689.559H550V641.172Z" fill="#6A6572"/>
<path d="M290.624 189.022H267.014V253.8H290.624V189.022Z" fill="#BFA08C"/>
<path d="M309.89 154.721H254.005V171.149H309.89V154.721Z" fill="#313131"/>
<path d="M308.181 172.834H292.259V188.756H308.181V172.834Z" fill="#313131"/>
<path d="M265.899 172.834H258.527V188.756H265.899V172.834Z" fill="#313131"/>
<path d="M299.01 232.102H250.066V254.357H299.01V232.102Z" fill="#313131"/>
<path d="M459.218 130.071H207.658V319.362H459.218V130.071Z" fill="#E2E2E2"/>
<path d="M260.832 682.047H250.129V748.015H260.832V682.047Z" fill="#6A6572"/>
<path d="M456.266 748.002H466.97V681.553H456.266V748.002Z" fill="#6A6572"/>
<path d="M257.818 437.276H217.196V661.274H257.818V437.276Z" fill="#E2E2E2"/>
<path d="M504.299 437.276H463.677V662.439H504.299V437.276Z" fill="#E2E2E2"/>
<path d="M257.843 661.679H217.069V682.224H257.843V661.679Z" fill="#5A5663"/>
<path d="M504.324 661.679H463.601V682.313H504.324V661.679Z" fill="#5A5663"/>
<path d="M547.67 441.278H510.886V456.098H547.67V441.278Z" fill="#FFBC00"/>
<path d="M436.127 108.602H228.735V148.679H436.127V108.602Z" fill="#E2E2E2"/>
<path d="M423.422 94.8965H250.129V123.371H423.422V94.8965Z" fill="#E2E2E2"/>
<path d="M402.75 80H267.394V111.35H402.75V80Z" fill="#E2E2E2"/>
<path d="M230.091 333.067H436.127V292.99H230.091V333.067Z" fill="#E2E2E2"/>
<path d="M248.192 346.785H422.308V318.31H248.192V346.785Z" fill="#E2E2E2"/>
<path d="M267.66 361.669H405.815V330.319H267.66V361.669Z" fill="#E2E2E2"/>
<path d="M393.82 361.44H298.655V375.64H393.82V361.44Z" fill="#A5A5A5"/>
<path d="M298.718 345.228H267.457V361.682H298.718V345.228Z" fill="#A5A5A5"/>
<path d="M264.493 321.718H248.204V346.772H264.493V321.718Z" fill="#A5A5A5"/>
<path d="M248.495 310.115H228.988V333.371H248.495V310.115Z" fill="#A5A5A5"/>
<path d="M229.293 130.097H207.582V319.4H229.293V130.097Z" fill="#A5A5A5"/>
<path d="M287.458 331.763H263.848V346.861H287.458V331.763Z" fill="#A5A5A5"/>
<path d="M247.634 130.008H227.899V148.881H247.634V130.008Z" fill="#A5A5A5"/>
<path d="M250.395 118.785H228.735V130.286H250.395V118.785Z" fill="#A5A5A5"/>
<path d="M265.874 118.887H245.189V130.553H265.874V118.887Z" fill="#A5A5A5"/>
<path d="M265.874 108.057H249.585V118.899H265.874V108.057Z" fill="#A5A5A5"/>
<path d="M443.094 149.11H423.182V130.832H412.238V119.166H394.403V106.486H277.73V119.166H262.86V130.832H244.417V149.11H226.253V310.255H245.582V321.921H261.188V333.6H277.971V346.279H397.05V333.6H411.883V321.921H423.182V310.255H443.094V149.11Z" fill="#313131"/>
<path d="M423.182 149.11V130.832H412.238V119.166H394.403V106.486H277.73V119.166H262.86V130.832H244.417V149.11H226.253V206.591H243.505V194.925H258.388V182.246H375.061V194.925H392.883V206.591H403.827V224.869H423.739V310.255H443.094V149.11H423.182Z" fill="#1E1E1E"/>
<path d="M217.601 507.956H176.435V518.824H217.601V507.956Z" fill="#6A6572"/>
<path d="M548.315 507.956H504.577V518.824H548.315V507.956Z" fill="#6A6572"/>
<path d="M397.114 361.402H378.329V375.754H397.114V361.402Z" fill="#E2E2E2"/>
<path d="M277.844 204.944H256.438V226.351H277.844V204.944Z" fill="#1E1E1E"/>
<path d="M251.776 231.024H230.369V252.431H251.776V231.024Z" fill="#1E1E1E"/>
<path d="M395.834 151.972H376.074V171.732H395.834V151.972Z" fill="#313131"/>
<path d="M504.578 532.656H217.196V552.442H504.578V532.656Z" fill="#6A6572"/>
<path d="M257.958 532.656H217.196V552.442H257.958V532.656Z" fill="#5A5663"/>
<path d="M504.565 532.656H463.398V552.442H504.565V532.656Z" fill="#5A5663"/>
<path d="M460.928 398.871H383.522V420.278H460.928V398.871Z" fill="#6A6572"/>
<path d="M289.244 545.031H280.593V670.609H289.244V545.031Z" fill="#6A6572"/>
<path d="M441.168 545.031H432.517V670.609H441.168V545.031Z" fill="#6A6572"/>
<path d="M486.046 187.654H470.402V271.229H486.046V187.654Z" fill="#6A6572"/>
<path d="M527.631 650.152H504.299V661.4H527.631V650.152Z" fill="#5A5663"/>
<path d="M216.917 650.152H193.585V661.4H216.917V650.152Z" fill="#5A5663"/>
<path d="M334.122 437.162H316.009V455.275H334.122V437.162Z" fill="#6A6572"/>
<path d="M304.47 437.162H286.356V455.275H304.47V437.162Z" fill="#6A6572"/>
<path d="M526.807 232.671H510.341V326.544H526.807V232.671Z" fill="white"/>
</g>
</g>
<defs>
<clipPath id="clip0_128_8068">
<rect width="720" height="720" fill="white"/>
</clipPath>
<clipPath id="clip1_128_8068">
<rect width="380" height="1058.73" fill="white" transform="translate(170 80)"/>
</clipPath>
</defs>
</svg>
