<svg width="520" height="700" viewBox="0 0 520 700" fill="none" xmlns="http://www.w3.org/2000/svg">
<g clip-path="url(#clip0_135_11291)">
<g clip-path="url(#clip1_135_11291)">
<path d="M473.934 306.576L456.29 285.549L442.832 296.842L460.476 317.869L473.934 306.576Z" fill="#E2E2E2"/>
<path d="M402.179 394.729L202.839 157.165L-106.597 416.813L92.7432 654.377L402.179 394.729Z" fill="#433D4F"/>
<path d="M386.935 393.549L369.373 372.619L201.536 513.451L219.098 534.381L386.935 393.549Z" fill="#2A2633"/>
<path d="M342.248 341.475L312.074 305.515L84.3292 496.615L114.503 532.575L342.248 341.475Z" fill="#2A2633"/>
<path d="M308.659 323.89L238.32 240.063L207.474 265.947L277.812 349.773L308.659 323.89Z" fill="#A5A5A5"/>
<path d="M297.795 53.9591L287.739 41.9756L223.717 95.6963L233.773 107.68L297.795 53.9591Z" fill="#6A6572"/>
<path d="M486.776 252.081L468.782 230.637L383.17 302.473L401.164 323.918L486.776 252.081Z" fill="#6A6572"/>
<path d="M323.749 57.7947L305.755 36.3506L220.143 108.187L238.137 129.631L323.749 57.7947Z" fill="#5A5663"/>
<path d="M104.203 585.053L-58.5309 391.114L-126.832 448.426L35.9018 642.364L104.203 585.053Z" fill="white"/>
<path d="M363.561 284.898L335.748 251.752L315.051 269.119L342.864 302.265L363.561 284.898Z" fill="#D6AB8E"/>
<path d="M419.888 238.363L392.343 205.537L334.813 253.811L362.357 286.637L419.888 238.363Z" fill="#BFA08C"/>
<path d="M345.824 243.149L294.286 181.728L264.633 206.609L316.171 268.031L345.824 243.149Z" fill="#BFA08C"/>
<path d="M441.87 163.863L363.381 70.3242L255.53 160.822L334.018 254.361L441.87 163.863Z" fill="#D6AB8E"/>
<path d="M421.034 99.3654L419.992 98.1233L382.694 53.6729L352.604 78.9211L389.903 123.372L390.945 124.614L427.233 167.861L457.323 142.613L421.034 99.3654Z" fill="#313131"/>
<path d="M498.102 172.155L470.061 138.737L390.184 205.762L418.225 239.18L498.102 172.155Z" fill="#313131"/>
<path d="M291.509 236.589L266.214 205.282L232.877 233.123L215.372 247.811L294.504 342.117L344.776 299.933L317.248 267.127L285.072 294.125L259.466 263.609L291.509 236.589Z" fill="white"/>
<path d="M209.376 252.843L130.512 158.857L-98.7653 351.244C-98.7653 351.244 139.975 631.941 139.502 635.199C139.028 638.458 368.779 442.813 368.779 442.813L209.376 252.843V252.843Z" fill="white"/>
<path d="M243.804 319.51L225.159 297.29L35.3638 456.547L54.0089 478.767L243.804 319.51Z" fill="#E2E2E2"/>
<path d="M128.543 589.763L-56.6222 369.092L-72.3318 382.274L112.833 602.945L128.543 589.763Z" fill="#6A6572"/>
<path d="M36.479 641.83L-9.09167 587.521L-262.627 800.263L-217.057 854.572L36.479 641.83Z" fill="white"/>
<path d="M12.2117 613.166L-20.6493 574.004L-275.369 787.739L-242.508 826.901L12.2117 613.166Z" fill="#E2E2E2"/>
<path d="M318.412 182.3L308.023 169.919L281.533 192.147L291.922 204.528L318.412 182.3Z" fill="#313131"/>
<path d="M289.761 301.369L252.74 257.248L222.99 282.211L260.011 326.332L289.761 301.369Z" fill="#E2E2E2"/>
<path d="M317.459 266.984L289.45 233.604L252.869 264.3L280.878 297.679L317.459 266.984Z" fill="white"/>
<path d="M460.561 147.121L439.53 122.058L334.939 209.82L355.97 234.883L460.561 147.121Z" fill="#DDB99F"/>
<path d="M281.917 191.974L256.245 161.38L239.216 175.669L264.888 206.263L281.917 191.974Z" fill="#313131"/>
<path d="M173.039 610.829L143.703 575.868L106.637 606.971L135.972 641.931L173.039 610.829Z" fill="#6A6572"/>
<path d="M352.682 121.499L337.505 103.412L287.883 145.05L303.06 163.137L352.682 121.499Z" fill="#BFA08C"/>
<path d="M391.343 114.209L355.42 71.3984L342.835 81.9586L378.757 124.769L391.343 114.209Z" fill="#313131"/>
<path d="M376.368 124.543L366.133 112.346L353.936 122.58L364.171 134.777L376.368 124.543Z" fill="#313131"/>
<path d="M349.19 92.1531L344.451 86.5059L332.254 96.7403L336.993 102.388L349.19 92.1531Z" fill="#313131"/>
<path d="M325.072 155.613L293.611 118.12L276.562 132.426L308.023 169.919L325.072 155.613Z" fill="#313131"/>
<path d="M506.211 212.756L344.511 20.0498L199.506 141.724L361.206 334.43L506.211 212.756Z" fill="#E2E2E2"/>
<path d="M30.9901 621.633L43.1624 636.14L50.0031 630.4L37.8309 615.893L30.9901 621.633Z" fill="#6A6572"/>
<path d="M30.9511 607.694L37.8311 615.894L88.7342 573.181L81.8542 564.982L30.9511 607.694Z" fill="#6A6572"/>
<path d="M141.421 255.942L115.31 224.824L-56.2824 368.807L-30.1711 399.925L141.421 255.942Z" fill="#E2E2E2"/>
<path d="M299.855 444.758L273.744 413.64L101.259 558.371L127.371 589.49L299.855 444.758Z" fill="#E2E2E2"/>
<path d="M127.969 589.02L101.793 557.824L85.9861 571.088L112.163 602.283L127.969 589.02Z" fill="#5A5663"/>
<path d="M324.667 480.554L301.023 452.376L289.67 461.902L313.315 490.08L324.667 480.554Z" fill="#FFBC00"/>
<path d="M507.815 181.266L374.506 22.3955L343.805 48.1567L477.114 207.028L507.815 181.266Z" fill="#E2E2E2"/>
<path d="M510.147 162.725L398.757 29.9756L376.944 48.2788L488.334 181.029L510.147 162.725Z" fill="#E2E2E2"/>
<path d="M508.271 137.315L421.266 33.626L397.25 53.7774L484.255 157.466L508.271 137.315Z" fill="#E2E2E2"/>
<path d="M203.427 167.718L335.864 325.551L366.565 299.79L234.128 141.957L203.427 167.718Z" fill="#E2E2E2"/>
<path d="M204.553 190.403L316.472 323.783L338.285 305.48L226.366 172.099L204.553 190.403Z" fill="#E2E2E2"/>
<path d="M205.666 214.883L294.47 320.716L318.486 300.564L229.681 194.731L205.666 214.883Z" fill="#E2E2E2"/>
<path d="M286.934 311.38L225.764 238.479L214.886 247.607L276.057 320.507L286.934 311.38Z" fill="#A5A5A5"/>
<path d="M238.225 228.107L218.13 204.159L205.526 214.736L225.62 238.683L238.225 228.107Z" fill="#A5A5A5"/>
<path d="M234.234 186.776L223.764 174.298L204.571 190.403L215.041 202.881L234.234 186.776Z" fill="#A5A5A5"/>
<path d="M232.839 167.063L220.3 152.12L202.485 167.069L215.024 182.012L232.839 167.063Z" fill="#A5A5A5"/>
<path d="M358.398 36.6391L344.443 20.0078L199.428 141.69L213.383 158.321L358.398 36.6391Z" fill="#A5A5A5"/>
<path d="M241.301 210.825L226.124 192.738L214.558 202.444L229.735 220.53L241.301 210.825Z" fill="#A5A5A5"/>
<path d="M370.256 50.6333L357.57 35.5156L343.113 47.6472L355.798 62.7648L370.256 50.6333Z" fill="#A5A5A5"/>
<path d="M380.628 45.5349L366.705 28.9424L357.894 36.3353L371.817 52.9278L380.628 45.5349Z" fill="#A5A5A5"/>
<path d="M390.499 57.4577L377.204 41.6123L368.267 49.1111L381.563 64.9564L390.499 57.4577Z" fill="#A5A5A5"/>
<path d="M398.796 50.4959L388.325 38.0176L380.019 44.9871L390.49 57.4655L398.796 50.4959Z" fill="#A5A5A5"/>
<path d="M481.262 212.642L468.463 197.389L482.465 185.64L475.43 177.256L484.367 169.757L472.903 156.095L482.616 147.945L407.62 58.5687L397.907 66.7188L388.348 55.3272L379.412 62.826L367.557 48.6981L353.555 60.4469L341.88 46.5325L218.435 150.115L230.86 164.922L221.923 172.421L231.954 184.375L223.008 191.882L233.796 204.739L224.083 212.889L300.625 304.109L310.338 295.959L319.873 307.321L328.819 299.814L336.082 308.47L345.018 300.971L357.817 316.224L481.262 212.642Z" fill="#313131"/>
<path d="M468.463 197.389L482.465 185.64L475.43 177.256L484.367 169.757L472.903 156.095L482.616 147.945L407.62 58.5687L397.907 66.7188L388.348 55.3272L379.412 62.826L367.557 48.6981L353.555 60.4469L341.88 46.5325L297.846 83.4808L308.936 96.6966L317.872 89.1978L327.439 100.599L337.152 92.449L412.148 181.825L402.435 189.976L413.891 203.628L404.954 211.127L411.989 219.51L397.987 231.259L410.786 246.513L345.377 301.398L357.817 316.224L481.262 212.642L468.463 197.389Z" fill="#1E1E1E"/>
<path d="M61.426 270.567L34.9646 239.031L26.6392 246.017L53.1006 277.553L61.426 270.567Z" fill="#6A6572"/>
<path d="M274.005 523.909L245.891 490.403L237.565 497.389L265.679 530.894L274.005 523.909Z" fill="#6A6572"/>
<path d="M289.081 313.878L277.006 299.488L266.012 308.713L278.087 323.103L289.081 313.878Z" fill="#E2E2E2"/>
<path d="M332.27 121.943L318.51 105.545L302.111 119.305L315.871 135.703L332.27 121.943Z" fill="#1E1E1E"/>
<path d="M295.535 118.738L281.775 102.34L265.376 116.1L279.136 132.498L295.535 118.738Z" fill="#1E1E1E"/>
<path d="M448.691 178.279L435.99 163.142L420.853 175.843L433.554 190.98L448.691 178.279Z" fill="#313131"/>
<path d="M226.969 506.281L42.2443 286.134L27.0877 298.852L211.813 518.999L226.969 506.281Z" fill="#6A6572"/>
<path d="M68.4451 317.359L42.2443 286.134L27.0877 298.852L53.2886 330.077L68.4451 317.359Z" fill="#5A5663"/>
<path d="M226.961 506.271L200.5 474.735L185.343 487.453L211.805 518.989L226.961 506.271Z" fill="#5A5663"/>
<path d="M301.398 386.847L251.642 327.551L235.244 341.311L284.999 400.607L301.398 386.847Z" fill="#6A6572"/>
<path d="M79.0756 349.28L73.5146 342.652L-22.6831 423.372L-17.1222 429.999L79.0756 349.28Z" fill="#6A6572"/>
<path d="M176.731 465.662L171.17 459.034L74.9719 539.754L80.5329 546.381L176.731 465.662Z" fill="#6A6572"/>
<path d="M479.345 270.321L469.289 258.338L405.267 312.059L415.323 324.042L479.345 270.321Z" fill="#6A6572"/>
<path d="M151.78 599.465L136.783 581.592L128.166 588.822L143.164 606.695L151.78 599.465Z" fill="#5A5663"/>
<path d="M190.556 314.322L178.912 300.446L165.037 312.089L176.68 325.965L190.556 314.322Z" fill="#6A6572"/>
<path d="M171.495 291.606L159.852 277.73L145.976 289.374L157.619 303.249L171.495 291.606Z" fill="#6A6572"/>
<path d="M471.06 330.482L460.476 317.868L388.565 378.208L399.149 390.823L471.06 330.482Z" fill="white"/>
</g>
</g>
<defs>
<clipPath id="clip0_135_11291">
<rect width="520" height="700" fill="white"/>
</clipPath>
<clipPath id="clip1_135_11291">
<rect width="380" height="1058.73" fill="white" transform="translate(358.662 -40.9824) rotate(50)"/>
</clipPath>
</defs>
</svg>
