<svg width="1100" height="600" viewBox="0 0 1100 600" fill="none" xmlns="http://www.w3.org/2000/svg">
<path d="M419 11.446C419 18.2953 422.379 22.8311 428.072 22.8311C433.734 22.8311 437.113 18.2953 437.113 11.446C437.113 4.6271 433.581 0 428.072 0C422.531 0 419 4.6271 419 11.446ZM421.953 11.446C421.953 5.96652 424.205 2.67885 428.072 2.67885C431.938 2.67885 434.16 5.96652 434.16 11.446C434.16 16.8645 431.938 20.1522 428.072 20.1522C424.205 20.1522 421.953 16.8645 421.953 11.446Z" fill="#1D1D1F"/>
<path d="M419 107.446C419 114.295 422.379 118.831 428.072 118.831C433.734 118.831 437.113 114.295 437.113 107.446C437.113 100.627 433.581 96 428.072 96C422.531 96 419 100.627 419 107.446ZM421.953 107.446C421.953 101.967 424.205 98.6788 428.072 98.6788C431.938 98.6788 434.16 101.967 434.16 107.446C434.16 112.865 431.938 116.152 428.072 116.152C424.205 116.152 421.953 112.865 421.953 107.446Z" fill="#1D1D1F"/>
<path d="M419 252.044C419 258.893 422.379 263.429 428.072 263.429C433.734 263.429 437.113 258.893 437.113 252.044C437.113 245.225 433.581 240.598 428.072 240.598C422.531 240.598 419 245.225 419 252.044ZM421.953 252.044C421.953 246.564 424.205 243.277 428.072 243.277C431.938 243.277 434.16 246.564 434.16 252.044C434.16 257.462 431.938 260.75 428.072 260.75C424.205 260.75 421.953 257.462 421.953 252.044Z" fill="#1D1D1F"/>
<path d="M419 300.243C419 307.092 422.379 311.628 428.072 311.628C433.734 311.628 437.113 307.092 437.113 300.243C437.113 293.424 433.581 288.797 428.072 288.797C422.531 288.797 419 293.424 419 300.243ZM421.953 300.243C421.953 294.763 424.205 291.476 428.072 291.476C431.938 291.476 434.16 294.763 434.16 300.243C434.16 305.661 431.938 308.949 428.072 308.949C424.205 308.949 421.953 305.661 421.953 300.243Z" fill="#1D1D1F"/>
<path d="M419 396.641C419 403.491 422.379 408.026 428.072 408.026C433.734 408.026 437.113 403.491 437.113 396.641C437.113 389.822 433.581 385.195 428.072 385.195C422.531 385.195 419 389.822 419 396.641ZM421.953 396.641C421.953 391.162 424.205 387.874 428.072 387.874C431.938 387.874 434.16 391.162 434.16 396.641C434.16 402.06 431.938 405.348 428.072 405.348C424.205 405.348 421.953 402.06 421.953 396.641Z" fill="#1D1D1F"/>
<path d="M419 444.841C419 451.69 422.379 456.226 428.072 456.226C433.734 456.226 437.113 451.69 437.113 444.841C437.113 438.022 433.581 433.395 428.072 433.395C422.531 433.395 419 438.022 419 444.841ZM421.953 444.841C421.953 439.361 424.205 436.073 428.072 436.073C431.938 436.073 434.16 439.361 434.16 444.841C434.16 450.259 431.938 453.547 428.072 453.547C424.205 453.547 421.953 450.259 421.953 444.841Z" fill="#1D1D1F"/>
<path d="M419 493.038C419 499.887 422.379 504.423 428.072 504.423C433.734 504.423 437.113 499.887 437.113 493.038C437.113 486.219 433.581 481.592 428.072 481.592C422.531 481.592 419 486.219 419 493.038ZM421.953 493.038C421.953 487.558 424.205 484.271 428.072 484.271C431.938 484.271 434.16 487.558 434.16 493.038C434.16 498.456 431.938 501.744 428.072 501.744C424.205 501.744 421.953 498.456 421.953 493.038Z" fill="#1D1D1F"/>
<path d="M429.746 50.4806V69.8109H432.607V47.8018H425.119V50.4806H429.746Z" fill="#1D1D1F"/>
<path d="M429.746 146.879V166.209H432.607V144.2H425.119V146.879H429.746Z" fill="#1D1D1F"/>
<path d="M429.746 195.078V214.409H432.607V192.399H425.119V195.078H429.746Z" fill="#1D1D1F"/>
<path d="M429.746 339.675V359.005H432.607V336.996H425.119V339.675H429.746Z" fill="#1D1D1F"/>
<path d="M429.746 532.472V551.802H432.607V529.793H425.119V532.472H429.746Z" fill="#1D1D1F"/>
<path d="M429.746 580.669V599.999H432.607V577.99H425.119V580.669H429.746Z" fill="#1D1D1F"/>
<path d="M351 107.446C351 114.295 354.379 118.831 360.072 118.831C365.734 118.831 369.113 114.295 369.113 107.446C369.113 100.627 365.581 96 360.072 96C354.531 96 351 100.627 351 107.446ZM353.953 107.446C353.953 101.967 356.205 98.6788 360.072 98.6788C363.938 98.6788 366.16 101.967 366.16 107.446C366.16 112.865 363.938 116.152 360.072 116.152C356.205 116.152 353.953 112.865 353.953 107.446Z" fill="#1D1D1F"/>
<path d="M351 252.044C351 258.893 354.379 263.429 360.072 263.429C365.734 263.429 369.113 258.893 369.113 252.044C369.113 245.225 365.581 240.598 360.072 240.598C354.531 240.598 351 245.225 351 252.044ZM353.953 252.044C353.953 246.564 356.205 243.277 360.072 243.277C363.938 243.277 366.16 246.564 366.16 252.044C366.16 257.462 363.938 260.75 360.072 260.75C356.205 260.75 353.953 257.462 353.953 252.044Z" fill="#1D1D1F"/>
<path d="M351 300.243C351 307.092 354.379 311.628 360.072 311.628C365.734 311.628 369.113 307.092 369.113 300.243C369.113 293.424 365.581 288.797 360.072 288.797C354.531 288.797 351 293.424 351 300.243ZM353.953 300.243C353.953 294.763 356.205 291.476 360.072 291.476C363.938 291.476 366.16 294.763 366.16 300.243C366.16 305.661 363.938 308.949 360.072 308.949C356.205 308.949 353.953 305.661 353.953 300.243Z" fill="#1D1D1F"/>
<path d="M351 396.641C351 403.491 354.379 408.026 360.072 408.026C365.734 408.026 369.113 403.491 369.113 396.641C369.113 389.822 365.581 385.195 360.072 385.195C354.531 385.195 351 389.822 351 396.641ZM353.953 396.641C353.953 391.162 356.205 387.874 360.072 387.874C363.938 387.874 366.16 391.162 366.16 396.641C366.16 402.06 363.938 405.348 360.072 405.348C356.205 405.348 353.953 402.06 353.953 396.641Z" fill="#1D1D1F"/>
<path d="M351 444.841C351 451.69 354.379 456.226 360.072 456.226C365.734 456.226 369.113 451.69 369.113 444.841C369.113 438.022 365.581 433.395 360.072 433.395C354.531 433.395 351 438.022 351 444.841ZM353.953 444.841C353.953 439.361 356.205 436.073 360.072 436.073C363.938 436.073 366.16 439.361 366.16 444.841C366.16 450.259 363.938 453.547 360.072 453.547C356.205 453.547 353.953 450.259 353.953 444.841Z" fill="#1D1D1F"/>
<path d="M351 493.038C351 499.887 354.379 504.423 360.072 504.423C365.734 504.423 369.113 499.887 369.113 493.038C369.113 486.219 365.581 481.592 360.072 481.592C354.531 481.592 351 486.219 351 493.038ZM353.953 493.038C353.953 487.558 356.205 484.271 360.072 484.271C363.938 484.271 366.16 487.558 366.16 493.038C366.16 498.456 363.938 501.744 360.072 501.744C356.205 501.744 353.953 498.456 353.953 493.038Z" fill="#1D1D1F"/>
<path d="M361.746 50.4806V69.8109H364.607V47.8018H357.119V50.4806H361.746Z" fill="#1D1D1F"/>
<path d="M361.746 146.879V166.209H364.607V144.2H357.119V146.879H361.746Z" fill="#1D1D1F"/>
<path d="M361.746 195.078V214.409H364.607V192.399H357.119V195.078H361.746Z" fill="#1D1D1F"/>
<path d="M361.746 339.675V359.005H364.607V336.996H357.119V339.675H361.746Z" fill="#1D1D1F"/>
<path d="M361.746 532.472V551.802H364.607V529.793H357.119V532.472H361.746Z" fill="#1D1D1F"/>
<path d="M663 11.446C663 18.2953 666.379 22.8311 672.072 22.8311C677.734 22.8311 681.113 18.2953 681.113 11.446C681.113 4.6271 677.581 0 672.072 0C666.531 0 663 4.6271 663 11.446ZM665.953 11.446C665.953 5.96652 668.205 2.67885 672.072 2.67885C675.938 2.67885 678.16 5.96652 678.16 11.446C678.16 16.8645 675.938 20.1522 672.072 20.1522C668.205 20.1522 665.953 16.8645 665.953 11.446Z" fill="#1D1D1F"/>
<path d="M663 107.446C663 114.295 666.379 118.831 672.072 118.831C677.734 118.831 681.113 114.295 681.113 107.446C681.113 100.627 677.581 96 672.072 96C666.531 96 663 100.627 663 107.446ZM665.953 107.446C665.953 101.967 668.205 98.6788 672.072 98.6788C675.938 98.6788 678.16 101.967 678.16 107.446C678.16 112.865 675.938 116.152 672.072 116.152C668.205 116.152 665.953 112.865 665.953 107.446Z" fill="#1D1D1F"/>
<path d="M663 252.044C663 258.893 666.379 263.429 672.072 263.429C677.734 263.429 681.113 258.893 681.113 252.044C681.113 245.225 677.581 240.598 672.072 240.598C666.531 240.598 663 245.225 663 252.044ZM665.953 252.044C665.953 246.564 668.205 243.277 672.072 243.277C675.938 243.277 678.16 246.564 678.16 252.044C678.16 257.462 675.938 260.75 672.072 260.75C668.205 260.75 665.953 257.462 665.953 252.044Z" fill="#1D1D1F"/>
<path d="M663 300.243C663 307.092 666.379 311.628 672.072 311.628C677.734 311.628 681.113 307.092 681.113 300.243C681.113 293.424 677.581 288.797 672.072 288.797C666.531 288.797 663 293.424 663 300.243ZM665.953 300.243C665.953 294.763 668.205 291.476 672.072 291.476C675.938 291.476 678.16 294.763 678.16 300.243C678.16 305.661 675.938 308.949 672.072 308.949C668.205 308.949 665.953 305.661 665.953 300.243Z" fill="#1D1D1F"/>
<path d="M663 396.641C663 403.491 666.379 408.026 672.072 408.026C677.734 408.026 681.113 403.491 681.113 396.641C681.113 389.822 677.581 385.195 672.072 385.195C666.531 385.195 663 389.822 663 396.641ZM665.953 396.641C665.953 391.162 668.205 387.874 672.072 387.874C675.938 387.874 678.16 391.162 678.16 396.641C678.16 402.06 675.938 405.348 672.072 405.348C668.205 405.348 665.953 402.06 665.953 396.641Z" fill="#1D1D1F"/>
<path d="M663 444.841C663 451.69 666.379 456.226 672.072 456.226C677.734 456.226 681.113 451.69 681.113 444.841C681.113 438.022 677.581 433.395 672.072 433.395C666.531 433.395 663 438.022 663 444.841ZM665.953 444.841C665.953 439.361 668.205 436.073 672.072 436.073C675.938 436.073 678.16 439.361 678.16 444.841C678.16 450.259 675.938 453.547 672.072 453.547C668.205 453.547 665.953 450.259 665.953 444.841Z" fill="#1D1D1F"/>
<path d="M663 493.038C663 499.887 666.379 504.423 672.072 504.423C677.734 504.423 681.113 499.887 681.113 493.038C681.113 486.219 677.581 481.592 672.072 481.592C666.531 481.592 663 486.219 663 493.038ZM665.953 493.038C665.953 487.558 668.205 484.271 672.072 484.271C675.938 484.271 678.16 487.558 678.16 493.038C678.16 498.456 675.938 501.744 672.072 501.744C668.205 501.744 665.953 498.456 665.953 493.038Z" fill="#1D1D1F"/>
<path d="M673.746 50.4806V69.8109H676.607V47.8018H669.119V50.4806H673.746Z" fill="#1D1D1F"/>
<path d="M673.746 146.879V166.209H676.607V144.2H669.119V146.879H673.746Z" fill="#1D1D1F"/>
<path d="M673.746 195.078V214.409H676.607V192.399H669.119V195.078H673.746Z" fill="#1D1D1F"/>
<path d="M673.746 339.675V359.005H676.607V336.996H669.119V339.675H673.746Z" fill="#1D1D1F"/>
<path d="M673.746 532.472V551.802H676.607V529.793H669.119V532.472H673.746Z" fill="#1D1D1F"/>
<path d="M673.746 580.669V599.999H676.607V577.99H669.119V580.669H673.746Z" fill="#1D1D1F"/>
<path d="M723 107.446C723 114.295 726.379 118.831 732.072 118.831C737.734 118.831 741.113 114.295 741.113 107.446C741.113 100.627 737.581 96 732.072 96C726.531 96 723 100.627 723 107.446ZM725.953 107.446C725.953 101.967 728.205 98.6788 732.072 98.6788C735.938 98.6788 738.16 101.967 738.16 107.446C738.16 112.865 735.938 116.152 732.072 116.152C728.205 116.152 725.953 112.865 725.953 107.446Z" fill="#1D1D1F"/>
<path d="M723 252.044C723 258.893 726.379 263.429 732.072 263.429C737.734 263.429 741.113 258.893 741.113 252.044C741.113 245.225 737.581 240.598 732.072 240.598C726.531 240.598 723 245.225 723 252.044ZM725.953 252.044C725.953 246.564 728.205 243.277 732.072 243.277C735.938 243.277 738.16 246.564 738.16 252.044C738.16 257.462 735.938 260.75 732.072 260.75C728.205 260.75 725.953 257.462 725.953 252.044Z" fill="#1D1D1F"/>
<path d="M723 300.243C723 307.092 726.379 311.628 732.072 311.628C737.734 311.628 741.113 307.092 741.113 300.243C741.113 293.424 737.581 288.797 732.072 288.797C726.531 288.797 723 293.424 723 300.243ZM725.953 300.243C725.953 294.763 728.205 291.476 732.072 291.476C735.938 291.476 738.16 294.763 738.16 300.243C738.16 305.661 735.938 308.949 732.072 308.949C728.205 308.949 725.953 305.661 725.953 300.243Z" fill="#1D1D1F"/>
<path d="M723 396.641C723 403.491 726.379 408.026 732.072 408.026C737.734 408.026 741.113 403.491 741.113 396.641C741.113 389.822 737.581 385.195 732.072 385.195C726.531 385.195 723 389.822 723 396.641ZM725.953 396.641C725.953 391.162 728.205 387.874 732.072 387.874C735.938 387.874 738.16 391.162 738.16 396.641C738.16 402.06 735.938 405.348 732.072 405.348C728.205 405.348 725.953 402.06 725.953 396.641Z" fill="#1D1D1F"/>
<path d="M723 444.841C723 451.69 726.379 456.226 732.072 456.226C737.734 456.226 741.113 451.69 741.113 444.841C741.113 438.022 737.581 433.395 732.072 433.395C726.531 433.395 723 438.022 723 444.841ZM725.953 444.841C725.953 439.361 728.205 436.073 732.072 436.073C735.938 436.073 738.16 439.361 738.16 444.841C738.16 450.259 735.938 453.547 732.072 453.547C728.205 453.547 725.953 450.259 725.953 444.841Z" fill="#1D1D1F"/>
<path d="M723 493.038C723 499.887 726.379 504.423 732.072 504.423C737.734 504.423 741.113 499.887 741.113 493.038C741.113 486.219 737.581 481.592 732.072 481.592C726.531 481.592 723 486.219 723 493.038ZM725.953 493.038C725.953 487.558 728.205 484.271 732.072 484.271C735.938 484.271 738.16 487.558 738.16 493.038C738.16 498.456 735.938 501.744 732.072 501.744C728.205 501.744 725.953 498.456 725.953 493.038Z" fill="#1D1D1F"/>
<path d="M733.746 50.4806V69.8109H736.607V47.8018H729.119V50.4806H733.746Z" fill="#1D1D1F"/>
<path d="M733.746 146.879V166.209H736.607V144.2H729.119V146.879H733.746Z" fill="#1D1D1F"/>
<path d="M733.746 195.078V214.409H736.607V192.399H729.119V195.078H733.746Z" fill="#1D1D1F"/>
<path d="M733.746 339.675V359.005H736.607V336.996H729.119V339.675H733.746Z" fill="#1D1D1F"/>
<path d="M733.746 532.472V551.802H736.607V529.793H729.119V532.472H733.746Z" fill="#1D1D1F"/>
<path fill-rule="evenodd" clip-rule="evenodd" d="M549.5 66C557.309 66 564.602 69.903 568.934 76.4009L709.077 286.615C714.307 294.46 714.307 304.682 709.077 312.527L568.934 522.741C564.602 529.239 557.309 533.142 549.5 533.142C541.69 533.142 534.397 529.239 530.065 522.741L389.923 312.527C384.692 304.682 384.692 294.46 389.923 286.615L530.065 76.4009C534.397 69.903 541.69 66 549.5 66ZM437.429 299.571L549.5 467.677L661.571 299.571L549.5 131.465L437.429 299.571Z" fill="#F5F5F7" stroke="#1D1D1F" stroke-width="1.33333" stroke-linecap="round" stroke-linejoin="round"/>
<path fill-rule="evenodd" clip-rule="evenodd" d="M539.054 208.608C545.63 205.321 553.37 205.321 559.946 208.608L700.088 278.68C708.538 282.905 713.611 291.803 712.941 301.227C712.271 310.65 705.991 318.742 697.029 321.729L556.886 368.444C552.092 370.042 546.908 370.042 542.114 368.444L401.971 321.729C393.009 318.742 386.729 310.65 386.059 301.227C385.389 291.803 390.462 282.905 398.912 278.68L539.054 208.608ZM470.239 295.244L549.5 321.665L628.761 295.244L549.5 255.614L470.239 295.244Z" fill="#F5F5F7" stroke="#1D1D1F" stroke-width="1.33333" stroke-linecap="round" stroke-linejoin="round"/>
<rect width="91.9259" height="91.9259" transform="matrix(0.866025 -0.5 2.20305e-08 1 170.798 299.61)" fill="url(#paint0_linear_158_7230)"/>
<rect width="91.9259" height="91.9259" transform="matrix(0.866025 0.5 -2.20305e-08 1 91.187 253.647)" fill="url(#paint1_linear_158_7230)"/>
<g style="mix-blend-mode:darken">
<rect width="91.9259" height="91.9259" transform="matrix(0.866025 -0.5 0.866025 0.5 91.187 253.647)" fill="url(#paint2_linear_158_7230)"/>
</g>
<g style="mix-blend-mode:screen" opacity="0.4">
<rect width="91.9259" height="91.9259" transform="matrix(0.866025 -0.5 0.866025 0.5 91.4849 287.602)" fill="url(#paint3_linear_158_7230)"/>
</g>
<g style="mix-blend-mode:screen" opacity="0.4">
<rect width="91.9259" height="91.9259" transform="matrix(0.866025 -0.5 0.866025 0.5 91.4849 320.64)" fill="url(#paint4_linear_158_7230)"/>
</g>
<rect width="132.761" height="132.445" transform="matrix(0.866025 -0.5 0.866025 0.5 56 233.381)" stroke="#1D1D1F" stroke-linejoin="bevel"/>
<rect width="132.445" height="133.398" transform="matrix(0.866025 -0.5 2.20305e-08 1 171.334 299.602)" stroke="#1D1D1F" stroke-linejoin="bevel"/>
<path d="M56 234.172L170.067 300.028L170.067 432.363L56 366.506L56 234.172Z" stroke="#1D1D1F" stroke-linejoin="round"/>
<rect width="91.9259" height="91.9259" transform="matrix(0.866025 -0.5 2.20305e-08 1 927.798 299.61)" fill="url(#paint5_linear_158_7230)"/>
<rect width="91.9259" height="91.9259" transform="matrix(0.866025 0.5 -2.20305e-08 1 848.187 253.647)" fill="url(#paint6_linear_158_7230)"/>
<g style="mix-blend-mode:darken">
<rect width="91.9259" height="91.9259" transform="matrix(0.866025 -0.5 0.866025 0.5 848.187 253.647)" fill="url(#paint7_linear_158_7230)"/>
</g>
<g style="mix-blend-mode:screen" opacity="0.4">
<rect width="91.9259" height="91.9259" transform="matrix(0.866025 -0.5 0.866025 0.5 848.485 287.602)" fill="url(#paint8_linear_158_7230)"/>
</g>
<g style="mix-blend-mode:screen" opacity="0.4">
<rect width="91.9259" height="91.9259" transform="matrix(0.866025 -0.5 0.866025 0.5 848.485 320.64)" fill="url(#paint9_linear_158_7230)"/>
</g>
<rect width="132.761" height="132.445" transform="matrix(0.866025 -0.5 0.866025 0.5 813 233.381)" stroke="#1D1D1F" stroke-linejoin="bevel"/>
<rect width="132.445" height="133.398" transform="matrix(0.866025 -0.5 2.20305e-08 1 928.334 299.602)" stroke="#1D1D1F" stroke-linejoin="bevel"/>
<path d="M813 234.172L927.067 300.028L927.067 432.363L813 366.506L813 234.172Z" stroke="#1D1D1F" stroke-linejoin="round"/>
<circle cx="56" cy="233" r="7" fill="#1D1D1F"/>
<circle cx="171" cy="167" r="7" fill="#1D1D1F"/>
<circle cx="286" cy="233" r="7" fill="#1D1D1F"/>
<circle cx="171" cy="300" r="7" fill="#1D1D1F"/>
<circle cx="286" cy="367" r="7" fill="#1D1D1F"/>
<circle cx="56" cy="367" r="7" fill="#1D1D1F"/>
<circle cx="171" cy="432" r="7" fill="#1D1D1F"/>
<circle cx="813" cy="233" r="7" fill="#1D1D1F"/>
<circle cx="928" cy="167" r="7" fill="#1D1D1F"/>
<circle cx="1043" cy="233" r="7" fill="#1D1D1F"/>
<circle cx="928" cy="300" r="7" fill="#1D1D1F"/>
<circle cx="1043" cy="367" r="7" fill="#1D1D1F"/>
<circle cx="813" cy="367" r="7" fill="#1D1D1F"/>
<circle cx="928" cy="432" r="7" fill="#1D1D1F"/>
<defs>
<linearGradient id="paint0_linear_158_7230" x1="109.194" y1="48.2195" x2="12.022" y2="117.492" gradientUnits="userSpaceOnUse">
<stop stop-color="#66B2FF"/>
<stop offset="1" stop-color="#0071E3"/>
</linearGradient>
<linearGradient id="paint1_linear_158_7230" x1="110.464" y1="-25.9828" x2="-44.7961" y2="-16.6921" gradientUnits="userSpaceOnUse">
<stop stop-color="#66B2FF"/>
<stop offset="1" stop-color="#0071E3"/>
</linearGradient>
<linearGradient id="paint2_linear_158_7230" x1="73.1347" y1="73.1347" x2="66.7775" y2="-35.6807" gradientUnits="userSpaceOnUse">
<stop stop-color="#66B2FF"/>
<stop offset="1" stop-color="#0071E3"/>
</linearGradient>
<linearGradient id="paint3_linear_158_7230" x1="73.1347" y1="73.1347" x2="66.7775" y2="-35.6807" gradientUnits="userSpaceOnUse">
<stop stop-color="#66B2FF"/>
<stop offset="1" stop-color="#0071E3"/>
</linearGradient>
<linearGradient id="paint4_linear_158_7230" x1="73.1347" y1="73.1347" x2="66.7775" y2="-35.6807" gradientUnits="userSpaceOnUse">
<stop stop-color="#66B2FF"/>
<stop offset="1" stop-color="#0071E3"/>
</linearGradient>
<linearGradient id="paint5_linear_158_7230" x1="109.194" y1="48.2195" x2="12.022" y2="117.492" gradientUnits="userSpaceOnUse">
<stop stop-color="#66B2FF"/>
<stop offset="1" stop-color="#0071E3"/>
</linearGradient>
<linearGradient id="paint6_linear_158_7230" x1="110.464" y1="-25.9828" x2="-44.7961" y2="-16.6921" gradientUnits="userSpaceOnUse">
<stop stop-color="#66B2FF"/>
<stop offset="1" stop-color="#0071E3"/>
</linearGradient>
<linearGradient id="paint7_linear_158_7230" x1="73.1347" y1="73.1347" x2="66.7775" y2="-35.6807" gradientUnits="userSpaceOnUse">
<stop stop-color="#66B2FF"/>
<stop offset="1" stop-color="#0071E3"/>
</linearGradient>
<linearGradient id="paint8_linear_158_7230" x1="73.1347" y1="73.1347" x2="66.7775" y2="-35.6807" gradientUnits="userSpaceOnUse">
<stop stop-color="#66B2FF"/>
<stop offset="1" stop-color="#0071E3"/>
</linearGradient>
<linearGradient id="paint9_linear_158_7230" x1="73.1347" y1="73.1347" x2="66.7775" y2="-35.6807" gradientUnits="userSpaceOnUse">
<stop stop-color="#66B2FF"/>
<stop offset="1" stop-color="#0071E3"/>
</linearGradient>
</defs>
</svg>
