<?xml version="1.0" ?><svg height="24px" version="1.1" viewBox="0 0 24 24" width="24px" xmlns="http://www.w3.org/2000/svg" xmlns:xlink="http://www.w3.org/1999/xlink"><title/><desc/><g fill="none" fill-rule="evenodd" id="Page-1" stroke="none" stroke-width="1"><g fill="#000000" id="Group"><path d="M12,10.5857864 L17.2426407,5.34314575 C17.633165,4.95262146 18.26633,4.95262146 18.6568542,5.34314575 C19.0473785,5.73367004 19.0473785,6.36683502 18.6568542,6.75735931 L13.4142136,12 L18.6568542,17.2426407 C19.0473785,17.633165 19.0473785,18.26633 18.6568542,18.6568542 C18.26633,19.0473785 17.633165,19.0473785 17.2426407,18.6568542 L12,13.4142136 L6.75735931,18.6568542 C6.36683502,19.0473785 5.73367004,19.0473785 5.34314575,18.6568542 C4.95262146,18.26633 4.95262146,17.633165 5.34314575,17.2426407 L10.5857864,12 L5.34314575,6.75735931 C4.95262146,6.36683502 4.95262146,5.73367004 5.34314575,5.34314575 C5.73367004,4.95262146 6.36683502,4.95262146 6.75735931,5.34314575 L12,10.5857864 Z" id="Path"/></g></g></svg>