<svg width="720" height="720" viewBox="0 0 720 720" fill="none" xmlns="http://www.w3.org/2000/svg">
<g clip-path="url(#clip0_129_9248)">
<path d="M216.574 563.195H171.28V737.896H216.574V563.195Z" fill="#DDB99F"/>
<path d="M545.984 559.846H504.53V737.898H545.984V559.846Z" fill="#DDB99F"/>
<path d="M420.229 331.755H376.14V359.278H420.229V331.755Z" fill="#DDB99F"/>
<path d="M420.456 257.056H376.969V333.864H420.456V257.056Z" fill="#BFA08C"/>
<path d="M376.93 318.202H293.872V358.715H376.93V318.202Z" fill="#BFA08C"/>
<path d="M376.854 167.446H252.003V334.805H376.854V167.446Z" fill="#DDB99F"/>
<path d="M306.296 154.041H304.828H252.079V191.353H304.828H306.296H357.615V154.041H306.296Z" fill="#313131"/>
<path d="M420.304 167.822H376.78V258.9H420.304V167.822Z" fill="#313131"/>
<path d="M295.453 424.717H170V601.075C170 601.075 546.737 599.644 548.996 601.075C551.255 602.505 548.996 424.717 548.996 424.717H295.453Z" fill="white"/>
<path d="M461.683 422.908H251.891V695.126H461.683V422.908Z" fill="white"/>
<path d="M306.259 335.031H251.665V358.488H306.259V335.031Z" fill="#BFA08C"/>
<path d="M379.453 400.395H335.1V444.107H379.453V400.395Z" fill="#DDB99F"/>
<path d="M284.648 233.748H260.1V303.478H284.648V233.748Z" fill="#BFA08C"/>
<path d="M318.796 200.277H247.221V214.622H318.796V200.277Z" fill="#313131"/>
<path d="M317.969 221.552H284.836V247.757H317.969V221.552Z" fill="#313131"/>
<path d="M306.937 235.219H293.796V247.757H306.937V235.219Z" fill="#424242"/>
<path d="M317.894 221.552H306.938V234.956H317.894V221.552Z" fill="#1E1E1E"/>
<path d="M260.061 221.552H246.808V247.757H260.061V221.552Z" fill="#313131"/>
<path d="M249.029 235.219H246.808V247.757H249.029V235.219Z" fill="#424242"/>
<path d="M259.987 221.552H249.031V234.956H259.987V221.552Z" fill="#1E1E1E"/>
<path d="M419.854 96.7734H233.97V168.311H419.854V96.7734Z" fill="#1E1E1E"/>
<path d="M410.326 47H242.591V70.2307H410.326V47Z" fill="#1E1E1E"/>
<path d="M335.853 358.94L294.7 358.225L294.587 400.959V423.436H420.455V358.865H376.704V400.206H335.965L335.853 358.94Z" fill="#DDB99F"/>
<path d="M379.642 358.864H335.1V400.356H379.642V358.864Z" fill="#DDB99F"/>
<path d="M417.067 58.8984H224.256V100.428H417.067V58.8984Z" fill="#1E1E1E"/>
<path d="M504.53 648.852H209.986V737.219H504.53V648.852Z" fill="white"/>
<path d="M462.134 535.07H252.079V576.223H462.134V535.07Z" fill="white"/>
<path d="M462.134 602.428H252.079V643.58H462.134V602.428Z" fill="white"/>
<path d="M420.154 96.9609H234.007V129.077H420.154V96.9609Z" fill="white"/>
<path d="M285.439 221.552H257.427V234.466H285.439V221.552Z" fill="#1E1E1E"/>
<path d="M379.19 451.636H334.874V682.06H379.19V451.636Z" fill="#313131"/>
<path d="M379.227 431.868H334.874V471.741H379.227V431.868Z" fill="#1E1E1E"/>
<path d="M316.689 290.718H251.816V303.632H316.689V290.718Z" fill="#313131"/>
<path d="M295.565 334.844H252.003V358.376H295.565V334.844Z" fill="#313131"/>
<path d="M251.666 96.7734H233.97V113.227H251.666V96.7734Z" fill="#1E1E1E"/>
<path d="M288.074 96.7734H270.378V113.227H288.074V96.7734Z" fill="#1E1E1E"/>
<path d="M324.483 96.7734H306.787V113.227H324.483V96.7734Z" fill="#1E1E1E"/>
<path d="M360.891 96.7734H343.195V113.227H360.891V96.7734Z" fill="#1E1E1E"/>
<path d="M397.299 96.7734H379.603V113.227H397.299V96.7734Z" fill="#1E1E1E"/>
<path d="M269.626 113.415H251.854V129.869H269.626V113.415Z" fill="#1E1E1E"/>
<path d="M306.185 113.415H288.413V129.869H306.185V113.415Z" fill="#1E1E1E"/>
<path d="M342.744 113.415H324.972V129.869H342.744V113.415Z" fill="#1E1E1E"/>
<path d="M379.303 113.415H361.531V129.869H379.303V113.415Z" fill="#1E1E1E"/>
<path d="M415.862 113.415H398.091V129.869H415.862V113.415Z" fill="#1E1E1E"/>
<path d="M420.229 96.7734H416.012V113.227H420.229V96.7734Z" fill="#1E1E1E"/>
<path d="M282.237 88.041H242.591V130.737H282.237V88.041Z" fill="#7F7F7F"/>
<path d="M420.228 129.267H190.105V168.311H420.228V129.267Z" fill="#1E1E1E"/>
<path d="M394.364 129.267H211.379V151.217H394.364V129.267Z" fill="#313131"/>
<path d="M295.303 506.27H209.835V711.694H295.303V506.27Z" fill="#424242"/>
<path d="M334.836 422.908H294.587V431.907H334.836V422.908Z" fill="#E0E0E0"/>
<path d="M420.305 422.908H378.852V431.907H420.305V422.908Z" fill="#E0E0E0"/>
<path d="M351.441 710.336H222.072V728.484H351.441V710.336Z" fill="#424242"/>
<path d="M493.311 710.336H363.791V728.484H493.311V710.336Z" fill="#424242"/>
<path d="M262.208 711.09H222.072V728.485H262.208V711.09Z" fill="#282828"/>
<path d="M493.424 711.09H453.288V728.485H493.424V711.09Z" fill="#282828"/>
<path d="M322.336 456.529H295.19V490.114H322.336V456.529Z" fill="#424242"/>
<path d="M423.844 458.265H391.577V492.414H423.844V458.265Z" fill="#424242"/>
<path d="M502.497 422.908H420.38V458.752H502.497V422.908Z" fill="#424242"/>
<path d="M295.303 456.569H239.881V711.957H295.303V456.569Z" fill="#424242"/>
<path d="M475.087 458.489H419.212V711.919H475.087V458.489Z" fill="#424242"/>
<path d="M504.04 506.27H419.777V711.694H504.04V506.27Z" fill="#424242"/>
<path d="M426.028 711.654V486.613H382.578V505.552H373.542V531.832H341.765V505.552H331.448V486.613H294.55V711.654H426.028Z" fill="#424242"/>
<path d="M363.639 532.174H351.854V711.845H363.639V532.174Z" fill="#7F7F7F"/>
<path d="M294.475 422.908H207.727V458.15H294.475V422.908Z" fill="#424242"/>
<path d="M239.993 486.728H209.721V711.392H239.993V486.728Z" fill="#282828"/>
<path d="M504.756 486.728H474.823V711.655H504.756V486.728Z" fill="#282828"/>
<path d="M338.414 600.81H264.731V675.735H338.414V600.81Z" fill="#282828"/>
<path d="M449.823 600.81H376.14V675.735H449.823V600.81Z" fill="#282828"/>
<path d="M338.414 612.594H264.731V675.735H338.414V612.594Z" fill="#383838"/>
<path d="M449.823 612.594H376.14V675.735H449.823V612.594Z" fill="#383838"/>
</g>
<defs>
<clipPath id="clip0_129_9248">
<rect width="720" height="720" fill="white"/>
</clipPath>
</defs>
</svg>
