<svg width="316" height="327" viewBox="0 0 316 327" fill="none" xmlns="http://www.w3.org/2000/svg">
<rect width="125.61" height="125.61" transform="matrix(1 0 -0.5 0.866025 157.809 163.508)" fill="url(#paint0_linear_137_11463)"/>
<rect width="125.61" height="125.61" transform="matrix(0.5 0.866025 -0.5 0.866025 95.0036 54.7266)" fill="url(#paint1_linear_137_11463)"/>
<g style="mix-blend-mode:darken">
<rect width="125.61" height="125.61" transform="matrix(1 2.98023e-08 0.5 0.866025 95.0036 54.7266)" fill="url(#paint2_linear_137_11463)"/>
</g>
<g style="mix-blend-mode:screen" opacity="0.4">
<rect width="125.61" height="125.61" transform="matrix(1 2.98023e-08 0.5 0.866025 72.1573 95.1104)" fill="url(#paint3_linear_137_11463)"/>
</g>
<g style="mix-blend-mode:screen" opacity="0.4">
<rect width="125.61" height="125.61" transform="matrix(1 2.98023e-08 0.5 0.866025 49.5859 134.205)" fill="url(#paint4_linear_137_11463)"/>
</g>
<defs>
<linearGradient id="paint0_linear_137_11463" x1="149.206" y1="65.8883" x2="16.4272" y2="160.544" gradientUnits="userSpaceOnUse">
<stop stop-color="#66B2FF"/>
<stop offset="1" stop-color="#0071E3"/>
</linearGradient>
<linearGradient id="paint1_linear_137_11463" x1="150.941" y1="-35.5035" x2="-61.2105" y2="-22.8085" gradientUnits="userSpaceOnUse">
<stop stop-color="#66B2FF"/>
<stop offset="1" stop-color="#0071E3"/>
</linearGradient>
<linearGradient id="paint2_linear_137_11463" x1="99.9331" y1="99.9331" x2="91.2464" y2="-48.755" gradientUnits="userSpaceOnUse">
<stop stop-color="#66B2FF"/>
<stop offset="1" stop-color="#0071E3"/>
</linearGradient>
<linearGradient id="paint3_linear_137_11463" x1="99.9331" y1="99.9331" x2="91.2464" y2="-48.755" gradientUnits="userSpaceOnUse">
<stop stop-color="#66B2FF"/>
<stop offset="1" stop-color="#0071E3"/>
</linearGradient>
<linearGradient id="paint4_linear_137_11463" x1="99.9331" y1="99.9331" x2="91.2464" y2="-48.755" gradientUnits="userSpaceOnUse">
<stop stop-color="#66B2FF"/>
<stop offset="1" stop-color="#0071E3"/>
</linearGradient>
</defs>
</svg>
