<svg width="333" height="333" viewBox="0 0 333 333" fill="none" xmlns="http://www.w3.org/2000/svg">
<rect width="125.61" height="125.61" transform="matrix(0.258819 -0.965926 0.707107 0.707107 166.045 166.417)" fill="url(#paint0_linear_138_11469)"/>
<rect width="125.61" height="125.61" transform="matrix(0.965926 -0.258819 0.707107 0.707107 44.7148 198.928)" fill="url(#paint1_linear_138_11469)"/>
<g style="mix-blend-mode:darken">
<rect width="125.61" height="125.61" transform="matrix(0.258819 -0.965926 0.965926 -0.258819 44.7148 198.928)" fill="url(#paint2_linear_138_11469)"/>
</g>
<g style="mix-blend-mode:screen" opacity="0.4">
<rect width="125.61" height="125.61" transform="matrix(0.258819 -0.965926 0.965926 -0.258819 77.8092 231.447)" fill="url(#paint3_linear_138_11469)"/>
</g>
<g style="mix-blend-mode:screen" opacity="0.4">
<rect width="125.61" height="125.61" transform="matrix(0.258819 -0.965926 0.965926 -0.258819 109.73 263.368)" fill="url(#paint4_linear_138_11469)"/>
</g>
<defs>
<linearGradient id="paint0_linear_138_11469" x1="149.206" y1="65.8883" x2="16.4272" y2="160.544" gradientUnits="userSpaceOnUse">
<stop stop-color="#66B2FF"/>
<stop offset="1" stop-color="#0071E3"/>
</linearGradient>
<linearGradient id="paint1_linear_138_11469" x1="150.941" y1="-35.5035" x2="-61.2105" y2="-22.8085" gradientUnits="userSpaceOnUse">
<stop stop-color="#66B2FF"/>
<stop offset="1" stop-color="#0071E3"/>
</linearGradient>
<linearGradient id="paint2_linear_138_11469" x1="99.9331" y1="99.9331" x2="91.2464" y2="-48.755" gradientUnits="userSpaceOnUse">
<stop stop-color="#66B2FF"/>
<stop offset="1" stop-color="#0071E3"/>
</linearGradient>
<linearGradient id="paint3_linear_138_11469" x1="99.9331" y1="99.9331" x2="91.2464" y2="-48.755" gradientUnits="userSpaceOnUse">
<stop stop-color="#66B2FF"/>
<stop offset="1" stop-color="#0071E3"/>
</linearGradient>
<linearGradient id="paint4_linear_138_11469" x1="99.9331" y1="99.9331" x2="91.2464" y2="-48.755" gradientUnits="userSpaceOnUse">
<stop stop-color="#66B2FF"/>
<stop offset="1" stop-color="#0071E3"/>
</linearGradient>
</defs>
</svg>
