<svg width="440" height="520" viewBox="0 0 440 520" fill="none" xmlns="http://www.w3.org/2000/svg">
<rect width="440" height="520" fill="white"/>
<path d="M316.051 499.953L305 493.432L316.044 509L327.1 493.432L316.044 499.953H316.051ZM316.215 473L305.169 491.334L316.215 497.866L327.265 491.34L316.215 473Z" fill="#3C3C3D"/>
<path d="M355.922 488.781V492.5C355.922 494.281 355.745 495.802 355.391 497.062C355.047 498.312 354.547 499.328 353.891 500.109C353.234 500.891 352.448 501.464 351.531 501.828C350.625 502.193 349.609 502.375 348.484 502.375C347.589 502.375 346.755 502.26 345.984 502.031C345.224 501.802 344.536 501.443 343.922 500.953C343.307 500.464 342.781 499.833 342.344 499.062C341.917 498.281 341.583 497.349 341.344 496.266C341.115 495.182 341 493.927 341 492.5V488.781C341 486.99 341.177 485.479 341.531 484.25C341.885 483.01 342.391 482.005 343.047 481.234C343.703 480.453 344.484 479.885 345.391 479.531C346.307 479.177 347.328 479 348.453 479C349.359 479 350.193 479.115 350.953 479.344C351.724 479.562 352.411 479.911 353.016 480.391C353.63 480.87 354.151 481.495 354.578 482.266C355.016 483.026 355.349 483.948 355.578 485.031C355.807 486.104 355.922 487.354 355.922 488.781ZM352.156 493.031V488.219C352.156 487.312 352.104 486.516 352 485.828C351.896 485.13 351.74 484.542 351.531 484.062C351.333 483.573 351.083 483.177 350.781 482.875C350.479 482.562 350.135 482.339 349.75 482.203C349.365 482.057 348.932 481.984 348.453 481.984C347.87 481.984 347.349 482.099 346.891 482.328C346.432 482.547 346.047 482.901 345.734 483.391C345.422 483.88 345.182 484.526 345.016 485.328C344.859 486.12 344.781 487.083 344.781 488.219V493.031C344.781 493.948 344.833 494.755 344.938 495.453C345.042 496.151 345.198 496.75 345.406 497.25C345.615 497.74 345.865 498.146 346.156 498.469C346.458 498.781 346.802 499.01 347.188 499.156C347.583 499.302 348.016 499.375 348.484 499.375C349.078 499.375 349.604 499.26 350.062 499.031C350.521 498.802 350.906 498.438 351.219 497.938C351.531 497.427 351.766 496.766 351.922 495.953C352.078 495.141 352.156 494.167 352.156 493.031Z" fill="black"/>
<path d="M359.656 500.188C359.656 499.604 359.854 499.115 360.25 498.719C360.646 498.312 361.182 498.109 361.859 498.109C362.547 498.109 363.083 498.312 363.469 498.719C363.865 499.115 364.062 499.604 364.062 500.188C364.062 500.771 363.865 501.26 363.469 501.656C363.083 502.052 362.547 502.25 361.859 502.25C361.182 502.25 360.646 502.052 360.25 501.656C359.854 501.26 359.656 500.771 359.656 500.188Z" fill="black"/>
<path d="M383.016 488.781V492.5C383.016 494.281 382.839 495.802 382.484 497.062C382.141 498.312 381.641 499.328 380.984 500.109C380.328 500.891 379.542 501.464 378.625 501.828C377.719 502.193 376.703 502.375 375.578 502.375C374.682 502.375 373.849 502.26 373.078 502.031C372.318 501.802 371.63 501.443 371.016 500.953C370.401 500.464 369.875 499.833 369.438 499.062C369.01 498.281 368.677 497.349 368.438 496.266C368.208 495.182 368.094 493.927 368.094 492.5V488.781C368.094 486.99 368.271 485.479 368.625 484.25C368.979 483.01 369.484 482.005 370.141 481.234C370.797 480.453 371.578 479.885 372.484 479.531C373.401 479.177 374.422 479 375.547 479C376.453 479 377.286 479.115 378.047 479.344C378.818 479.562 379.505 479.911 380.109 480.391C380.724 480.87 381.245 481.495 381.672 482.266C382.109 483.026 382.443 483.948 382.672 485.031C382.901 486.104 383.016 487.354 383.016 488.781ZM379.25 493.031V488.219C379.25 487.312 379.198 486.516 379.094 485.828C378.99 485.13 378.833 484.542 378.625 484.062C378.427 483.573 378.177 483.177 377.875 482.875C377.573 482.562 377.229 482.339 376.844 482.203C376.458 482.057 376.026 481.984 375.547 481.984C374.964 481.984 374.443 482.099 373.984 482.328C373.526 482.547 373.141 482.901 372.828 483.391C372.516 483.88 372.276 484.526 372.109 485.328C371.953 486.12 371.875 487.083 371.875 488.219V493.031C371.875 493.948 371.927 494.755 372.031 495.453C372.135 496.151 372.292 496.75 372.5 497.25C372.708 497.74 372.958 498.146 373.25 498.469C373.552 498.781 373.896 499.01 374.281 499.156C374.677 499.302 375.109 499.375 375.578 499.375C376.172 499.375 376.698 499.26 377.156 499.031C377.615 498.802 378 498.438 378.312 497.938C378.625 497.427 378.859 496.766 379.016 495.953C379.172 495.141 379.25 494.167 379.25 493.031Z" fill="black"/>
<path d="M401.484 479.312V481.375L392.391 502.062H388.422L397.5 482.312H385.719V479.312H401.484Z" fill="black"/>
<path d="M408.516 491.484L405.516 490.75L406.75 479.312H419.016V482.5H409.875L409.25 488.078C409.604 487.87 410.094 487.667 410.719 487.469C411.344 487.26 412.057 487.156 412.859 487.156C413.932 487.156 414.891 487.333 415.734 487.688C416.589 488.031 417.312 488.536 417.906 489.203C418.5 489.859 418.953 490.661 419.266 491.609C419.578 492.547 419.734 493.604 419.734 494.781C419.734 495.833 419.578 496.818 419.266 497.734C418.964 498.651 418.505 499.458 417.891 500.156C417.276 500.854 416.5 501.401 415.562 501.797C414.635 502.182 413.536 502.375 412.266 502.375C411.318 502.375 410.406 502.24 409.531 501.969C408.667 501.688 407.891 501.276 407.203 500.734C406.516 500.182 405.964 499.505 405.547 498.703C405.13 497.891 404.891 496.958 404.828 495.906H408.516C408.609 496.646 408.812 497.276 409.125 497.797C409.448 498.307 409.875 498.698 410.406 498.969C410.938 499.24 411.552 499.375 412.25 499.375C412.885 499.375 413.432 499.266 413.891 499.047C414.349 498.818 414.729 498.495 415.031 498.078C415.344 497.651 415.573 497.151 415.719 496.578C415.875 496.005 415.953 495.37 415.953 494.672C415.953 494.005 415.865 493.396 415.688 492.844C415.521 492.292 415.266 491.812 414.922 491.406C414.589 491 414.167 490.688 413.656 490.469C413.146 490.24 412.557 490.125 411.891 490.125C410.995 490.125 410.307 490.255 409.828 490.516C409.359 490.776 408.922 491.099 408.516 491.484Z" fill="black"/>
<g clip-path="url(#clip0_133_10251)">
<rect width="440" height="460" fill="#8E6FB5"/>
<path d="M93.3882 127.317H79.3896V198.968H93.3882V127.317Z" fill="#3D2C18"/>
<path d="M113.956 112.358H88.8784V208.192H113.956V112.358Z" fill="#3D2C18"/>
<path d="M266.645 276.324H181.459V288.498H266.645V276.324Z" fill="#3D2C18"/>
<path d="M349.209 127.317H340.982V112.357H325.193V77.9243H304.527V59.514H293.149V47.7711H274.639V35H153.462V47.7711H138.004V59.514H118.864V77.9243H99.9893V240.234H120.058V252.01H136.279V263.753H153.694V276.524H252.779V288.598H269.597V276.524H277.392V263.753H292.154V252.01H304.527V240.234H325.193V208.19H340.982V198.968H349.209V127.317Z" fill="#49361C"/>
<path d="M138.269 68.2725H118.864V78.1245H138.269V68.2725Z" fill="#3D2C18"/>
<path d="M152.104 68.3369H133.594V78.3548H152.104V68.3369Z" fill="#3D2C18"/>
<path d="M152.102 59.0498H137.507V68.3379H152.102V59.0498Z" fill="#3D2C18"/>
<path d="M130.342 134.482H88.4458V214.227H130.342V134.482Z" fill="#3D2C18"/>
<path d="M143.413 219.071H120.06V251.978H143.413V219.071Z" fill="#3D2C18"/>
<path d="M276.696 310.426H237.719V334.873H276.696V310.426Z" fill="#DDB99F"/>
<path d="M277.194 244.349H238.449V312.284H277.194V244.349Z" fill="#BFA08C"/>
<path d="M242.927 298.816H165.703V334.675H242.927V298.816Z" fill="#BFA08C"/>
<path d="M242.198 186.696H127.921V313.147H242.198V186.696Z" fill="#DDB99F"/>
<path d="M184.511 152.825H182.786H120.987V188.783H182.786H184.511H244.619V152.825H184.511Z" fill="#49361C"/>
<path d="M280.179 185.634H241.799V245.973H280.179V185.634Z" fill="#49361C"/>
<path d="M201.363 334.939L164.973 334.275L164.874 371.793V391.53H276.198V334.839H237.453V371.129H201.429L201.363 334.939Z" fill="#7852A0"/>
<path d="M162.253 391.532H50V632.791C50 632.791 387.125 630.8 389.115 632.791C391.106 634.781 389.115 391.532 389.115 391.532H162.253Z" fill="#7852A0"/>
<path d="M231.217 391.63H210.352V426.593H231.217V391.63Z" fill="#DDB99F"/>
<path d="M130.972 429.645H90.5024V670.107H130.972V429.645Z" fill="#64448E"/>
<path d="M350.405 447.49H313.684V669.609H350.405V447.49Z" fill="#64448E"/>
<path d="M183.649 284.916H169.02V311.387H183.649V284.916Z" fill="#49361C"/>
<path d="M240.671 371.13H201.429V407.553H240.671V371.13Z" fill="#DDB99F"/>
<path d="M240.473 334.343H201.064V407.52H240.473V334.343Z" fill="#DDB99F"/>
<path d="M174.228 195.086H127.125V205.933H174.228V195.086Z" fill="#49361C"/>
<path d="M153.33 217.51H131.968V276.92H153.33V217.51Z" fill="#BFA08C"/>
<path d="M160.96 264.912H127.622V282.062H160.96V264.912Z" fill="#49361C"/>
<path d="M169.152 276.823H149.614V289.793H169.152V276.823Z" fill="#49361C"/>
<path d="M172.935 311.09H127.191V334.144H172.935V311.09Z" fill="#49361C"/>
<path d="M262.465 210.146H240.14V266.041H262.465V210.146Z" fill="#DDB99F"/>
<path d="M191.511 212.437H156.548V240.102H191.511V212.437Z" fill="#313131"/>
<path d="M179.834 226.865H165.968V240.101H179.834V226.865Z" fill="#424242"/>
<path d="M191.411 212.437H179.834V226.568H191.411V212.437Z" fill="#1E1E1E"/>
<path d="M130.409 212.437H116.41V240.102H130.409V212.437Z" fill="#313131"/>
<path d="M118.765 226.865H116.41V240.101H118.765V226.865Z" fill="#424242"/>
<path d="M130.309 212.437H118.732V226.568H130.309V212.437Z" fill="#1E1E1E"/>
<path d="M157.145 212.437H127.589V226.07H157.145V212.437Z" fill="#1E1E1E"/>
<path d="M225.744 391.63H215.328V499.571H225.744V391.63Z" fill="#DDB99F"/>
</g>
<defs>
<clipPath id="clip0_133_10251">
<rect width="440" height="460" fill="white"/>
</clipPath>
</defs>
</svg>
