<svg width="720" height="720" viewBox="0 0 720 720" fill="none" xmlns="http://www.w3.org/2000/svg">
<g clip-path="url(#clip0_128_8401)">
<path d="M547.899 693.043H506.709V734.233H547.899V693.043Z" fill="#DDB99F"/>
<path d="M216.715 693.043H175.525V734.233H216.715V693.043Z" fill="#DDB99F"/>
<path d="M218.493 130.179H202.847V210.259H218.493V130.179Z" fill="#3D2C18"/>
<path d="M241.48 113.459H213.452V220.567H241.48V113.459Z" fill="#3D2C18"/>
<path d="M412.132 296.716H316.925V310.322H412.132V296.716Z" fill="#3D2C18"/>
<path d="M504.41 130.178H495.216V113.457H477.569V74.9742H454.471V54.398H441.755V41.2736H421.067V27H285.635V41.2736H268.358V54.398H246.966V74.9742H225.871V256.379H248.301V269.541H266.43V282.665H285.894V296.938H396.635V310.434H415.432V296.938H424.144V282.665H440.642V269.541H454.471V256.379H477.569V220.565H495.216V210.259H504.41V130.178Z" fill="#49361C"/>
<path d="M268.654 64.1865H246.965V75.1976H268.654V64.1865Z" fill="#3D2C18"/>
<path d="M284.116 64.2588H263.428V75.4552H284.116V64.2588Z" fill="#3D2C18"/>
<path d="M284.114 53.8789H267.802V64.2597H284.114V53.8789Z" fill="#3D2C18"/>
<path d="M259.794 138.187H212.969V227.313H259.794V138.187Z" fill="#3D2C18"/>
<path d="M274.402 232.727H248.302V269.504H274.402V232.727Z" fill="#3D2C18"/>
<path d="M423.366 334.829H379.803V362.153H423.366V334.829Z" fill="#DDB99F"/>
<path d="M423.922 260.978H380.62V336.906H423.922V260.978Z" fill="#BFA08C"/>
<path d="M385.624 321.854H299.315V361.931H385.624V321.854Z" fill="#BFA08C"/>
<path d="M384.81 196.543H257.088V337.87H384.81V196.543Z" fill="#DDB99F"/>
<path d="M320.336 158.687H318.408H249.339V198.875H318.408H320.336H387.515V158.687H320.336Z" fill="#49361C"/>
<path d="M427.258 195.355H384.363V262.794H427.258V195.355Z" fill="#49361C"/>
<path d="M339.17 362.226L298.499 361.484L298.388 403.415V425.475H422.81V362.115H379.507V402.674H339.244L339.17 362.226Z" fill="#7852A0"/>
<path d="M295.46 425.478H170V695.119C170 695.119 546.787 692.895 549.011 695.119C551.236 697.344 549.011 425.478 549.011 425.478H295.46Z" fill="#7852A0"/>
<path d="M372.537 425.586H349.217V464.662H372.537V425.586Z" fill="#DDB99F"/>
<path d="M506.71 685.588H215.564V736.306H506.71V685.588Z" fill="#7852A0"/>
<path d="M260.498 468.073H215.268V736.825H260.498V468.073Z" fill="#64448E"/>
<path d="M505.746 488.019H464.705V736.269H505.746V488.019Z" fill="#64448E"/>
<path d="M319.372 306.317H303.022V335.903H319.372V306.317Z" fill="#49361C"/>
<path d="M383.103 402.675H339.244V443.382H383.103V402.675Z" fill="#DDB99F"/>
<path d="M382.881 361.56H338.837V443.346H382.881V361.56Z" fill="#DDB99F"/>
<path d="M308.843 205.92H256.198V218.043H308.843V205.92Z" fill="#49361C"/>
<path d="M285.487 230.981H261.611V297.382H285.487V230.981Z" fill="#BFA08C"/>
<path d="M294.014 283.961H256.754V303.128H294.014V283.961Z" fill="#49361C"/>
<path d="M303.17 297.273H281.333V311.77H303.17V297.273Z" fill="#49361C"/>
<path d="M307.398 335.571H256.272V361.338H307.398V335.571Z" fill="#49361C"/>
<path d="M407.461 222.752H382.51V285.222H407.461V222.752Z" fill="#DDB99F"/>
<path d="M363.676 540.926H357.003V734.306H363.676V540.926Z" fill="#64448E"/>
<path d="M328.16 225.312H289.083V256.232H328.16V225.312Z" fill="#313131"/>
<path d="M315.109 241.438H299.612V256.23H315.109V241.438Z" fill="#424242"/>
<path d="M328.048 225.312H315.109V241.105H328.048V225.312Z" fill="#1E1E1E"/>
<path d="M259.869 225.312H244.223V256.232H259.869V225.312Z" fill="#313131"/>
<path d="M246.855 241.438H244.223V256.23H246.855V241.438Z" fill="#424242"/>
<path d="M259.758 225.312H246.819V241.105H259.758V225.312Z" fill="#1E1E1E"/>
<path d="M289.751 225.312H256.717V240.549H289.751V225.312Z" fill="#1E1E1E"/>
<path d="M366.42 425.586H354.778V546.226H366.42V425.586Z" fill="#DDB99F"/>
</g>
<defs>
<clipPath id="clip0_128_8401">
<rect width="720" height="720" fill="white"/>
</clipPath>
</defs>
</svg>
