<svg width="1440" height="278" viewBox="0 0 1440 278" fill="none" xmlns="http://www.w3.org/2000/svg">
<g clip-path="url(#clip0_2979_223432)">
<path d="M747.784 246.103C729.351 248.688 710.649 248.688 692.216 246.103L0 149V278H1440V149L747.784 246.103Z" fill="#6AD4C8"/>
<path fill-rule="evenodd" clip-rule="evenodd" d="M1440 0H0V149L692.216 246.103C710.649 248.688 729.351 248.688 747.784 246.103L1440 149V0ZM199.26 61H174.97V110H188.27V94.18H193.17L204.58 110H220.12L206.75 92.85C210.11 91.59 212.677 89.6767 214.45 87.11C216.223 84.5433 217.11 81.44 217.11 77.8C217.11 74.4867 216.363 71.57 214.87 69.05C213.423 66.53 211.347 64.57 208.64 63.17C205.933 61.7233 202.807 61 199.26 61ZM202.27 82.42C201.103 83.4467 199.423 83.96 197.23 83.96H188.13V72.06H197.23C199.423 72.06 201.103 72.5733 202.27 73.6C203.437 74.6267 204.02 76.0967 204.02 78.01C204.02 79.9233 203.437 81.3933 202.27 82.42ZM263.703 61H225.693V110H264.683V99.08H238.503V90.33H262.303V79.97H238.503V71.78H263.703V61ZM293.17 61H272.45V110H293.17C298.35 110 302.854 108.997 306.68 106.99C310.554 104.983 313.517 102.137 315.57 98.45C317.67 94.7633 318.72 90.4467 318.72 85.5C318.72 80.5533 317.67 76.2367 315.57 72.55C313.517 68.8633 310.554 66.0167 306.68 64.01C302.854 62.0033 298.35 61 293.17 61ZM302.06 95.16C299.867 97.4933 296.904 98.66 293.17 98.66H285.75V72.34H293.17C296.904 72.34 299.867 73.5067 302.06 75.84C304.3 78.1733 305.42 81.3933 305.42 85.5C305.42 89.6067 304.3 92.8267 302.06 95.16ZM363.918 61H325.908V110H364.897V99.08H338.717V90.33H362.518V79.97H338.717V71.78H363.918V61ZM409.625 61H372.665V110H385.965V93.2H408.225V82.14H385.965V72.34H409.625V61ZM430.877 61H417.577V110H430.877V61ZM452.65 61H440.82V110H454.05V94.25L453.77 82.42L473.65 110H485.48V61H472.25V76.75L472.53 88.72L452.65 61ZM508.739 61H495.439V110H508.739V61ZM530.511 61H518.681V110H531.911V94.25L531.631 82.42L551.511 110H563.341V61H550.111V76.75L550.391 88.72L530.511 61ZM582.82 108.04C586.787 110.14 591.407 111.19 596.68 111.19C601.207 111.19 605.36 110.467 609.14 109.02C612.92 107.527 615.977 105.45 618.31 102.79V80.39H594.37V90.61H607.39V96.84C606.177 97.8667 604.66 98.66 602.84 99.22C601.067 99.78 599.13 100.06 597.03 100.06C594.37 100.06 592.013 99.4533 589.96 98.24C587.953 97.0267 586.39 95.3233 585.27 93.13C584.15 90.9367 583.59 88.3933 583.59 85.5C583.59 80.88 584.803 77.31 587.23 74.79C589.657 72.2233 593.087 70.94 597.52 70.94C599.62 70.94 601.65 71.3367 603.61 72.13C605.57 72.9233 607.273 74.0433 608.72 75.49L616.63 67.86C614.017 65.0133 611.17 62.96 608.09 61.7C605.057 60.3933 601.58 59.74 597.66 59.74C592.293 59.74 587.557 60.8367 583.45 63.03C579.39 65.1767 576.217 68.21 573.93 72.13C571.69 76.0033 570.57 80.46 570.57 85.5C570.57 90.68 571.62 95.2067 573.72 99.08C575.867 102.953 578.9 105.94 582.82 108.04ZM679.03 61H642.07V110H655.37V93.2H677.63V82.14H655.37V72.34H679.03V61ZM714.139 61H700.139L678.159 110H692.369L695.659 101.88H718.409L721.629 110H735.979L714.139 61ZM707.069 73.46L713.859 90.68H700.139L707.069 73.46ZM751.722 61H739.892V110H753.122V94.25L752.842 82.42L772.722 110H784.552V61H771.322V76.75L771.602 88.72L751.722 61ZM848.38 61H810.37V110H849.36V99.08H823.18V90.33H846.98V79.97H823.18V71.78H848.38V61ZM877.148 95.02L881.558 102.58L886.318 110H902.488L885.968 85.01L901.508 61H885.688L881.138 68.42L876.798 76.12L872.668 68.42L868.398 61H852.718L867.978 85.71L851.738 110H868.118L872.948 102.51L877.148 95.02ZM930.761 61H907.031V110H920.331V96.7H930.761C936.734 96.7 941.447 95.1133 944.901 91.94C948.354 88.72 950.081 84.3567 950.081 78.85C950.081 73.3433 948.354 69.0033 944.901 65.83C941.447 62.61 936.734 61 930.761 61ZM935.031 83.54C933.864 84.66 932.254 85.22 930.201 85.22H920.191V72.62H930.201C932.254 72.62 933.864 73.2033 935.031 74.37C936.244 75.49 936.851 77.0067 936.851 78.92C936.851 80.8333 936.244 82.3733 935.031 83.54ZM994.191 61H956.181V110H995.171V99.08H968.991V90.33H992.791V79.97H968.991V71.78H994.191V61ZM1027.23 61H1002.94V110H1016.24V94.18H1021.14L1032.55 110H1048.09L1034.72 92.85C1038.08 91.59 1040.65 89.6767 1042.42 87.11C1044.19 84.5433 1045.08 81.44 1045.08 77.8C1045.08 74.4867 1044.33 71.57 1042.84 69.05C1041.39 66.53 1039.32 64.57 1036.61 63.17C1033.9 61.7233 1030.78 61 1027.23 61ZM1030.24 82.42C1029.07 83.4467 1027.39 83.96 1025.2 83.96H1016.1V72.06H1025.2C1027.39 72.06 1029.07 72.5733 1030.24 73.6C1031.41 74.6267 1031.99 76.0967 1031.99 78.01C1031.99 79.9233 1031.41 81.3933 1030.24 82.42ZM1066.96 61H1053.66V110H1066.96V61ZM1114.91 61H1076.9V110H1115.89V99.08H1089.71V90.33H1113.51V79.97H1089.71V71.78H1114.91V61ZM1135.49 61H1123.66V110H1136.89V94.25L1136.61 82.42L1156.49 110H1168.32V61H1155.09V76.75L1155.37 88.72L1135.49 61ZM1188.08 107.97C1192.14 110.117 1196.88 111.19 1202.29 111.19C1209.85 111.19 1216.31 108.6 1221.68 103.42L1214.19 94.74C1212.6 96.28 1210.78 97.47 1208.73 98.31C1206.72 99.1033 1204.58 99.5 1202.29 99.5C1198.28 99.5 1195.03 98.2167 1192.56 95.65C1190.09 93.0833 1188.85 89.7 1188.85 85.5C1188.85 81.3 1190.09 77.9167 1192.56 75.35C1195.03 72.7833 1198.28 71.5 1202.29 71.5C1204.34 71.5 1206.23 71.85 1207.96 72.55C1209.69 73.2033 1211.32 74.2533 1212.86 75.7L1220.84 67.51C1215.61 62.3767 1209.34 59.81 1202.01 59.81C1196.88 59.81 1192.3 60.86 1188.29 62.96C1184.28 65.06 1181.15 68.07 1178.91 71.99C1176.67 75.8633 1175.55 80.3667 1175.55 85.5C1175.55 90.5867 1176.62 95.0667 1178.77 98.94C1180.96 102.813 1184.07 105.823 1188.08 107.97ZM1265.65 61H1227.64V110H1266.63V99.08H1240.45V90.33H1264.25V79.97H1240.45V71.78H1265.65V61Z" fill="black"/>
</g>
<defs>
<clipPath id="clip0_2979_223432">
<rect width="1440" height="278" fill="white"/>
</clipPath>
</defs>
</svg>
