<svg width="240" height="240" viewBox="0 0 240 240" fill="none" xmlns="http://www.w3.org/2000/svg">
<g clip-path="url(#clip0_138_11520)">
<rect width="240" height="240" rx="120" fill="#0071E3"/>
<path d="M151.707 136.528H128.502V150.999H151.707V136.528Z" fill="#DDB99F"/>
<path d="M151.819 97.2139H128.93V137.627H151.819V97.2139Z" fill="#BFA08C"/>
<path d="M128.911 129.414H85.2012V150.738H128.911V129.414Z" fill="#BFA08C"/>
<path d="M128.781 50.0586H63.0767V138.149H128.781V50.0586Z" fill="#DDB99F"/>
<path d="M92.4646 43H91.3844H53.001V62.648H91.3844H92.4646H129.805V43H92.4646Z" fill="#313131"/>
<path d="M151.744 61.4004H128.837V108.239H151.744V61.4004Z" fill="#313131"/>
<path d="M86.021 184.801H20V328.371C20 328.371 218.305 327.198 219.479 328.371C220.652 329.544 219.479 184.801 219.479 184.801H86.021V184.801Z" fill="white"/>
<path d="M173.515 184.688H63.0952V327.774H173.515V184.688Z" fill="#E2E2E2"/>
<path d="M91.7198 138.26H62.9834V150.607H91.7198V138.26Z" fill="#BFA08C"/>
<path d="M130.253 172.658H106.898V194.355H130.253V172.658Z" fill="#DDB99F"/>
<path d="M107.289 150.85L85.6486 150.459L85.5928 172.956V184.801H151.837V150.794H128.781V172.565H107.345L107.289 150.85Z" fill="#DDB99F"/>
<path d="M130.346 150.812H106.898V172.658H130.346V150.812Z" fill="#DDB99F"/>
<path d="M62.9089 218.1H40.5977V349.9H62.9089V218.1Z" fill="#E2E2E2"/>
<path d="M195.547 218.1H173.683V349.9H195.547V218.1Z" fill="#E2E2E2"/>
<path d="M130.104 199.645H106.768V289.839H130.104V199.645Z" fill="#424242"/>
<path d="M130.104 194.336H106.768V215.325H130.104V194.336Z" fill="#1E1E1E"/>
<path d="M96.7111 201.973H82.4268V219.665H96.7111V201.973Z" fill="white"/>
<path d="M159.883 201.973H142.898V219.945H159.883V201.973Z" fill="white"/>
<path d="M195.305 185.006H152.079V210.446H195.305V185.006Z" fill="white"/>
<path d="M86.2443 202.214H57.0796V336.621H86.2443V202.214Z" fill="white"/>
<path d="M180.872 203.238H151.465V336.64H180.872V203.238Z" fill="white"/>
<path d="M85.7976 184.857H40.1509V210.148H85.7976V184.857Z" fill="white"/>
<path d="M57.0241 235.904H40.7656V500.827H57.0241V235.904Z" fill="#E2E2E2"/>
<path d="M196.497 217.895H180.741V501.198H196.497V217.895Z" fill="#E2E2E2"/>
<path d="M79.0184 82.1465H69.1665V117.01H79.0184V82.1465Z" fill="#BFA08C"/>
<path d="M97.866 78.5342H79.7451V92.3157H97.866V78.5342Z" fill="#1E1E1E"/>
<path d="M91.8313 85.7227H84.6426V92.3341H91.8313V85.7227Z" fill="#1E1E1E"/>
<path d="M97.8284 78.5156H91.8315V85.574H97.8284V78.5156Z" fill="#1E1E1E"/>
<path d="M95.9287 82.3701H82.501V87.473H95.9287V82.3701Z" fill="white"/>
<path d="M94.8115 85.1455H83.4883V89.4103H94.8115V85.1455Z" fill="white"/>
<path d="M94.8115 81.1416H83.4883V85.4064H94.8115V81.1416Z" fill="white"/>
<path d="M93.3772 87.6963H84.8662V91.1603H93.3772V87.6963Z" fill="white"/>
<path d="M93.3772 79.3721H84.8662V82.8361H93.3772V79.3721Z" fill="white"/>
<path d="M96.5618 76.5596H81.3276V79.1669H96.5618V76.5596Z" fill="#1E1E1E"/>
<path d="M96.5618 91.5703H81.3276V94.1776H96.5618V91.5703Z" fill="#1E1E1E"/>
<path d="M95.0349 92.9863H83.1157V95.5936H95.0349V92.9863Z" fill="#1E1E1E"/>
<path d="M95.0349 75.1631H83.1157V77.7704H95.0349V75.1631Z" fill="#1E1E1E"/>
<path d="M101.609 80.1172H97.2515V90.4534H101.609V80.1172Z" fill="#1E1E1E"/>
<path d="M67.3042 78.5342H63.0767V92.3157H67.3042V78.5342Z" fill="#313131"/>
<path d="M67.267 78.5156H63.0767V85.574H67.267V78.5156Z" fill="#1E1E1E"/>
<path d="M66.0751 76.709H63.0767V78.6458H66.0751V76.709Z" fill="#1E1E1E"/>
<path d="M66.0751 91.2168H63.0767V93.1537H66.0751V91.2168Z" fill="#1E1E1E"/>
<path d="M66.4848 81.8496H63.0767V86.9525H66.4848V81.8496Z" fill="white"/>
<path d="M65.3674 84.7734H63.0767V89.0383H65.3674V84.7734Z" fill="white"/>
<path d="M65.3674 79.5771H63.0767V83.842H65.3674V79.5771Z" fill="white"/>
<path d="M63.952 87.418H63.0767V90.882H63.952V87.418Z" fill="white"/>
<path d="M63.952 77.584H63.0767V81.048H63.952V77.584Z" fill="white"/>
<path d="M80.7509 81.7744H66.0195V85.3129H80.7509V81.7744Z" fill="#1E1E1E"/>
<path d="M164.967 500.901V217.746H135.784V249.797H129.694V266.335H108.351V249.797H101.404V217.746H76.6348V500.901H164.967Z" fill="white"/>
<path d="M174.651 224.749H142.749V233.167H174.651V224.749Z" fill="#E2E2E2"/>
</g>
<defs>
<clipPath id="clip0_138_11520">
<rect width="240" height="240" rx="120" fill="white"/>
</clipPath>
</defs>
</svg>
