<svg width="240" height="240" viewBox="0 0 240 240" fill="none" xmlns="http://www.w3.org/2000/svg">
<g clip-path="url(#clip0_138_11771)">
<rect width="240" height="240" rx="120" fill="#303040"/>
<g clip-path="url(#clip1_138_11771)">
<path d="M199.127 103.106H184.68V112.353H199.127V103.106Z" fill="#E2E2E2"/>
<path d="M210.393 161.86H47.1733V374.46H210.393V161.86Z" fill="#433D4F"/>
<path d="M204.76 167.606H190.38V282.92H204.76V167.606Z" fill="#2A2633"/>
<path d="M168.647 168.007H143.94V324.48H168.647V168.007Z" fill="#2A2633"/>
<path d="M150.193 175.6H92.6001V196.793H150.193V175.6Z" fill="#A5A5A5"/>
<path d="M37.6865 88.6602H29.4531V132.647H37.6865V88.6602Z" fill="#6A6572"/>
<path d="M181.5 79.4932H166.767V138.313H181.5V79.4932Z" fill="#6A6572"/>
<path d="M48.0131 79.4932H33.2798V138.313H48.0131V79.4932Z" fill="#5A5663"/>
<path d="M153.047 140.273H130.273V154.493H153.047V140.273Z" fill="#D6AB8E"/>
<path d="M153.34 101.82H130.787V141.347H153.34V101.82Z" fill="#BFA08C"/>
<path d="M130.213 133.3H88.0132V153.673H130.213V133.3Z" fill="#BFA08C"/>
<path d="M130.74 67.7529H66.4731V141.853H130.74V67.7529Z" fill="#D6AB8E"/>
<path d="M97.6868 54.333H96.8335H66.2935V75.0063H96.8335H97.6868H127.4V54.333H97.6868Z" fill="#313131"/>
<path d="M153.106 47.8867H130.146V102.767H153.106V47.8867Z" fill="#313131"/>
<path d="M109.193 152.98L88.0133 152.587L87.96 175.447V187.474H152.753V152.934H130.213V175.04H109.247L109.193 152.98Z" fill="white"/>
<path d="M87.96 191.594H23.3867V349.12C23.3867 349.12 217.327 347.827 218.48 349.12C219.633 350.414 218.48 191.594 218.48 191.594H87.96V191.594Z" fill="white"/>
<path d="M126.487 200.267H111.22V330.667H126.487V200.267Z" fill="#E2E2E2"/>
<path d="M96.4066 123.767H87.8999V141.967H96.4066V123.767Z" fill="#313131"/>
<path d="M134.72 175.6H104.407V196.04H134.72V175.6Z" fill="#E2E2E2"/>
<path d="M130.227 152.8H107.293V177.933H130.227V152.8Z" fill="white"/>
<path d="M130.313 54.5537H113.093V126.414H130.313V54.5537Z" fill="#DDB99F"/>
<path d="M87.9599 141.753H66.9399V153.453H87.9599V141.753Z" fill="#313131"/>
<path d="M83.4867 89.3799H71.0601V123.473H83.4867V89.3799Z" fill="#BFA08C"/>
<path d="M93.6267 71.3271H64.2134V79.9738H93.6267V71.3271Z" fill="#313131"/>
<path d="M92.7267 80.8604H84.3467V89.2404H92.7267V80.8604Z" fill="#313131"/>
<path d="M70.4733 80.8604H66.5933V89.2404H70.4733V80.8604Z" fill="#313131"/>
<path d="M87.9001 112.054H62.1401V123.767H87.9001V112.054Z" fill="#313131"/>
<path d="M172.22 58.3535H39.8198V157.98H172.22V58.3535Z" fill="#E2E2E2"/>
<path d="M66.2198 220.04H44.8398V337.933H66.2198V220.04Z" fill="#E2E2E2"/>
<path d="M195.947 220.04H174.567V338.547H195.947V220.04Z" fill="#E2E2E2"/>
<path d="M218.773 222.146H199.413V229.946H218.773V222.146Z" fill="#FFBC00"/>
<path d="M160.067 47.0537H50.9136V68.147H160.067V47.0537Z" fill="#E2E2E2"/>
<path d="M153.38 39.8398H62.1733V54.8265H153.38V39.8398Z" fill="#E2E2E2"/>
<path d="M142.5 32H71.2598V48.5H142.5V32Z" fill="#E2E2E2"/>
<path d="M51.6264 165.193H160.066V144.1H51.6264V165.193Z" fill="#E2E2E2"/>
<path d="M61.1535 172.413H152.793V157.426H61.1535V172.413Z" fill="#E2E2E2"/>
<path d="M71.3999 180.247H144.113V163.747H71.3999V180.247Z" fill="#E2E2E2"/>
<path d="M137.8 180.127H87.7134V187.6H137.8V180.127Z" fill="#A5A5A5"/>
<path d="M87.7468 171.594H71.2935V180.254H87.7468V171.594Z" fill="#A5A5A5"/>
<path d="M69.7335 159.22H61.1602V172.406H69.7335V159.22Z" fill="#A5A5A5"/>
<path d="M61.3135 153.113H51.0469V165.353H61.3135V153.113Z" fill="#A5A5A5"/>
<path d="M51.2065 58.3662H39.7798V158H51.2065V58.3662Z" fill="#A5A5A5"/>
<path d="M81.8202 164.507H69.3936V172.453H81.8202V164.507Z" fill="#A5A5A5"/>
<path d="M60.8598 58.3203H50.4731V68.2536H60.8598V58.3203Z" fill="#A5A5A5"/>
<path d="M62.3136 52.4131H50.9136V58.4664H62.3136V52.4131Z" fill="#A5A5A5"/>
<path d="M70.4599 52.4668H59.5732V58.6068H70.4599V52.4668Z" fill="#A5A5A5"/>
<path d="M70.4601 46.7666H61.8867V52.4733H70.4601V46.7666Z" fill="#A5A5A5"/>
<path d="M163.733 68.3738H153.253V58.7538H147.493V52.6138H138.106V45.9404H76.6998V52.6138H68.8731V58.7538H59.1664V68.3738H49.6064V153.187H59.7798V159.327H67.9931V165.474H76.8264V172.147H139.5V165.474H147.306V159.327H153.253V153.187H163.733V68.3738Z" fill="#313131"/>
<path d="M153.253 68.3738V58.7538H147.493V52.6138H138.106V45.9404H76.6998V52.6138H68.8731V58.7538H59.1664V68.3738H49.6064V98.6271H58.6864V92.4871H66.5198V85.8138H127.926V92.4871H137.306V98.6271H143.066V108.247H153.546V153.187H163.733V68.3738H153.253Z" fill="#1E1E1E"/>
<path d="M139.533 180.106H129.646V187.66H139.533V180.106Z" fill="#E2E2E2"/>
<path d="M76.7598 97.7598H65.4932V109.026H76.7598V97.7598Z" fill="#1E1E1E"/>
<path d="M63.0401 111.486H51.7734V122.753H63.0401V111.486Z" fill="#1E1E1E"/>
<path d="M138.86 69.8799H128.46V80.2799H138.86V69.8799Z" fill="#313131"/>
<path d="M173.12 199.827H132.38V211.094H173.12V199.827Z" fill="#6A6572"/>
<path d="M186.34 88.6602H178.106V132.647H186.34V88.6602Z" fill="#6A6572"/>
<path d="M106.38 219.98H96.8467V229.514H106.38V219.98Z" fill="#6A6572"/>
<path d="M90.7736 219.98H81.2402V229.514H90.7736V219.98Z" fill="#6A6572"/>
<path d="M207.794 112.354H199.127V161.76H207.794V112.354Z" fill="white"/>
</g>
</g>
<defs>
<clipPath id="clip0_138_11771">
<rect width="240" height="240" rx="120" fill="white"/>
</clipPath>
<clipPath id="clip1_138_11771">
<rect width="200" height="557.227" fill="white" transform="translate(20 32)"/>
</clipPath>
</defs>
</svg>
