<svg width="240" height="240" viewBox="0 0 240 240" fill="none" xmlns="http://www.w3.org/2000/svg">
<g clip-path="url(#clip0_106_5722)">
<rect width="240" height="240" rx="120" fill="#BE0AFF"/>
<path d="M214.242 260.209C203.639 279.105 179.291 285.253 154.653 283.595C152.704 341.038 150.314 397.46 149.282 420.846H82.2223C80.8535 390.86 77.1183 307.166 75.0071 243.969C60.2983 247.704 34.2099 245.001 6.6367 224.319C-26.4697 199.483 -32.2001 117.552 -18.8485 74.5858C-18.8485 74.5858 -14.6957 54.6338 4.8851 50.6898C7.40651 50.1022 9.97032 49.7143 12.5527 49.5298C23.5263 49.1818 43.5943 55.0398 42.1675 80.6526C40.0447 118.933 20.3711 183.173 51.2387 198.764C62.3747 204.378 66.1215 204.935 73.9167 206.327C73.6731 196.003 73.5339 187.187 73.5339 180.517C73.5339 125.997 52.2363 -5.08301 116.802 -5.08301C178.931 -5.08301 154.293 82.0562 157.123 133.061C158.191 152.271 157.274 199.413 155.708 250.732C163.179 249.63 174.477 246.359 177.748 236.812C187.84 207.812 167.308 148.965 208.627 152.665C249.947 156.366 224.983 241.069 214.242 260.209Z" fill="#1D1E5F" stroke="#0D052C" stroke-width="1.5" stroke-linecap="round" stroke-linejoin="round"/>
<path d="M223.94 248.922C213.337 267.818 188.989 273.966 164.35 272.307C161.798 347.464 158.492 420.845 158.492 420.845H92.4421C92.4421 420.845 87.2801 311.04 84.7049 232.682C69.9961 236.417 43.8961 233.703 16.3229 213.02C-16.7836 188.184 -22.5024 106.3 -9.19715 63.2987C-9.19715 63.2987 -5.04435 43.3467 14.5365 39.4027C17.0579 38.8151 19.6217 38.4272 22.2041 38.2427C33.1777 37.8947 53.2457 43.7527 51.8189 69.3655C49.6961 107.645 30.0225 171.875 60.8901 187.465C72.0145 193.091 75.7729 193.648 83.5681 195.04C83.3245 184.716 83.1853 175.9 83.1853 169.23C83.1853 114.71 61.8877 -16.3701 126.453 -16.3701C188.583 -16.3701 163.944 70.7691 166.775 121.774C167.842 140.984 166.926 188.126 165.36 239.445C172.83 238.343 184.128 235.071 187.458 225.467C197.55 196.467 176.96 137.62 218.337 141.32C259.714 145.021 234.681 229.84 223.94 248.922Z" fill="#53F2D4" stroke="#0D052C" stroke-width="1.5" stroke-linecap="round" stroke-linejoin="round"/>
<path d="M83.6147 195.052V210.549" stroke="#0D052C" stroke-width="1.5" stroke-linecap="round" stroke-linejoin="round"/>
<path d="M165.406 239.444V246.52" stroke="#0D052C" stroke-width="1.5" stroke-linecap="round" stroke-linejoin="round"/>
<path d="M154.421 13.2568C155.519 16.4188 156.296 19.6832 156.741 23.0008" stroke="#0D052C" stroke-width="1.5" stroke-linecap="round" stroke-linejoin="round"/>
<path d="M131.232 -5.30341C131.232 -5.30341 145.28 -6.24301 152.75 9.2082" stroke="#0D052C" stroke-width="1.5" stroke-linecap="round" stroke-linejoin="round"/>
<path d="M38.4092 64.7021C39.1369 66.8303 39.6499 69.0259 39.9404 71.2561" stroke="#0D052C" stroke-width="1.5" stroke-linecap="round" stroke-linejoin="round"/>
<path d="M22.8418 52.2319C22.8418 52.2319 32.2378 51.6055 37.2838 61.9875" stroke="#0D052C" stroke-width="1.5" stroke-linecap="round" stroke-linejoin="round"/>
<path d="M230.377 162.015C230.93 163.551 231.319 165.141 231.537 166.759" stroke="#0D052C" stroke-width="1.5" stroke-linecap="round" stroke-linejoin="round"/>
<path d="M219.091 152.967C219.091 152.967 225.9 152.515 229.531 160.043" stroke="#0D052C" stroke-width="1.5" stroke-linecap="round" stroke-linejoin="round"/>
<ellipse cx="106.721" cy="107.553" rx="13.05" ry="13.05" fill="white" stroke="#0D052C" stroke-width="1.5" stroke-linecap="round" stroke-linejoin="round"/>
<path d="M106.721 111.033C111.199 111.033 111.199 104.073 106.721 104.073C102.244 104.073 102.232 111.033 106.721 111.033Z" stroke="#0D052C" stroke-width="1.5" stroke-linecap="round" stroke-linejoin="round"/>
<ellipse cx="143.447" cy="107.553" rx="9.30322" ry="9.3032" fill="white" stroke="#0D052C" stroke-width="1.5" stroke-linecap="round" stroke-linejoin="round"/>
<path d="M143.447 110.511C147.252 110.511 147.252 104.595 143.447 104.595C139.642 104.595 139.63 110.511 143.447 110.511Z" stroke="#0D052C" stroke-width="1.5" stroke-linecap="round" stroke-linejoin="round"/>
<path d="M3.20312 126.854L19.4315 147.792" stroke="#0D052C" stroke-width="1.5" stroke-linecap="round" stroke-linejoin="round"/>
<path d="M13.7012 128.026L22.842 139.824" stroke="#0D052C" stroke-width="1.5" stroke-linecap="round" stroke-linejoin="round"/>
<path d="M1.83447 137.457L11.3233 149.695" stroke="#0D052C" stroke-width="1.5" stroke-linecap="round" stroke-linejoin="round"/>
<path d="M16.9031 128.026L2.28711 146.888" stroke="#0D052C" stroke-width="1.5" stroke-linecap="round" stroke-linejoin="round"/>
<path d="M9.15441 125.66L3.20361 133.328" stroke="#0D052C" stroke-width="1.5" stroke-linecap="round" stroke-linejoin="round"/>
<path d="M21.4156 134.569L12.0776 146.61" stroke="#0D052C" stroke-width="1.5" stroke-linecap="round" stroke-linejoin="round"/>
<path d="M96.0962 83.0418C96.0962 83.0418 103.601 74.3998 111.095 76.7198" stroke="#0D052C" stroke-width="1.5" stroke-linecap="round" stroke-linejoin="round"/>
<path d="M141.998 86.1973C141.998 86.1973 150.292 89.3525 154.236 92.5193" stroke="#0D052C" stroke-width="1.5" stroke-linecap="round" stroke-linejoin="round"/>
<path d="M134.144 139.278C134.144 148.779 130.223 156.481 125.386 156.481C120.549 156.481 116.628 148.779 116.628 139.278C116.627 137.953 116.705 136.628 116.86 135.311C117.211 132.639 119.501 130.648 122.196 130.671H128.553C131.252 130.642 133.548 132.634 133.9 135.311C134.065 136.627 134.146 137.952 134.144 139.278V139.278Z" fill="#1D1E5F" stroke="#0D052C" stroke-width="1.5" stroke-linecap="round" stroke-linejoin="round"/>
<path d="M119.771 31.1084L127.265 43.5436" stroke="#0D052C" stroke-width="1.5" stroke-linecap="round" stroke-linejoin="round"/>
<path d="M164.351 51.2463L178.039 40.3887" stroke="#0D052C" stroke-width="1.5" stroke-linecap="round" stroke-linejoin="round"/>
<path d="M74.9609 52.2324L89.1825 60.3176" stroke="#0D052C" stroke-width="1.5" stroke-linecap="round" stroke-linejoin="round"/>
<path d="M13.7012 100.43L22.842 88.5752" stroke="#0D052C" stroke-width="1.5" stroke-linecap="round" stroke-linejoin="round"/>
<path d="M41.4136 174.496L50.972 164.381" stroke="#0D052C" stroke-width="1.5" stroke-linecap="round" stroke-linejoin="round"/>
<path d="M21.415 196.931L30.0686 206.86" stroke="#0D052C" stroke-width="1.5" stroke-linecap="round" stroke-linejoin="round"/>
<path d="M146.637 174.496L155.569 164.381" stroke="#0D052C" stroke-width="1.5" stroke-linecap="round" stroke-linejoin="round"/>
<path d="M93.6602 156.481L103.601 166.759" stroke="#0D052C" stroke-width="1.5" stroke-linecap="round" stroke-linejoin="round"/>
<path d="M161.647 137.33L173.097 129.5" stroke="#0D052C" stroke-width="1.5" stroke-linecap="round" stroke-linejoin="round"/>
<path d="M98.625 218.089L108.729 228.355" stroke="#0D052C" stroke-width="1.5" stroke-linecap="round" stroke-linejoin="round"/>
<path d="M123.739 195.052L129.655 206.861" stroke="#0D052C" stroke-width="1.5" stroke-linecap="round" stroke-linejoin="round"/>
<path d="M158.875 216.511L170.336 210.549" stroke="#0D052C" stroke-width="1.5" stroke-linecap="round" stroke-linejoin="round"/>
<path d="M67.6646 226.383L62.1313 239.444" stroke="#0D052C" stroke-width="1.5" stroke-linecap="round" stroke-linejoin="round"/>
<path d="M193.629 140.59C195.601 141.877 203.106 152.967 203.106 152.967" stroke="#0D052C" stroke-width="1.5" stroke-linecap="round" stroke-linejoin="round"/>
<path d="M213.767 200.956L222.061 191.63" stroke="#0D052C" stroke-width="1.5" stroke-linecap="round" stroke-linejoin="round"/>
<path d="M227.199 220.85L239.043 216.512" stroke="#0D052C" stroke-width="1.5" stroke-linecap="round" stroke-linejoin="round"/>
<path d="M184.151 218.681L191.657 228.355" stroke="#0D052C" stroke-width="1.5" stroke-linecap="round" stroke-linejoin="round"/>
<path d="M39.9404 102.878L57.2012 95.3262" stroke="#0D052C" stroke-width="1.5" stroke-linecap="round" stroke-linejoin="round"/>
</g>
<defs>
<clipPath id="clip0_106_5722">
<rect width="240" height="240" rx="120" fill="white"/>
</clipPath>
</defs>
</svg>
