<svg width="240" height="240" viewBox="0 0 240 240" fill="none" xmlns="http://www.w3.org/2000/svg">
<g clip-path="url(#clip0_138_11714)">
<rect width="240" height="240" rx="120" fill="#FFD300"/>
<path d="M97.3204 74.1699H65.0396V122.106H97.3204V74.1699Z" fill="#A5312F"/>
<path d="M90.6626 99.1572H70.4697V138.513H90.6626V99.1572Z" fill="#313131"/>
<path d="M98.8854 51.5791H59.2725V99.5149H98.8854V51.5791Z" fill="#A5312F"/>
<path d="M155.7 137.859H132.495V152.345H155.7V137.859Z" fill="#DDB99F"/>
<path d="M155.819 98.5439H132.931V138.969H155.819V98.5439Z" fill="#BFA08C"/>
<path d="M132.673 130.726H89.1958V152.048H132.673V130.726Z" fill="#BFA08C"/>
<path d="M132.871 63.7061H67.1597V139.464H132.871V63.7061Z" fill="#DDB99F"/>
<path d="M102.572 41.6709H100.848H38.8228V63.9643H100.848H102.572H162.893V41.6709H102.572Z" fill="#B94F49"/>
<path d="M108.735 22.6074H107.507H62.7612V44.9207H107.507H108.735H152.272V22.6074H108.735Z" fill="#B94F49"/>
<path d="M91.0979 22.6074H90.6619H75.1655V44.9207H90.6619H91.0979H106.178V22.6074H91.0979Z" fill="white"/>
<path d="M109.151 13.75H108.16H72.5103V29.8409H108.16H109.151H143.849V13.75H109.151Z" fill="#B94F49"/>
<path d="M107.526 4H106.832H82.2598V24.0938H106.832H107.526H131.444V4H107.526Z" fill="#B94F49"/>
<path d="M172.444 51.5791H132.831V99.5149H172.444V51.5791Z" fill="#B94F49"/>
<path d="M170.919 74.1699H140.818V122.106H170.919V74.1699Z" fill="#B94F49"/>
<path d="M166.44 99.1572H146.247V138.513H166.44V99.1572Z" fill="#B94F49"/>
<path d="M90.0281 186.113H24V286.265C24 286.265 222.283 285.433 223.472 286.265C224.661 287.097 223.472 186.113 223.472 186.113H90.0281Z" fill="#B94F49"/>
<path d="M177.517 186.171H67.1006V329.087H177.517V186.171Z" fill="#B94F49"/>
<path d="M89.0775 120.977H64.1089V131.083H89.0775V120.977Z" fill="#604925"/>
<path d="M89.0767 139.583H66.9814V151.968H89.0767V139.583Z" fill="#604925"/>
<path d="M97.776 120.977H89.0767V139.782H97.776V120.977Z" fill="#604925"/>
<path d="M134.239 173.985H110.895V195.645H134.239V173.985Z" fill="#B94F49"/>
<path d="M84.341 85.8223H71.6387V116.993H84.341V85.8223Z" fill="#D8988D"/>
<path d="M72.3522 67.374H65.5552V72.9821H72.3522V67.374Z" fill="#604925"/>
<path d="M94.7054 67.374H82.3994V72.9821H94.7054V67.374Z" fill="#604925"/>
<path d="M93.7736 77.1016H85.2129V85.6622H93.7736V77.1016Z" fill="#4F381A"/>
<path d="M71.0448 77.1016H67.0815V85.6622H71.0448V77.1016Z" fill="#4F381A"/>
<path d="M111.291 152.168L89.6317 151.771L89.5723 174.283V186.113H155.818V152.108H132.792V173.867H111.35L111.291 152.168Z" fill="#DDB99F"/>
<path d="M134.338 152.128H110.895V173.966H134.338V152.128Z" fill="#DDB99F"/>
<path d="M67.4974 219.424H45.0454V377.261H67.4974V219.424Z" fill="#A5312F"/>
<path d="M200.029 219.424H176.824V377.261H200.029V219.424Z" fill="#A5312F"/>
<path d="M163.329 78.1523H148.269V97.4931H163.329V78.1523Z" fill="white"/>
<path d="M134.1 41.6709H50.3359V54.0759H134.1V41.6709Z" fill="#A5312F"/>
<path d="M143.829 13.75H130.691V26.8883H143.829V13.75Z" fill="#A5312F"/>
<path d="M152.113 22.6074H138.975V35.7457H152.113V22.6074Z" fill="#A5312F"/>
<path d="M163.19 41.6709H150.052V54.8091H163.19V41.6709Z" fill="#A5312F"/>
<path d="M131.444 182.268H109.587V204.125H131.444V182.268Z" fill="#DDB99F"/>
<path d="M76.1963 186.113H70.291V204.741H76.1963V186.113Z" fill="white"/>
<path d="M81.9629 204.66H76.0576V214.251H81.9629V204.66Z" fill="white"/>
<path d="M87.7095 214.113H81.8042V223.942H87.7095V214.113Z" fill="white"/>
<path d="M93.5557 223.862H87.6504V377.479H93.5557V223.862Z" fill="white"/>
<path d="M165.944 204.759H171.85V186.131H165.944V204.759Z" fill="white"/>
<path d="M160.158 214.231H166.063V204.64H160.158V214.231Z" fill="white"/>
<path d="M154.412 223.923H160.317V214.094H154.412V223.923Z" fill="white"/>
<path d="M148.585 377.459H154.491L154.491 223.843H148.585L148.585 377.459Z" fill="white"/>
</g>
<defs>
<clipPath id="clip0_138_11714">
<rect width="240" height="240" rx="120" fill="white"/>
</clipPath>
</defs>
</svg>
