<svg width="240" height="240" viewBox="0 0 240 240" fill="none" xmlns="http://www.w3.org/2000/svg">
<g clip-path="url(#clip0_138_11475)">
<rect width="240" height="240" rx="120" fill="#FF8700"/>
<path d="M151.699 144.139H128.494V158.624H151.699V144.139Z" fill="#DDB99F"/>
<path d="M151.819 104.823H128.931V145.249H151.819V104.823Z" fill="#BFA08C"/>
<path d="M128.672 137.006H85.1953V158.328H128.672V137.006Z" fill="#BFA08C"/>
<path d="M128.87 69.9863H63.1592V145.744H128.87V69.9863Z" fill="#DDB99F"/>
<path d="M91.4391 50.6064H90.369H51.6875V70.2445H90.369H91.4391H129.09V50.6064H91.4391Z" fill="#313131"/>
<path d="M151.739 57.8594H128.831V105.795H151.739V57.8594Z" fill="#313131"/>
<path d="M86.0281 192.393H20V335.962C20 335.962 218.283 334.793 219.472 335.962C220.661 337.131 219.472 192.393 219.472 192.393H86.0281V192.393Z" fill="#B94F49"/>
<path d="M173.517 192.452H63.1006V335.368H173.517V192.452Z" fill="#B94F49"/>
<path d="M98.0963 115.287H54.0049V127.256H98.0963V115.287Z" fill="#313131"/>
<path d="M85.0762 127.256H58.7402V137.362H85.0762V127.256Z" fill="#313131"/>
<path d="M85.0767 145.863H62.9814V158.249H85.0767V145.863Z" fill="#313131"/>
<path d="M93.7756 127.256H85.0762V146.062H93.7756V127.256Z" fill="#313131"/>
<path d="M81.5102 145.941H68.1738V165.044H81.5102V145.941Z" fill="#313131"/>
<path d="M130.239 180.265H106.896V201.924H130.239V180.265Z" fill="#B94F49"/>
<path d="M80.341 92.1006H67.6387V126.958H80.341V92.1006Z" fill="#BFA08C"/>
<path d="M90.7238 73.6523H60.6426V82.4904H90.7238V73.6523Z" fill="#313131"/>
<path d="M89.7931 83.3828H81.2324V91.9435H89.7931V83.3828Z" fill="#313131"/>
<path d="M67.0443 83.3828H63.0811V91.9435H67.0443V83.3828Z" fill="#313131"/>
<path d="M149.302 20.4658H60.3066V58.1169H149.302V20.4658Z" fill="#B94F49"/>
<path d="M61.7324 39.9648H30.5811V58.1166H61.7324V39.9648Z" fill="#B94F49"/>
<path d="M172.982 39.9648H141.652V58.1166H172.982V39.9648Z" fill="#B94F49"/>
<path d="M89.1791 20.248H60.3066V49.1205H89.1791V20.248Z" fill="#FFBC00"/>
<path d="M145.18 8.95215H68.709V20.842H145.18V8.95215Z" fill="#B94F49"/>
<path d="M107.291 158.447L85.6317 158.051L85.5723 180.562V192.393H151.818V158.388H128.792V180.166H107.35L107.291 158.447Z" fill="#B94F49"/>
<path d="M130.338 158.406H106.896V180.244H130.338V158.406Z" fill="#DDB99F"/>
<path d="M135.866 -7H78.5566V14.8575H135.866V-7Z" fill="#B94F49"/>
<path d="M62.9024 225.703H41.0449V383.54H62.9024V225.703Z" fill="#A5312F"/>
<path d="M195.533 225.703H173.676V383.54H195.533V225.703Z" fill="#A5312F"/>
</g>
<defs>
<clipPath id="clip0_138_11475">
<rect width="240" height="240" rx="120" fill="white"/>
</clipPath>
</defs>
</svg>
