<svg width="240" height="240" viewBox="0 0 240 240" fill="none" xmlns="http://www.w3.org/2000/svg">
<g clip-path="url(#clip0_138_11517)">
<rect width="240" height="240" rx="120" fill="#BE0AFF"/>
<path d="M45.5225 27.3047H37.2881V69.4524H45.5225V27.3047Z" fill="#3D2C18"/>
<path d="M57.6208 18.5049H42.8691V74.8774H57.6208V18.5049Z" fill="#3D2C18"/>
<path d="M147.438 114.956H97.3291V122.117H147.438V114.956Z" fill="#3D2C18"/>
<path d="M196.005 27.3042H191.166V18.5039H181.878V-1.7504H169.721V-12.58H163.028V-19.4876H152.14V-27H80.86V-19.4876H71.767V-12.58H60.5081V-1.7504H49.4053V93.7259H61.2105V100.653H70.7523V107.56H80.9965V115.073H139.281V122.176H149.174V115.073H153.76V107.56H162.443V100.653H169.721V93.7259H181.878V74.8765H191.166V69.4519H196.005V27.3042Z" fill="#49361C"/>
<path d="M67.2599 31.5195H42.6152V78.4284H67.2599V31.5195Z" fill="#3D2C18"/>
<path d="M74.9489 81.2773H61.2119V100.634H74.9489V81.2773Z" fill="#3D2C18"/>
<path d="M153.35 135.016H130.423V149.397H153.35V135.016Z" fill="#DDB99F"/>
<path d="M153.644 96.1465H130.853V136.109H153.644V96.1465Z" fill="#BFA08C"/>
<path d="M133.486 128.187H88.0605V149.28H133.486V128.187Z" fill="#BFA08C"/>
<path d="M133.058 62.2334H65.8359V136.616H133.058V62.2334Z" fill="#DDB99F"/>
<path d="M99.1239 42.3086H98.1092H61.7568V63.4605H98.1092H99.1239H134.481V42.3086H99.1239Z" fill="#49361C"/>
<path d="M155.4 61.6084H132.823V97.1022H155.4V61.6084Z" fill="#49361C"/>
<path d="M109.036 149.434L87.6308 149.044L87.5723 171.113V182.723H153.057V149.376H130.266V170.723H109.075L109.036 149.434Z" fill="#7852A0"/>
<path d="M86.0314 182.725H20V324.641C20 324.641 218.309 323.471 219.48 324.641C220.65 325.812 219.48 182.725 219.48 182.725H86.0314Z" fill="#7852A0"/>
<path d="M126.598 182.782H114.324V203.349H126.598V182.782Z" fill="#DDB99F"/>
<path d="M67.6308 205.144H43.8252V346.592H67.6308V205.144Z" fill="#64448E"/>
<path d="M196.709 215.642H175.108V346.299H196.709V215.642Z" fill="#64448E"/>
<path d="M98.6169 120.009H90.0117V135.58H98.6169V120.009Z" fill="#49361C"/>
<path d="M132.16 170.724H109.076V192.149H132.16V170.724Z" fill="#DDB99F"/>
<path d="M132.043 149.084H108.861V192.129H132.043V149.084Z" fill="#DDB99F"/>
<path d="M93.0754 67.168H65.3672V73.5487H93.0754V67.168Z" fill="#49361C"/>
<path d="M80.7821 80.3584H68.2158V115.306H80.7821V80.3584Z" fill="#BFA08C"/>
<path d="M85.2706 108.242H65.6602V118.33H85.2706V108.242Z" fill="#49361C"/>
<path d="M90.0897 115.249H78.5967V122.879H90.0897V115.249Z" fill="#49361C"/>
<path d="M92.3144 135.406H65.4062V148.968H92.3144V135.406Z" fill="#49361C"/>
<path d="M144.98 76.0273H131.848V108.906H144.98V76.0273Z" fill="#DDB99F"/>
<path d="M103.242 77.374H82.6758V93.6477H103.242V77.374Z" fill="#313131"/>
<path d="M96.3732 85.8623H88.2168V93.6479H96.3732V85.8623Z" fill="#424242"/>
<path d="M103.183 77.374H96.373V85.6865H103.183V77.374Z" fill="#1E1E1E"/>
<path d="M67.2989 77.374H59.0645V93.6477H67.2989V77.374Z" fill="#313131"/>
<path d="M60.4499 85.8623H59.0645V93.6479H60.4499V85.8623Z" fill="#424242"/>
<path d="M67.2406 77.374H60.4307V85.6865H67.2406V77.374Z" fill="#1E1E1E"/>
<path d="M83.0266 77.374H65.6406V85.3938H83.0266V77.374Z" fill="#1E1E1E"/>
<path d="M123.379 182.782H117.252V246.277H123.379V182.782Z" fill="#DDB99F"/>
</g>
<defs>
<clipPath id="clip0_138_11517">
<rect width="240" height="240" rx="120" fill="white"/>
</clipPath>
</defs>
</svg>
