<svg width="240" height="240" viewBox="0 0 240 240" fill="none" xmlns="http://www.w3.org/2000/svg">
<g clip-path="url(#clip0_138_12230)">
<rect width="240" height="240" rx="120" fill="#A6FF00"/>
<path d="M158.7 149.871H135.495V164.357H158.7V149.871Z" fill="#DDB99F"/>
<path d="M158.819 110.556H135.931V150.981H158.819V110.556Z" fill="#BFA08C"/>
<path d="M135.911 142.738H92.1958V164.061H135.911V142.738Z" fill="#BFA08C"/>
<path d="M135.871 63.3926H70.1597V151.476H135.871V63.3926Z" fill="#DDB99F"/>
<path d="M98.7348 56.3369H97.962H70.1992V75.9749H97.962H98.7348H125.744V56.3369H98.7348Z" fill="#313131"/>
<path d="M158.739 63.5908H135.831V111.527H158.739V63.5908Z" fill="#313131"/>
<path d="M93.0281 198.798H27V291.618C27 291.618 225.283 290.865 226.472 291.618C227.661 292.371 226.472 198.798 226.472 198.798H93.0281Z" fill="white"/>
<path d="M180.517 197.847H70.1006V341.119H180.517V197.847Z" fill="white"/>
<path d="M98.7152 151.596H69.9814V163.941H98.7152V151.596Z" fill="#BFA08C"/>
<path d="M137.239 185.997H113.895V209.004H137.239V185.997Z" fill="#DDB99F"/>
<path d="M87.3412 98.2881H74.4209V134.988H87.3412V98.2881Z" fill="#BFA08C"/>
<path d="M105.314 80.6719H67.6431V88.2219H105.314V80.6719Z" fill="#313131"/>
<path d="M104.878 91.8691H87.4399V105.661H104.878V91.8691Z" fill="#313131"/>
<path d="M99.0717 99.0625H92.1558V105.661H99.0717V99.0625Z" fill="#424242"/>
<path d="M104.839 91.8691H99.0723V98.9238H104.839V91.8691Z" fill="#1E1E1E"/>
<path d="M74.4007 91.8691H67.4253V105.661H74.4007V91.8691Z" fill="#313131"/>
<path d="M68.5945 99.0625H67.4253V105.661H68.5945V99.0625Z" fill="#424242"/>
<path d="M74.3618 91.8691H68.5952V98.9238H74.3618V91.8691Z" fill="#1E1E1E"/>
<path d="M158.502 26.1963H60.6685V63.8474H158.502V26.1963Z" fill="#1E1E1E"/>
<path d="M153.487 0H65.2056V12.2267H153.487V0Z" fill="#1E1E1E"/>
<path d="M114.291 164.179L92.6317 163.803L92.5723 186.294V198.125H158.818V164.14H135.792V185.898H114.35L114.291 164.179Z" fill="#DDB99F"/>
<path d="M137.338 164.139H113.895V185.976H137.338V164.139Z" fill="#DDB99F"/>
<path d="M157.035 6.2627H55.5557V28.1201H157.035V6.2627Z" fill="#1E1E1E"/>
<path d="M158.66 26.2949H60.688V43.1983H158.66V26.2949Z" fill="white"/>
<path d="M87.7575 91.8691H73.0142V98.6662H87.7575V91.8691Z" fill="#1E1E1E"/>
<path d="M137.1 212.966H113.776V334.242H137.1V212.966Z" fill="#313131"/>
<path d="M137.12 202.562H113.776V223.548H137.12V202.562Z" fill="#1E1E1E"/>
<path d="M104.205 128.272H70.061V135.069H104.205V128.272Z" fill="#313131"/>
<path d="M93.0872 151.497H70.1597V163.882H93.0872V151.497Z" fill="#313131"/>
<path d="M69.9822 26.1963H60.6685V34.856H69.9822V26.1963Z" fill="#1E1E1E"/>
<path d="M89.1443 26.1963H79.8306V34.856H89.1443V26.1963Z" fill="#1E1E1E"/>
<path d="M108.307 26.1963H98.9932V34.856H108.307V26.1963Z" fill="#1E1E1E"/>
<path d="M127.469 26.1963H118.155V34.856H127.469V26.1963Z" fill="#1E1E1E"/>
<path d="M146.632 26.1963H137.318V34.856H146.632V26.1963Z" fill="#1E1E1E"/>
<path d="M79.4349 34.9551H70.0815V43.6148H79.4349V34.9551Z" fill="#1E1E1E"/>
<path d="M98.6761 34.9551H89.3228V43.6148H98.6761V34.9551Z" fill="#1E1E1E"/>
<path d="M117.918 34.9551H108.564V43.6148H117.918V34.9551Z" fill="#1E1E1E"/>
<path d="M137.159 34.9551H127.806V43.6148H137.159V34.9551Z" fill="#1E1E1E"/>
<path d="M156.401 34.9551H147.048V43.6148H156.401V34.9551Z" fill="#1E1E1E"/>
<path d="M158.699 26.1963H156.48V34.856H158.699V26.1963Z" fill="#1E1E1E"/>
<path d="M86.0722 21.6006H65.2056V44.0723H86.0722V21.6006Z" fill="#7F7F7F"/>
<path d="M158.699 43.2979H37.5815V63.8474H158.699V43.2979Z" fill="#1E1E1E"/>
<path d="M145.086 43.2979H48.7788V54.8508H145.086V43.2979Z" fill="#313131"/>
<path d="M113.756 197.847H92.5723V202.583H113.756V197.847Z" fill="#E0E0E0"/>
<path d="M158.74 197.847H136.922V202.583H158.74V197.847Z" fill="#E0E0E0"/>
<path d="M107.177 215.542H92.8896V233.218H107.177V215.542Z" fill="#424242"/>
<path d="M160.602 216.455H143.62V234.429H160.602V216.455Z" fill="#424242"/>
<path d="M201.998 197.847H158.779V216.712H201.998V197.847Z" fill="#424242"/>
<path d="M92.949 215.562H63.7793V349.977H92.949V215.562Z" fill="#424242"/>
<path d="M187.572 216.573H158.165V349.957H187.572V216.573Z" fill="#424242"/>
<path d="M161.751 349.817V231.375H138.883V241.343H134.127V255.174H117.402V241.343H111.973V231.375H92.5527V349.817H161.751Z" fill="#424242"/>
<path d="M92.5129 197.847H46.856V216.395H92.5129V197.847Z" fill="#424242"/>
<path d="M63.8381 231.436H47.9058V349.68H63.8381V231.436Z" fill="#282828"/>
<path d="M203.187 231.436H187.433V349.819H203.187V231.436Z" fill="#282828"/>
</g>
<defs>
<clipPath id="clip0_138_12230">
<rect width="240" height="240" rx="120" fill="white"/>
</clipPath>
</defs>
</svg>
