<svg width="240" height="240" viewBox="0 0 240 240" fill="none" xmlns="http://www.w3.org/2000/svg">
<rect width="240" height="240" rx="120" fill="#FF8700"/>
<path d="M194.64 124.032C189.732 150.36 176.262 174.306 156.72 192.63C147.954 200.856 136.32 210.408 126.072 214.23C122.261 215.652 118.064 215.652 114.252 214.23C104.052 210.42 92.3702 200.868 83.6042 192.63C64.0622 174.306 50.6042 150.36 45.6902 124.032C42.8702 108.912 43.8002 98.7002 43.8002 98.7002C45.3842 54.4142 78.0002 24.4502 120.162 24.4502C162.324 24.4502 194.94 54.4142 196.53 98.7002C196.53 98.7002 197.46 108.912 194.64 124.032Z" fill="#9E59FF" stroke="#0D052C" stroke-width="1.5" stroke-linecap="round" stroke-linejoin="round"/>
<path d="M124.2 208.8C121.628 209.886 118.726 209.886 116.154 208.8" stroke="#0D052C" stroke-width="0.7" stroke-linecap="round" stroke-linejoin="round"/>
<path d="M141.066 37.2539C147.069 38.5732 152.584 41.5428 156.99 45.8279" stroke="#0D052C" stroke-width="1.5" stroke-linecap="round" stroke-linejoin="round"/>
<path d="M75.2466 52.668L82.8606 62.496" stroke="#0D052C" stroke-width="1.5" stroke-linecap="round" stroke-linejoin="round"/>
<path d="M80.5083 53.0098L82.3863 55.4338" stroke="#0D052C" stroke-width="1.5" stroke-linecap="round" stroke-linejoin="round"/>
<path d="M73.6924 57.1084L77.7604 62.3584" stroke="#0D052C" stroke-width="1.5" stroke-linecap="round" stroke-linejoin="round"/>
<path d="M151.2 85.9501C149.748 85.7761 134.226 84.0181 124.08 91.3021C121.773 92.8286 118.781 92.8427 116.46 91.3381C105.804 83.6521 89.1782 85.9381 89.1782 85.9381" stroke="#0D052C" stroke-width="1.5" stroke-linecap="round" stroke-linejoin="round"/>
<path d="M135.666 80.5143C134.94 80.4243 127.176 79.5483 122.106 83.1903C120.949 83.9457 119.454 83.9457 118.296 83.1903C112.968 79.3443 104.652 80.5083 104.652 80.5083" stroke="#0D052C" stroke-width="1.5" stroke-linecap="round" stroke-linejoin="round"/>
<path d="M86.5083 190.878C91.7686 198.76 98.6192 205.456 106.62 210.534" stroke="#0D052C" stroke-width="1.5" stroke-linecap="round" stroke-linejoin="round"/>
<path d="M154.092 190.878C148.56 198.699 141.565 205.374 133.494 210.534" stroke="#0D052C" stroke-width="1.5" stroke-linecap="round" stroke-linejoin="round"/>
<path d="M66.4561 100.435C66.4561 100.435 93.3721 100.903 107.952 121.615" stroke="#0D052C" stroke-width="1.5" stroke-linecap="round" stroke-linejoin="round"/>
<path d="M89.4 166.651C83.6581 166.202 78.112 164.361 73.242 161.287C72.36 160.729 71.514 160.147 70.71 159.553" stroke="#0D052C" stroke-width="1.5" stroke-linecap="round" stroke-linejoin="round"/>
<path d="M159.6 103.021C150.912 105.667 140.16 110.983 132.678 121.621" stroke="#0D052C" stroke-width="1.5" stroke-linecap="round" stroke-linejoin="round"/>
<path d="M174.234 100.404C170.449 100.588 166.692 101.153 163.02 102.09" stroke="#0D052C" stroke-width="1.5" stroke-linecap="round" stroke-linejoin="round"/>
<path d="M151.284 166.651C157.026 166.201 162.572 164.36 167.442 161.287C168.324 160.729 169.164 160.147 169.974 159.553" stroke="#0D052C" stroke-width="1.5" stroke-linecap="round" stroke-linejoin="round"/>
<path d="M57.0004 109.29C57.1833 108.429 57.921 107.797 58.8004 107.748C64.2364 107.286 84.2824 106.644 98.6164 120.264C112.152 133.134 111.522 155.268 111.276 159.444C111.251 159.857 110.954 160.202 110.55 160.29C106.272 161.226 82.5604 165.534 67.7344 149.796C52.9624 134.148 55.8724 114.6 57.0004 109.29Z" fill="#1D1E5F" stroke="#0D052C" stroke-width="1.5" stroke-linecap="round" stroke-linejoin="round"/>
<path d="M108.27 156.978C108.35 156.978 108.414 157.042 108.414 157.122C108.414 157.201 108.35 157.266 108.27 157.266C98.1723 158.94 84.3603 158.538 74.2683 149.964C60.2823 138.078 59.2083 121.926 59.5023 114.084C59.5066 113.944 59.6147 113.83 59.7539 113.817C59.8932 113.805 60.0196 113.899 60.0483 114.036C61.9683 123.9 66.6483 135.726 77.3403 145.404C86.2383 153.42 98.8143 156.564 108.27 156.978Z" fill="white" stroke="#0D052C" stroke-width="1.5" stroke-linecap="round" stroke-linejoin="round"/>
<ellipse cx="77.6703" cy="123.697" rx="4.932" ry="4.932" fill="white" stroke="#0D052C" stroke-width="1.5" stroke-linecap="round" stroke-linejoin="round"/>
<ellipse cx="96.2106" cy="145.416" rx="3.048" ry="3.04799" fill="white" stroke="#0D052C" stroke-width="1.5" stroke-linecap="round" stroke-linejoin="round"/>
<ellipse cx="66.0484" cy="116.581" rx="1.524" ry="1.52401" fill="white" stroke="#0D052C" stroke-width="1.5" stroke-linecap="round" stroke-linejoin="round"/>
<path d="M183.3 109.29C183.123 108.449 182.417 107.822 181.56 107.748C176.118 107.286 156.072 106.644 141.744 120.264C128.202 133.134 128.832 155.268 129.084 159.444C129.105 159.857 129.4 160.204 129.804 160.29C134.082 161.226 157.794 165.534 172.62 149.796C187.362 134.148 184.452 114.6 183.3 109.29Z" fill="#1D1E5F" stroke="#0D052C" stroke-width="1.5" stroke-linecap="round" stroke-linejoin="round"/>
<path d="M132.06 156.978C131.98 156.978 131.916 157.043 131.916 157.122C131.916 157.202 131.98 157.266 132.06 157.266C142.158 158.94 155.97 158.538 166.062 149.964C180.048 138.078 181.122 121.926 180.828 114.084C180.837 113.988 180.793 113.894 180.714 113.838C180.635 113.783 180.532 113.773 180.444 113.814C180.356 113.855 180.297 113.94 180.288 114.036C178.362 123.9 173.688 135.726 162.99 145.404C154.092 153.42 141.51 156.564 132.06 156.978Z" fill="white" stroke="#0D052C" stroke-width="1.5" stroke-linecap="round" stroke-linejoin="round"/>
<ellipse cx="162.654" cy="123.697" rx="4.93199" ry="4.932" fill="white" stroke="#0D052C" stroke-width="1.5" stroke-linecap="round" stroke-linejoin="round"/>
<ellipse cx="144.114" cy="145.416" rx="3.04801" ry="3.04799" fill="white" stroke="#0D052C" stroke-width="1.5" stroke-linecap="round" stroke-linejoin="round"/>
<ellipse cx="174.276" cy="116.581" rx="1.524" ry="1.52401" fill="white" stroke="#0D052C" stroke-width="1.5" stroke-linecap="round" stroke-linejoin="round"/>
<path d="M115.734 165.786C116.378 165.318 117.075 164.928 117.81 164.622C117.936 164.56 118.086 164.577 118.194 164.667C118.302 164.756 118.347 164.901 118.308 165.036C118.074 165.858 117.588 167.142 116.718 167.586C116.211 167.86 115.579 167.685 115.284 167.19C115.092 166.848 115.068 166.362 115.734 165.786Z" stroke="#0D052C" stroke-width="1.5" stroke-linecap="round" stroke-linejoin="round"/>
<path d="M124.956 165.786C124.314 165.318 123.62 164.928 122.886 164.622C122.76 164.562 122.611 164.58 122.503 164.669C122.395 164.757 122.348 164.901 122.382 165.036C122.616 165.858 123.108 167.142 123.978 167.586C124.483 167.86 125.114 167.685 125.406 167.19C125.598 166.848 125.622 166.362 124.956 165.786Z" stroke="#0D052C" stroke-width="1.5" stroke-linecap="round" stroke-linejoin="round"/>
<path d="M129.414 182.448H110.952C111.552 178.422 115.476 175.32 120.18 175.32C124.884 175.32 128.778 178.422 129.414 182.448Z" fill="#1D1E5F" stroke="#0D052C" stroke-width="1.5" stroke-linecap="round" stroke-linejoin="round"/>
<path d="M117.078 185.401H123.288" stroke="#0D052C" stroke-width="0.7" stroke-linecap="round" stroke-linejoin="round"/>
</svg>
