<svg width="112" height="124" viewBox="0 0 112 124" fill="none" xmlns="http://www.w3.org/2000/svg">
<path fill-rule="evenodd" clip-rule="evenodd" d="M2.1948 1.88436C0.799801 3.38166 0 5.68807 0 8.68577V115.276C0 118.274 0.799802 120.58 2.2475 122.025L2.6257 122.344L62.3504 62.6196V61.2773L2.573 1.56506L2.1948 1.88436Z" fill="url(#paint0_linear_1_12)"/>
<path fill-rule="evenodd" clip-rule="evenodd" d="M82.2182 82.6054L62.2976 62.6785V61.2835L82.2244 41.3567L82.6553 41.6233L106.225 55.0184C112.973 58.8221 112.973 65.0903 106.225 68.9467L82.6553 82.3419C82.6491 82.3388 82.2182 82.6054 82.2182 82.6054Z" fill="url(#paint1_linear_1_12)"/>
<path fill-rule="evenodd" clip-rule="evenodd" d="M82.6492 82.3388L62.2977 61.981L2.19482 122.084C4.38963 124.443 8.08483 124.71 12.214 122.403L82.6492 82.3388Z" fill="url(#paint2_linear_1_12)"/>
<path fill-rule="evenodd" clip-rule="evenodd" d="M82.6492 41.6295L12.214 1.61775C8.09103 -0.741347 4.38963 -0.422047 2.19482 1.93706L62.2915 61.981L82.6492 41.6295Z" fill="url(#paint3_linear_1_12)"/>
<defs>
<linearGradient id="paint0_linear_1_12" x1="97.9321" y1="-33.4608" x2="-30.9558" y2="0.905776" gradientUnits="userSpaceOnUse">
<stop stop-color="#047ED6"/>
<stop offset="1" stop-color="#50E6FF"/>
</linearGradient>
<linearGradient id="paint1_linear_1_12" x1="115.015" y1="61.9764" x2="48.1948" y2="61.9764" gradientUnits="userSpaceOnUse">
<stop stop-color="#FFDA1C"/>
<stop offset="1" stop-color="#FEB705"/>
</linearGradient>
<linearGradient id="paint2_linear_1_12" x1="71.5653" y1="73.0436" x2="-5.22568" y2="202.31" gradientUnits="userSpaceOnUse">
<stop stop-color="#D9414F"/>
<stop offset="1" stop-color="#8C193F"/>
</linearGradient>
<linearGradient id="paint3_linear_1_12" x1="-12.9448" y1="-33.584" x2="21.3121" y2="24.1541" gradientUnits="userSpaceOnUse">
<stop stop-color="#33C481"/>
<stop offset="1" stop-color="#61E3A7"/>
</linearGradient>
</defs>
</svg>
