<svg width="1340" height="457" viewBox="0 0 1340 457" fill="none" xmlns="http://www.w3.org/2000/svg">
<g clip-path="url(#clip0_133_10951)">
<path d="M396.229 277.854H352.14V305.377H396.229V277.854Z" fill="#DDB99F"/>
<path d="M396.456 203.155H352.969V279.964H396.456V203.155Z" fill="#BFA08C"/>
<path d="M352.478 264.302H269.871V304.814H352.478V264.302Z" fill="#BFA08C"/>
<path d="M352.855 136.965H228.004V280.905H352.855V136.965Z" fill="#DDB99F"/>
<path d="M281.733 100.145H279.7H206.205V137.457H279.7H281.733H353.27V100.145H281.733Z" fill="#313131"/>
<path d="M396.304 113.925H352.779V205.003H396.304V113.925Z" fill="#313131"/>
<path d="M271.453 369.537H146V642.319C146 642.319 522.737 640.098 524.996 642.319C527.255 644.541 524.996 369.537 524.996 369.537H271.453Z" fill="#B94F49"/>
<path d="M437.683 369.651H227.891V641.191H437.683V369.651Z" fill="#B94F49"/>
<path d="M294.384 223.036H210.61V245.777H294.384V223.036Z" fill="#313131"/>
<path d="M269.646 245.777H219.607V264.979H269.646V245.777Z" fill="#313131"/>
<path d="M269.646 281.131H227.665V304.663H269.646V281.131Z" fill="#313131"/>
<path d="M286.174 245.777H269.646V281.508H286.174V245.777Z" fill="#313131"/>
<path d="M262.869 281.281H237.53V317.577H262.869V281.281Z" fill="#313131"/>
<path d="M355.454 346.494H311.101V387.647H355.454V346.494Z" fill="#B94F49"/>
<path d="M260.648 178.983H236.514V245.212H260.648V178.983Z" fill="#BFA08C"/>
<path d="M280.376 143.932H223.222V160.724H280.376V143.932Z" fill="#313131"/>
<path d="M278.607 162.419H262.342V178.684H278.607V162.419Z" fill="#313131"/>
<path d="M235.385 162.419H227.854V178.684H235.385V162.419Z" fill="#313131"/>
<path d="M391.673 42.877H222.582V114.414H391.673V42.877Z" fill="#B94F49"/>
<path d="M225.293 79.9248H166.105V114.413H225.293V79.9248Z" fill="#B94F49"/>
<path d="M436.667 79.9248H377.141V114.413H436.667V79.9248Z" fill="#B94F49"/>
<path d="M277.44 42.4619H222.582V97.3196H277.44V42.4619Z" fill="#FFBC00"/>
<path d="M383.842 21H238.547V43.5907H383.842V21Z" fill="#B94F49"/>
<path d="M311.853 305.04L270.7 304.287L270.587 347.059V369.536H396.455V304.927H352.704V346.306H311.965L311.853 305.04Z" fill="#B94F49"/>
<path d="M355.642 304.964H311.101V346.455H355.642V304.964Z" fill="#DDB99F"/>
<path d="M479.513 432.827H437.983V732.718H479.513V432.827Z" fill="#A5312F"/>
<path d="M734.34 156.103H706.892V173.671H734.34V156.103Z" fill="#E2E2E2"/>
<path d="M755.747 267.734H445.629V671.674H755.747V267.734Z" fill="#433D4F"/>
<path d="M745.044 278.652H717.722V497.748H745.044V278.652Z" fill="#2A2633"/>
<path d="M676.429 279.413H629.486V576.712H676.429V279.413Z" fill="#2A2633"/>
<path d="M641.368 293.84H531.94V334.107H641.368V293.84Z" fill="#A5A5A5"/>
<path d="M427.604 128.654H411.961V212.229H427.604V128.654Z" fill="#6A6572"/>
<path d="M700.85 111.237H672.856V222.995H700.85V111.237Z" fill="#6A6572"/>
<path d="M447.226 111.237H419.232V222.995H447.226V111.237Z" fill="#5A5663"/>
<path d="M646.789 226.72H603.52V253.738H646.789V226.72Z" fill="#D6AB8E"/>
<path d="M647.346 153.658H604.495V228.759H647.346V153.658Z" fill="#BFA08C"/>
<path d="M603.406 213.47H523.226V252.179H603.406V213.47Z" fill="#BFA08C"/>
<path d="M604.406 88.9316H482.3V229.722H604.406V88.9316Z" fill="#D6AB8E"/>
<path d="M541.604 63.4336H539.983H481.957V102.713H539.983H541.604H598.06V63.4336H541.604Z" fill="#313131"/>
<path d="M646.902 51.1846H603.278V155.457H646.902V51.1846Z" fill="#313131"/>
<path d="M563.467 250.862L523.225 250.114L523.124 293.548V316.399H646.231V250.773H603.405V292.776H563.569L563.467 250.862Z" fill="white"/>
<path d="M523.124 324.228H400.435V623.528C400.435 623.528 768.921 621.071 771.112 623.528C773.303 625.986 771.112 324.228 771.112 324.228H523.124Z" fill="white"/>
<path d="M596.325 340.707H567.318V588.467H596.325V340.707Z" fill="#E2E2E2"/>
<path d="M539.172 195.356H523.01V229.936H539.172V195.356Z" fill="#313131"/>
<path d="M611.968 293.84H554.373V332.676H611.968V293.84Z" fill="#E2E2E2"/>
<path d="M603.431 250.52H559.857V298.273H603.431V250.52Z" fill="white"/>
<path d="M603.595 63.8516H570.877V200.386H603.595V63.8516Z" fill="#DDB99F"/>
<path d="M523.124 229.531H483.186V251.761H523.124V229.531Z" fill="#313131"/>
<path d="M514.624 130.022H491.014V194.8H514.624V130.022Z" fill="#BFA08C"/>
<path d="M533.89 95.7207H478.005V112.149H533.89V95.7207Z" fill="#313131"/>
<path d="M532.181 113.834H516.259V129.756H532.181V113.834Z" fill="#313131"/>
<path d="M489.899 113.834H482.527V129.756H489.899V113.834Z" fill="#313131"/>
<path d="M523.01 173.102H474.066V195.357H523.01V173.102Z" fill="#313131"/>
<path d="M683.218 71.0713H431.658V260.362H683.218V71.0713Z" fill="#E2E2E2"/>
<path d="M481.818 378.276H441.196V602.274H481.818V378.276Z" fill="#E2E2E2"/>
<path d="M728.299 378.276H687.677V603.439H728.299V378.276Z" fill="#E2E2E2"/>
<path d="M771.67 382.278H734.886V397.098H771.67V382.278Z" fill="#FFBC00"/>
<path d="M660.127 49.6016H452.735V89.6789H660.127V49.6016Z" fill="#E2E2E2"/>
<path d="M647.422 35.8965H474.129V64.3712H647.422V35.8965Z" fill="#E2E2E2"/>
<path d="M626.75 21H491.394V52.35H626.75V21Z" fill="#E2E2E2"/>
<path d="M454.091 274.067H660.127V233.99L454.091 233.99V274.067Z" fill="#E2E2E2"/>
<path d="M472.192 287.785H646.308V259.31H472.192V287.785Z" fill="#E2E2E2"/>
<path d="M491.66 302.669H629.815V271.319H491.66V302.669Z" fill="#E2E2E2"/>
<path d="M617.82 302.44H522.655V316.64H617.82V302.44Z" fill="#A5A5A5"/>
<path d="M522.718 286.228H491.457V302.682H522.718V286.228Z" fill="#A5A5A5"/>
<path d="M488.493 262.718H472.204V287.772H488.493V262.718Z" fill="#A5A5A5"/>
<path d="M472.495 251.115H452.988V274.371H472.495V251.115Z" fill="#A5A5A5"/>
<path d="M453.293 71.0967H431.582V260.4H453.293V71.0967Z" fill="#A5A5A5"/>
<path d="M511.458 272.763H487.848V287.861H511.458V272.763Z" fill="#A5A5A5"/>
<path d="M471.634 71.0078H451.899V89.8811H471.634V71.0078Z" fill="#A5A5A5"/>
<path d="M474.395 59.7852H452.735V71.2865H474.395V59.7852Z" fill="#A5A5A5"/>
<path d="M489.874 59.8867H469.189V71.5527H489.874V59.8867Z" fill="#A5A5A5"/>
<path d="M489.874 49.0566H473.585V59.8993H489.874V49.0566Z" fill="#A5A5A5"/>
<path d="M667.094 90.1097H647.182V71.8317H636.238V60.1657H618.403V47.4863H501.73V60.1657H486.86V71.8317H468.417V90.1097H450.253V251.255H469.582V262.921H485.188V274.6H501.971V287.279H621.05V274.6H635.883V262.921H647.182V251.255H667.094V90.1097Z" fill="#313131"/>
<path d="M647.182 90.1097V71.8317H636.238V60.1657H618.403V47.4863H501.73V60.1657H486.86V71.8317H468.417V90.1097H450.253V147.591H467.505V135.925H482.388V123.246H599.061V135.925H616.883V147.591H627.827V165.869H647.739V251.255H667.094V90.1097H647.182Z" fill="#1E1E1E"/>
<path d="M441.601 448.956H400.435V459.824H441.601V448.956Z" fill="#6A6572"/>
<path d="M772.315 448.956H728.577V459.824H772.315V448.956Z" fill="#6A6572"/>
<path d="M621.114 302.402H602.329V316.754H621.114V302.402Z" fill="#E2E2E2"/>
<path d="M501.844 145.944H480.438V167.351H501.844V145.944Z" fill="#1E1E1E"/>
<path d="M475.776 172.024H454.369V193.431H475.776V172.024Z" fill="#1E1E1E"/>
<path d="M619.834 92.9717H600.074V112.732H619.834V92.9717Z" fill="#313131"/>
<path d="M684.928 339.871H607.522V361.278H684.928V339.871Z" fill="#6A6572"/>
<path d="M710.046 128.654H694.402V212.229H710.046V128.654Z" fill="#6A6572"/>
<path d="M558.122 378.162H540.009V396.275H558.122V378.162Z" fill="#6A6572"/>
<path d="M528.47 378.162H510.356V396.275H528.47V378.162Z" fill="#6A6572"/>
<path d="M750.807 173.671H734.341V267.544H750.807V173.671Z" fill="white"/>
<path d="M792.309 154.323H730.976V245.401H792.309V154.323Z" fill="#A5312F"/>
<path d="M779.659 201.799H741.293V276.574H779.659V201.799Z" fill="#313131"/>
<path d="M795.283 111.399H720.019V202.477H795.283V111.399Z" fill="#A5312F"/>
<path d="M903.229 275.332H859.14V302.855H903.229V275.332Z" fill="#DDB99F"/>
<path d="M903.456 200.633H859.969V277.441H903.456V200.633Z" fill="#BFA08C"/>
<path d="M859.479 261.779H776.872V302.292H859.479V261.779Z" fill="#BFA08C"/>
<path d="M859.854 134.442H735.003V278.383H859.854V134.442Z" fill="#DDB99F"/>
<path d="M802.287 92.5742H799.011H681.163V134.932H799.011H802.287H916.897V92.5742H802.287Z" fill="#B94F49"/>
<path d="M813.996 56.3535H811.662H726.646V98.7486H811.662H813.996H896.716V56.3535H813.996Z" fill="#B94F49"/>
<path d="M780.486 56.3535H779.658H750.215V98.7486H779.658H780.486H809.139V56.3535H780.486Z" fill="white"/>
<path d="M814.787 39.5244H812.904H745.17V70.0971H812.904H814.787H880.714V39.5244H814.787Z" fill="#B94F49"/>
<path d="M811.699 21H810.382H763.694V59.1782H810.382H811.699H857.144V21H811.699Z" fill="#B94F49"/>
<path d="M935.044 111.399H859.779V202.477H935.044V111.399Z" fill="#B94F49"/>
<path d="M932.146 154.323H874.954V245.401H932.146V154.323Z" fill="#B94F49"/>
<path d="M923.636 201.799H885.27V276.574H923.636V201.799Z" fill="#B94F49"/>
<path d="M778.453 367.015H653V557.303C653 557.303 1029.74 555.722 1032 557.303C1034.26 558.885 1032 367.015 1032 367.015H778.453Z" fill="#B94F49"/>
<path d="M944.684 367.125H734.892V638.665H944.684V367.125Z" fill="#B94F49"/>
<path d="M776.647 243.256H729.207V262.458H776.647V243.256Z" fill="#604925"/>
<path d="M776.646 278.608H734.665V302.14H776.646V278.608Z" fill="#604925"/>
<path d="M793.174 243.256H776.646V278.987H793.174V243.256Z" fill="#604925"/>
<path d="M862.454 343.972H818.101V385.124H862.454V343.972Z" fill="#B94F49"/>
<path d="M767.648 176.462H743.514V235.687H767.648V176.462Z" fill="#D8988D"/>
<path d="M744.869 141.41H731.955V152.065H744.869V141.41Z" fill="#604925"/>
<path d="M787.34 141.41H763.959V152.065H787.34V141.41Z" fill="#604925"/>
<path d="M785.57 159.894H769.305V176.159H785.57V159.894Z" fill="#4F381A"/>
<path d="M742.385 159.894H734.854V176.159H742.385V159.894Z" fill="#4F381A"/>
<path d="M818.853 302.519L777.7 301.766L777.587 344.537V367.015H903.455V302.406H859.704V343.747H818.965L818.853 302.519Z" fill="#DDB99F"/>
<path d="M862.642 302.442H818.101V343.934H862.642V302.442Z" fill="#DDB99F"/>
<path d="M735.645 430.305H692.986V730.196H735.645V430.305Z" fill="#A5312F"/>
<path d="M987.455 430.305H943.366V730.196H987.455V430.305Z" fill="#A5312F"/>
<path d="M917.725 161.89H889.11V198.637H917.725V161.89Z" fill="white"/>
<path d="M862.189 92.5742H703.038V116.144H862.189V92.5742Z" fill="#A5312F"/>
<path d="M880.676 39.5244H855.713V64.4871H880.676V39.5244Z" fill="#A5312F"/>
<path d="M896.414 56.3535H871.452V81.3162H896.414V56.3535Z" fill="#A5312F"/>
<path d="M917.461 92.5742H892.498V117.537H917.461V92.5742Z" fill="#A5312F"/>
<path d="M857.144 359.709H815.615V401.238H857.144V359.709Z" fill="#DDB99F"/>
<path d="M752.172 367.015H740.952V402.407H752.172V367.015Z" fill="white"/>
<path d="M763.129 402.254H751.909V420.477H763.129V402.254Z" fill="white"/>
<path d="M774.048 420.216H762.828V438.891H774.048V420.216Z" fill="white"/>
<path d="M785.156 438.739H773.936V730.611H785.156V438.739Z" fill="white"/>
<path d="M922.694 402.441H933.914V367.049H922.694V402.441Z" fill="white"/>
<path d="M911.7 420.439H922.92V402.216H911.7V420.439Z" fill="white"/>
<path d="M900.782 438.854H912.002V420.179H900.782V438.854Z" fill="white"/>
<path d="M889.713 730.572H900.933V438.701H889.713V730.572Z" fill="white"/>
<path d="M1121.23 298.755H1077.14V326.278H1121.23V298.755Z" fill="#DDB99F"/>
<path d="M1121.46 224.056H1077.97V300.864H1121.46V224.056Z" fill="#BFA08C"/>
<path d="M1077.93 285.202H994.872V325.715H1077.93V285.202Z" fill="#BFA08C"/>
<path d="M1077.85 134.446H953.003V301.805H1077.85V134.446Z" fill="#DDB99F"/>
<path d="M1007.3 121.041H1005.83H953.079V158.353H1005.83H1007.3H1058.61V121.041H1007.3Z" fill="#313131"/>
<path d="M1121.3 134.822H1077.78V225.9H1121.3V134.822Z" fill="#313131"/>
<path d="M996.453 391.717H871V568.075C871 568.075 1247.74 566.644 1250 568.075C1252.26 569.505 1250 391.717 1250 391.717H996.453Z" fill="white"/>
<path d="M1162.68 389.908H952.891V662.126H1162.68V389.908Z" fill="white"/>
<path d="M1007.26 302.031H952.665V325.488H1007.26V302.031Z" fill="#BFA08C"/>
<path d="M1080.45 367.395H1036.1V411.107H1080.45V367.395Z" fill="#DDB99F"/>
<path d="M985.648 200.748H961.1V270.478H985.648V200.748Z" fill="#BFA08C"/>
<path d="M1019.8 167.277H948.222V181.622H1019.8V167.277Z" fill="#313131"/>
<path d="M1018.97 188.552H985.836V214.757H1018.97V188.552Z" fill="#313131"/>
<path d="M1007.94 202.219H994.796V214.757H1007.94V202.219Z" fill="#424242"/>
<path d="M1018.89 188.552H1007.94V201.956H1018.89V188.552Z" fill="#1E1E1E"/>
<path d="M961.061 188.552H947.808V214.757H961.061V188.552Z" fill="#313131"/>
<path d="M950.03 202.219H947.808V214.757H950.03V202.219Z" fill="#424242"/>
<path d="M960.987 188.552H950.031V201.956H960.987V188.552Z" fill="#1E1E1E"/>
<path d="M1120.85 63.7734H934.97V135.311H1120.85V63.7734Z" fill="#1E1E1E"/>
<path d="M1111.33 14H943.59V37.2307H1111.33V14Z" fill="#1E1E1E"/>
<path d="M1036.85 325.94L995.7 325.225L995.587 367.959V390.436H1121.45V325.865H1077.7V367.206H1036.97L1036.85 325.94Z" fill="#DDB99F"/>
<path d="M1080.64 325.864H1036.1V367.356H1080.64V325.864Z" fill="#DDB99F"/>
<path d="M1118.07 25.8984H925.256V67.4276H1118.07V25.8984Z" fill="#1E1E1E"/>
<path d="M1121.15 63.9609H935.007V96.0773H1121.15V63.9609Z" fill="white"/>
<path d="M986.439 188.552H958.427V201.466H986.439V188.552Z" fill="#1E1E1E"/>
<path d="M1080.19 418.636H1035.87V649.06H1080.19V418.636Z" fill="#313131"/>
<path d="M1080.23 398.868H1035.87V438.741H1080.23V398.868Z" fill="#1E1E1E"/>
<path d="M1017.69 257.718H952.816V270.632H1017.69V257.718Z" fill="#313131"/>
<path d="M996.566 301.844H953.003V325.376H996.566V301.844Z" fill="#313131"/>
<path d="M952.666 63.7734H934.97V80.227H952.666V63.7734Z" fill="#1E1E1E"/>
<path d="M989.074 63.7734H971.378V80.227H989.074V63.7734Z" fill="#1E1E1E"/>
<path d="M1025.48 63.7734H1007.79V80.227H1025.48V63.7734Z" fill="#1E1E1E"/>
<path d="M1061.89 63.7734H1044.19V80.227H1061.89V63.7734Z" fill="#1E1E1E"/>
<path d="M1098.3 63.7734H1080.6V80.227H1098.3V63.7734Z" fill="#1E1E1E"/>
<path d="M970.626 80.415H952.854V96.8686H970.626V80.415Z" fill="#1E1E1E"/>
<path d="M1007.18 80.415H989.414V96.8686H1007.18V80.415Z" fill="#1E1E1E"/>
<path d="M1043.74 80.415H1025.97V96.8686H1043.74V80.415Z" fill="#1E1E1E"/>
<path d="M1080.3 80.415H1062.53V96.8686H1080.3V80.415Z" fill="#1E1E1E"/>
<path d="M1116.86 80.415H1099.09V96.8686H1116.86V80.415Z" fill="#1E1E1E"/>
<path d="M1121.23 63.7734H1117.01V80.227H1121.23V63.7734Z" fill="#1E1E1E"/>
<path d="M983.237 55.041H943.59V97.7374H983.237V55.041Z" fill="#7F7F7F"/>
<path d="M1121.23 96.2666H891.105V135.311H1121.23V96.2666Z" fill="#1E1E1E"/>
<path d="M1095.36 96.2666H912.379V118.217H1095.36V96.2666Z" fill="#313131"/>
<path d="M1035.84 389.908H995.587V398.907H1035.84V389.908Z" fill="#E0E0E0"/>
<path d="M1121.31 389.908H1079.85V398.907H1121.31V389.908Z" fill="#E0E0E0"/>
<path d="M1023.34 423.529H996.19V457.114H1023.34V423.529Z" fill="#424242"/>
<path d="M1124.84 425.265H1092.58V459.414H1124.84V425.265Z" fill="#424242"/>
<path d="M1203.5 389.908H1121.38V425.752H1203.5V389.908Z" fill="#424242"/>
<path d="M996.303 423.569H940.881V678.957H996.303V423.569Z" fill="#424242"/>
<path d="M1176.09 425.489H1120.21V678.919H1176.09V425.489Z" fill="#424242"/>
<path d="M1127.03 678.654V453.613H1083.58V472.552H1074.54V498.832H1042.76V472.552H1032.45V453.613H995.55V678.654H1127.03Z" fill="#424242"/>
<path d="M995.475 389.908H908.727V425.15H995.475V389.908Z" fill="#424242"/>
<path d="M940.993 453.728H910.721V678.392H940.993V453.728Z" fill="#282828"/>
<path d="M1205.76 453.728H1175.82V678.655H1205.76V453.728Z" fill="#282828"/>
<rect x="70" y="440" width="1200" height="17" fill="#F5F5F7"/>
<path d="M228 413H186V455H228V413Z" fill="#A5312F"/>
<path d="M149.407 415H128V436.407H149.407V415Z" fill="#B94F49"/>
<path d="M149.407 415H128V436.407H149.407V415Z" fill="#B94F49"/>
<path d="M149.407 415H128V436.407H149.407V415Z" fill="#B94F49"/>
<path d="M149.407 415H128V436.407H149.407V415Z" fill="#B94F49"/>
<path d="M170.407 426H149V447.407H170.407V426Z" fill="#B94F49"/>
<path d="M170.407 426H149V447.407H170.407V426Z" fill="#B94F49"/>
<path d="M170.407 426H149V447.407H170.407V426Z" fill="#B94F49"/>
<path d="M170.407 426H149V447.407H170.407V426Z" fill="#B94F49"/>
<path d="M180.407 405H159V426.407H180.407V405Z" fill="#A5312F"/>
<path d="M159.407 432H138V453.407H159.407V432Z" fill="#A5312F"/>
<path d="M711 413H669V455H711V413Z" fill="#A5312F"/>
<path d="M653.407 426H632V447.407H653.407V426Z" fill="#B94F49"/>
<path d="M653.407 426H632V447.407H653.407V426Z" fill="#B94F49"/>
<path d="M653.407 426H632V447.407H653.407V426Z" fill="#B94F49"/>
<path d="M653.407 426H632V447.407H653.407V426Z" fill="#B94F49"/>
<path d="M663.407 405H642V426.407H663.407V405Z" fill="#A5312F"/>
<path d="M642.407 432H621V453.407H642.407V432Z" fill="#A5312F"/>
<path d="M787 413H829V455H787V413Z" fill="#A5312F"/>
<path d="M844.593 426H866V447.407H844.593V426Z" fill="#B94F49"/>
<path d="M844.593 426H866V447.407H844.593V426Z" fill="#B94F49"/>
<path d="M844.593 426H866V447.407H844.593V426Z" fill="#B94F49"/>
<path d="M844.593 426H866V447.407H844.593V426Z" fill="#B94F49"/>
<path d="M834.593 405H856V426.407H834.593V405Z" fill="#A5312F"/>
<path d="M855.593 432H877V453.407H855.593V432Z" fill="#A5312F"/>
<path d="M1148 413H1190V455H1148V413Z" fill="#1E1E1E"/>
<path d="M1205.59 426H1227V447.407H1205.59V426Z" fill="#424242"/>
<path d="M1205.59 426H1227V447.407H1205.59V426Z" fill="#424242"/>
<path d="M1205.59 426H1227V447.407H1205.59V426Z" fill="#424242"/>
<path d="M1205.59 426H1227V447.407H1205.59V426Z" fill="#424242"/>
<path d="M1195.59 405H1217V426.407H1195.59V405Z" fill="#1E1E1E"/>
<path d="M1216.59 432H1238V453.407H1216.59V432Z" fill="#1E1E1E"/>
<path d="M1262 426H1283.41V447.407H1262V426Z" fill="#424242"/>
<path d="M1262 426H1283.41V447.407H1262V426Z" fill="#424242"/>
<path d="M1262 426H1283.41V447.407H1262V426Z" fill="#424242"/>
<path d="M1262 426H1283.41V447.407H1262V426Z" fill="#424242"/>
<path d="M1273 432H1294.41V453.407H1273V432Z" fill="#1E1E1E"/>
<path d="M336 405H378V447H336V405Z" fill="#A5312F"/>
<path d="M393.593 426H415V447.407H393.593V426Z" fill="#B94F49"/>
<path d="M393.593 426H415V447.407H393.593V426Z" fill="#B94F49"/>
<path d="M393.593 426H415V447.407H393.593V426Z" fill="#B94F49"/>
<path d="M393.593 426H415V447.407H393.593V426Z" fill="#B94F49"/>
<path d="M383.593 405H405V426.407H383.593V405Z" fill="#A5312F"/>
<path d="M305 426H326.406V447.407H305V426Z" fill="#B94F49"/>
<path d="M279 434H300.406V455.407H279V434Z" fill="#B94F49"/>
<path d="M404.593 432H426V453.407H404.593V432Z" fill="#A5312F"/>
<path d="M462 405H504V447H462V405Z" fill="#E2E2E2"/>
<path d="M496 419H517.406V440.407H496V419Z" fill="#6A6572"/>
<path d="M430 432H451.406V453.407H430V432Z" fill="#E2E2E2"/>
<path d="M530.593 432H552V453.407H530.593V432Z" fill="#E2E2E2"/>
<path d="M159.407 394H138V415.407H159.407V394Z" fill="#B94F49"/>
<path d="M159.407 394H138V415.407H159.407V394Z" fill="#B94F49"/>
<path d="M159.407 394H138V415.407H159.407V394Z" fill="#B94F49"/>
<path d="M159.407 394H138V415.407H159.407V394Z" fill="#B94F49"/>
<path d="M128.407 436H107V457.407H128.407V436Z" fill="#B94F49"/>
<path d="M128.407 436H107V457.407H128.407V436Z" fill="#B94F49"/>
<path d="M128.407 436H107V457.407H128.407V436Z" fill="#B94F49"/>
<path d="M128.407 436H107V457.407H128.407V436Z" fill="#B94F49"/>
<path d="M118.407 415H97V436.407H118.407V415Z" fill="#B94F49"/>
<path d="M118.407 415H97V436.407H118.407V415Z" fill="#B94F49"/>
<path d="M118.407 415H97V436.407H118.407V415Z" fill="#B94F49"/>
<path d="M118.407 415H97V436.407H118.407V415Z" fill="#B94F49"/>
<path d="M101.407 415H80V436.407H101.407V415Z" fill="#B94F49"/>
<path d="M101.407 415H80V436.407H101.407V415Z" fill="#B94F49"/>
<path d="M101.407 415H80V436.407H101.407V415Z" fill="#B94F49"/>
<path d="M101.407 415H80V436.407H101.407V415Z" fill="#B94F49"/>
</g>
<defs>
<clipPath id="clip0_133_10951">
<rect width="1340" height="457" fill="white"/>
</clipPath>
</defs>
</svg>
