<svg width="329" height="92" viewBox="0 0 329 92" fill="none" xmlns="http://www.w3.org/2000/svg">
<path d="M106.5 42V49H48V53H69.5V69.5H152.5V88H213.5V42H259.5V38H199.5V16.5H106.5V42.2436M195.5 38V20.5H110.5V38H156.5V65.5H175.5V38H195.5ZM179.5 42V69.5H156.5V84H209.5V42H179.5ZM110.5 42H152.5V65.5H73.5V53H110.5V42Z" stroke="#1D1D1F"/>
<rect x="93.5" y="16" width="8" height="8" fill="#1D1D1F"/>
<rect x="140" y="74.5" width="7" height="7" stroke="#1D1D1F"/>
<rect width="40" height="40" transform="matrix(0.866025 -0.5 2.20305e-08 1 293.641 40)" fill="url(#paint0_linear_140_12422)"/>
<rect width="40" height="40" transform="matrix(0.866025 0.5 -2.20305e-08 1 259 20)" fill="url(#paint1_linear_140_12422)"/>
<g style="mix-blend-mode:darken">
<rect width="40" height="40" transform="matrix(0.866025 -0.5 0.866025 0.5 259 20)" fill="url(#paint2_linear_140_12422)"/>
</g>
<g style="mix-blend-mode:screen" opacity="0.4">
<rect width="40" height="40" transform="matrix(0.866025 -0.5 0.866025 0.5 259.129 34.7744)" fill="url(#paint3_linear_140_12422)"/>
</g>
<g style="mix-blend-mode:screen" opacity="0.4">
<rect width="40" height="40" transform="matrix(0.866025 -0.5 0.866025 0.5 259.129 49.1504)" fill="url(#paint4_linear_140_12422)"/>
</g>
<path fill-rule="evenodd" clip-rule="evenodd" d="M29 11C30.3374 11 31.5863 11.6684 32.3282 12.7812L56.3282 48.7812C57.2239 50.1248 57.2239 51.8752 56.3282 53.2188L32.3282 89.2188C31.5863 90.3316 30.3374 91 29 91C27.6626 91 26.4136 90.3316 25.6718 89.2188L1.6718 53.2188C0.776067 51.8752 0.776067 50.1248 1.6718 48.7812L25.6718 12.7812C26.4136 11.6684 27.6626 11 29 11ZM9.8074 51L29 79.7889L48.1926 51L29 22.2111L9.8074 51Z" stroke="black" stroke-width="1.33333" stroke-linecap="round" stroke-linejoin="round"/>
<path fill-rule="evenodd" clip-rule="evenodd" d="M27.2112 35.4223C28.3373 34.8592 29.6628 34.8592 30.7889 35.4223L54.7889 47.4223C56.2359 48.1458 57.1047 49.6698 56.99 51.2835C56.8753 52.8973 55.7998 54.2831 54.2649 54.7947L30.2649 62.7947C29.4439 63.0684 28.5562 63.0684 27.7351 62.7947L3.73514 54.7947C2.20031 54.2831 1.1248 52.8973 1.01011 51.2835C0.895425 49.6698 1.76415 48.1458 3.21119 47.4223L27.2112 35.4223ZM15.4263 50.259L29 54.7836L42.5738 50.259L29 43.4721L15.4263 50.259Z" fill="#F5F5F7" stroke="black" stroke-width="1.33333" stroke-linecap="round" stroke-linejoin="round"/>
<defs>
<linearGradient id="paint0_linear_140_12422" x1="47.514" y1="20.9819" x2="5.23118" y2="51.1246" gradientUnits="userSpaceOnUse">
<stop stop-color="#66B2FF"/>
<stop offset="1" stop-color="#0071E3"/>
</linearGradient>
<linearGradient id="paint1_linear_140_12422" x1="48.0665" y1="-11.306" x2="-19.4923" y2="-7.26327" gradientUnits="userSpaceOnUse">
<stop stop-color="#66B2FF"/>
<stop offset="1" stop-color="#0071E3"/>
</linearGradient>
<linearGradient id="paint2_linear_140_12422" x1="31.8233" y1="31.8233" x2="29.0571" y2="-15.5258" gradientUnits="userSpaceOnUse">
<stop stop-color="#66B2FF"/>
<stop offset="1" stop-color="#0071E3"/>
</linearGradient>
<linearGradient id="paint3_linear_140_12422" x1="31.8233" y1="31.8233" x2="29.0571" y2="-15.5258" gradientUnits="userSpaceOnUse">
<stop stop-color="#66B2FF"/>
<stop offset="1" stop-color="#0071E3"/>
</linearGradient>
<linearGradient id="paint4_linear_140_12422" x1="31.8233" y1="31.8233" x2="29.0571" y2="-15.5258" gradientUnits="userSpaceOnUse">
<stop stop-color="#66B2FF"/>
<stop offset="1" stop-color="#0071E3"/>
</linearGradient>
</defs>
</svg>
