<svg width="720" height="720" viewBox="0 0 720 720" fill="none" xmlns="http://www.w3.org/2000/svg">
<g clip-path="url(#clip0_128_8944)">
<path d="M419.119 260.532H375.487V337H419.119V260.532Z" fill="#BFA08C"/>
<path d="M420.28 335.91H376.874V360.725H420.28V335.91Z" fill="#DDB99F"/>
<path d="M376.612 319.756H295.009V360.089H376.612V319.756Z" fill="#BFA08C"/>
<path d="M377.624 192.983H253.327V336.285H377.624V192.983Z" fill="#DDB99F"/>
<path d="M314.388 153.626H312.664H250.253V194.071H312.664H314.388H376.836V153.626H314.388Z" fill="#313131"/>
<path d="M419.269 170.87H376.462V260.682H419.269V170.87Z" fill="#313131"/>
<path d="M378.299 359.15H336.054V401.545H378.299V359.15Z" fill="#DDB99F"/>
<path d="M335.942 360.8L295.009 360.088L294.897 402.295V424.523H420.206V360.725H376.612V401.545H336.054L335.942 360.8Z" fill="#B94F49"/>
<path d="M296.546 424.524H171.687V696.096C171.687 696.096 546.751 693.847 549 696.096C551.249 698.345 549 424.524 549 424.524H296.546Z" fill="#B94F49"/>
<path d="M211.495 696.093H170V737.588H211.495V696.093Z" fill="#DDB99F"/>
<path d="M546.189 696.093H504.694V737.588H546.189V696.093Z" fill="#DDB99F"/>
<path d="M504.732 689.646H211.495V737.589H504.732V689.646Z" fill="#B94F49"/>
<path d="M252.84 487.496H211.495V735.453H252.84V487.496Z" fill="#A5312F"/>
<path d="M503.72 487.496H462.375V735.453H503.72V487.496Z" fill="#A5312F"/>
<path d="M367.391 426.321H344.413V696.656H367.391V426.321Z" fill="#A5312F"/>
<path d="M286.5 234.816H262.473V300.751H286.5V234.816Z" fill="#BFA08C"/>
<path d="M306.141 199.88H249.241V212.437H306.141V199.88Z" fill="#313131"/>
<path d="M304.38 218.322H288.187V234.515H304.38V218.322Z" fill="#313131"/>
<path d="M261.349 218.322H253.852V234.515H261.349V218.322Z" fill="#313131"/>
<path d="M445.807 487.569H388.457V503.5H445.807V487.569Z" fill="white"/>
<path d="M418.706 109.995H249.878V172.856H418.706V109.995Z" fill="#B94F49"/>
<path d="M408.772 98H258.687V117.867H408.772V98Z" fill="#B94F49"/>
<path d="M419.306 143.694H249.616V158.388H419.306V143.694Z" fill="#FFBC00"/>
<path d="M283.764 417.327H206.66V440.23H283.764V417.327Z" fill="#FFBC00"/>
<path d="M507.843 417.327H430.739V440.23H507.843V417.327Z" fill="#FFBC00"/>
</g>
<defs>
<clipPath id="clip0_128_8944">
<rect width="720" height="720" fill="white"/>
</clipPath>
</defs>
</svg>
