<svg width="1067" height="1067" viewBox="0 0 1067 1067" fill="none" xmlns="http://www.w3.org/2000/svg">
<g clip-path="url(#clip0_142_7235)">
<rect width="74.9496" height="74.9496" transform="matrix(0.866025 -0.5 2.20305e-08 1 533.597 194.121)" fill="url(#paint0_linear_142_7235)"/>
<rect width="74.9496" height="74.9496" transform="matrix(0.866025 0.5 -2.20305e-08 1 468.689 156.646)" fill="url(#paint1_linear_142_7235)"/>
<g style="mix-blend-mode:darken">
<rect width="74.9496" height="74.9496" transform="matrix(0.866025 -0.5 0.866025 0.5 468.689 156.646)" fill="url(#paint2_linear_142_7235)"/>
</g>
<g style="mix-blend-mode:screen" opacity="0.4">
<rect width="74.9496" height="74.9496" transform="matrix(0.866025 -0.5 0.866025 0.5 468.931 184.33)" fill="url(#paint3_linear_142_7235)"/>
</g>
<g style="mix-blend-mode:screen" opacity="0.4">
<rect width="74.9496" height="74.9496" transform="matrix(0.866025 -0.5 0.866025 0.5 468.931 211.267)" fill="url(#paint4_linear_142_7235)"/>
</g>
<rect width="108.244" height="107.986" transform="matrix(0.866025 -0.5 0.866025 0.5 440 140.122)" stroke="#1D1D1F" stroke-linejoin="bevel"/>
<rect width="107.986" height="108.763" transform="matrix(0.866025 -0.5 2.20305e-08 1 534.035 194.114)" stroke="#1D1D1F" stroke-linejoin="bevel"/>
<path d="M440 140.768L533.002 194.462L533.002 302.358L440 248.663L440 140.768Z" stroke="#1D1D1F" stroke-linejoin="round"/>
<rect width="74.9496" height="74.9496" transform="matrix(0.866025 -0.5 2.20305e-08 1 533.597 872.121)" fill="url(#paint5_linear_142_7235)"/>
<rect width="74.9496" height="74.9496" transform="matrix(0.866025 0.5 -2.20305e-08 1 468.689 834.646)" fill="url(#paint6_linear_142_7235)"/>
<g style="mix-blend-mode:darken">
<rect width="74.9496" height="74.9496" transform="matrix(0.866025 -0.5 0.866025 0.5 468.689 834.646)" fill="url(#paint7_linear_142_7235)"/>
</g>
<g style="mix-blend-mode:screen" opacity="0.4">
<rect width="74.9496" height="74.9496" transform="matrix(0.866025 -0.5 0.866025 0.5 468.931 862.33)" fill="url(#paint8_linear_142_7235)"/>
</g>
<g style="mix-blend-mode:screen" opacity="0.4">
<rect width="74.9496" height="74.9496" transform="matrix(0.866025 -0.5 0.866025 0.5 468.931 889.267)" fill="url(#paint9_linear_142_7235)"/>
</g>
<rect width="108.244" height="107.986" transform="matrix(0.866025 -0.5 0.866025 0.5 440 818.122)" stroke="#1D1D1F" stroke-linejoin="bevel"/>
<rect width="107.986" height="108.763" transform="matrix(0.866025 -0.5 2.20305e-08 1 534.035 872.114)" stroke="#1D1D1F" stroke-linejoin="bevel"/>
<path d="M440 818.768L533.002 872.462L533.002 980.358L440 926.663L440 818.768Z" stroke="#1D1D1F" stroke-linejoin="round"/>
<rect width="74.9496" height="74.9496" transform="matrix(0.866025 0.5 -2.20305e-08 1 129.689 495.646)" fill="url(#paint10_linear_142_7235)"/>
<rect width="108.244" height="107.986" transform="matrix(0.866025 -0.5 0.866025 0.5 101 479.122)" stroke="#1D1D1F" stroke-linejoin="bevel"/>
<path d="M195 425V248.5H440" stroke="#1D1D1F"/>
<path d="M195 642V818.5H440" stroke="#1D1D1F"/>
<path d="M873 642V818.5H628" stroke="#1D1D1F"/>
<path d="M873 426V249H628" stroke="#1D1D1F"/>
<rect width="107.986" height="108.763" transform="matrix(0.866025 -0.5 2.20305e-08 1 195.035 533.114)" stroke="#1D1D1F" stroke-linejoin="bevel"/>
<path d="M101 479.768L194.002 533.462L194.002 641.358L101 587.663L101 479.768Z" fill="#1D1D1F" stroke="#1D1D1F" stroke-linejoin="round"/>
<rect width="108.244" height="107.986" transform="matrix(0.866025 -0.5 0.866025 0.5 779 479.122)" stroke="#1D1D1F" stroke-linejoin="bevel"/>
<rect width="107.986" height="108.763" transform="matrix(0.866025 -0.5 2.20305e-08 1 873.035 533.114)" stroke="#1D1D1F" stroke-linejoin="bevel"/>
<path d="M779 479.768L872.002 533.462L872.002 641.358L779 587.663L779 479.768Z" fill="#1D1D1F" stroke="#1D1D1F" stroke-linejoin="round"/>
<path d="M370 493.62H399.24V599.72V600.72H400.24H428.14H429.14V599.72V466.52V465.52H428.14H370H369V466.52V492.62V493.62H370ZM615.673 466.52V465.52H614.673H585.513H584.513V466.52V599.72V600.72H585.513H614.673H615.673V599.72V574.498L634.352 550.046L662.945 600.215L663.232 600.72H663.813H697.473H699.203L698.34 599.221L654.753 523.479L697.907 467.128L699.139 465.52H697.113H662.733H662.235L661.935 465.918L615.673 527.253V466.52ZM447.934 533.48C447.934 554.255 453.377 571.648 463.533 583.867C473.706 596.107 488.533 603.06 507.074 603.06C525.615 603.06 540.442 596.107 550.616 583.867C560.771 571.648 566.214 554.255 566.214 533.48C566.214 512.687 560.312 495.075 549.94 482.642C539.555 470.194 524.737 463 507.074 463C489.411 463 474.594 470.194 464.209 482.642C453.837 495.075 447.934 512.687 447.934 533.48ZM478.734 533.48C478.734 518.816 481.421 508.07 486.275 501.017C491.09 494.022 498.103 490.56 507.074 490.56C516.046 490.56 523.059 494.022 527.873 501.017C532.727 508.07 535.414 518.816 535.414 533.48C535.414 547.689 532.729 558.209 527.877 565.15C523.063 572.036 516.048 575.5 507.074 575.5C498.101 575.5 491.085 572.036 486.271 565.15C481.419 558.209 478.734 547.689 478.734 533.48Z" stroke="#1D1D1F" stroke-width="2"/>
</g>
<defs>
<linearGradient id="paint0_linear_142_7235" x1="89.0289" y1="39.3146" x2="9.80187" y2="95.7942" gradientUnits="userSpaceOnUse">
<stop stop-color="#66B2FF"/>
<stop offset="1" stop-color="#0071E3"/>
</linearGradient>
<linearGradient id="paint1_linear_142_7235" x1="90.0641" y1="-21.1844" x2="-36.5234" y2="-13.6095" gradientUnits="userSpaceOnUse">
<stop stop-color="#66B2FF"/>
<stop offset="1" stop-color="#0071E3"/>
</linearGradient>
<linearGradient id="paint2_linear_142_7235" x1="59.6287" y1="59.6286" x2="54.4454" y2="-29.0914" gradientUnits="userSpaceOnUse">
<stop stop-color="#66B2FF"/>
<stop offset="1" stop-color="#0071E3"/>
</linearGradient>
<linearGradient id="paint3_linear_142_7235" x1="59.6287" y1="59.6286" x2="54.4454" y2="-29.0914" gradientUnits="userSpaceOnUse">
<stop stop-color="#66B2FF"/>
<stop offset="1" stop-color="#0071E3"/>
</linearGradient>
<linearGradient id="paint4_linear_142_7235" x1="59.6287" y1="59.6286" x2="54.4454" y2="-29.0914" gradientUnits="userSpaceOnUse">
<stop stop-color="#66B2FF"/>
<stop offset="1" stop-color="#0071E3"/>
</linearGradient>
<linearGradient id="paint5_linear_142_7235" x1="89.0289" y1="39.3146" x2="9.80187" y2="95.7942" gradientUnits="userSpaceOnUse">
<stop stop-color="#66B2FF"/>
<stop offset="1" stop-color="#0071E3"/>
</linearGradient>
<linearGradient id="paint6_linear_142_7235" x1="90.0641" y1="-21.1844" x2="-36.5234" y2="-13.6095" gradientUnits="userSpaceOnUse">
<stop stop-color="#66B2FF"/>
<stop offset="1" stop-color="#0071E3"/>
</linearGradient>
<linearGradient id="paint7_linear_142_7235" x1="59.6287" y1="59.6286" x2="54.4454" y2="-29.0914" gradientUnits="userSpaceOnUse">
<stop stop-color="#66B2FF"/>
<stop offset="1" stop-color="#0071E3"/>
</linearGradient>
<linearGradient id="paint8_linear_142_7235" x1="59.6287" y1="59.6286" x2="54.4454" y2="-29.0914" gradientUnits="userSpaceOnUse">
<stop stop-color="#66B2FF"/>
<stop offset="1" stop-color="#0071E3"/>
</linearGradient>
<linearGradient id="paint9_linear_142_7235" x1="59.6287" y1="59.6286" x2="54.4454" y2="-29.0914" gradientUnits="userSpaceOnUse">
<stop stop-color="#66B2FF"/>
<stop offset="1" stop-color="#0071E3"/>
</linearGradient>
<linearGradient id="paint10_linear_142_7235" x1="90.0641" y1="-21.1844" x2="-36.5234" y2="-13.6095" gradientUnits="userSpaceOnUse">
<stop stop-color="#66B2FF"/>
<stop offset="1" stop-color="#0071E3"/>
</linearGradient>
<clipPath id="clip0_142_7235">
<rect width="1067" height="1067" fill="white"/>
</clipPath>
</defs>
</svg>
