<svg width="1067" height="1067" viewBox="0 0 1067 1067" fill="none" xmlns="http://www.w3.org/2000/svg">
<g clip-path="url(#clip0_150_7603)">
<path d="M721 204H825" stroke="black" stroke-width="2"/>
<path d="M721 256L825 256" stroke="black" stroke-width="2"/>
<path d="M721 286L825 286" stroke="black" stroke-width="2"/>
<path d="M721 316L825 316" stroke="black" stroke-width="2"/>
<path d="M721 368L825 368" stroke="black" stroke-width="2"/>
<rect x="160.5" y="151.5" width="746" height="765" stroke="black"/>
<rect width="91.9259" height="91.9259" transform="matrix(0.866025 -0.5 2.20305e-08 1 533.42 325.61)" fill="url(#paint0_linear_150_7603)"/>
<rect width="91.9259" height="91.9259" transform="matrix(0.866025 0.5 -2.20305e-08 1 453.81 279.647)" fill="url(#paint1_linear_150_7603)"/>
<g style="mix-blend-mode:darken">
<rect width="91.9259" height="91.9259" transform="matrix(0.866025 -0.5 0.866025 0.5 453.81 279.647)" fill="url(#paint2_linear_150_7603)"/>
</g>
<g style="mix-blend-mode:screen" opacity="0.4">
<rect width="91.9259" height="91.9259" transform="matrix(0.866025 -0.5 0.866025 0.5 454.107 313.602)" fill="url(#paint3_linear_150_7603)"/>
</g>
<g style="mix-blend-mode:screen" opacity="0.4">
<rect width="91.9259" height="91.9259" transform="matrix(0.866025 -0.5 0.866025 0.5 454.107 346.64)" fill="url(#paint4_linear_150_7603)"/>
</g>
<rect width="132.761" height="132.445" transform="matrix(0.866025 -0.5 0.866025 0.5 418.623 259.381)" stroke="black" stroke-linejoin="bevel"/>
<rect width="132.445" height="133.398" transform="matrix(0.866025 -0.5 2.20305e-08 1 533.957 325.602)" stroke="black" stroke-linejoin="bevel"/>
<path d="M418.623 260.172L532.689 326.028L532.689 458.363L418.623 392.506L418.623 260.172Z" stroke="black" stroke-linejoin="round"/>
<circle cx="263" cy="224" r="20.5" stroke="black"/>
<circle cx="263" cy="286" r="20.5" stroke="black"/>
<circle cx="263" cy="348" r="20.5" fill="black" stroke="black"/>
<circle cx="325" cy="224" r="20.5" stroke="black"/>
<circle cx="325" cy="286" r="20.5" fill="black" stroke="black"/>
<circle cx="325" cy="348" r="20.5" stroke="black"/>
<rect x="160.5" y="516.5" width="333" height="400" stroke="black"/>
<rect x="594.5" y="516.5" width="230" height="31" stroke="black"/>
<rect x="594.5" y="629.5" width="230" height="31" stroke="black"/>
<rect x="594.5" y="740.5" width="230" height="31" stroke="black"/>
<path d="M907 342C940.137 342 967 315.137 967 282C967 248.863 940.137 222 907 222" stroke="black"/>
<path d="M907 402C940.137 402 967 375.137 967 342C967 308.863 940.137 282 907 282" stroke="black"/>
<path d="M160 773C126.863 773 100 746.137 100 713C100 679.863 126.863 653 160 653" stroke="black"/>
<path d="M160 833C126.863 833 100 806.137 100 773C100 739.863 126.863 713 160 713" stroke="black"/>
<circle cx="619.5" cy="453.5" r="5.5" fill="black"/>
<circle cx="607.5" cy="575.5" r="13" stroke="black"/>
<circle cx="648.5" cy="575.5" r="13" stroke="black"/>
<circle cx="607.5" cy="688.5" r="13" stroke="black"/>
<circle cx="648.5" cy="688.5" r="13" fill="black" stroke="black"/>
<circle cx="607.5" cy="799.5" r="13" fill="black" stroke="black"/>
<circle cx="648.5" cy="799.5" r="13" stroke="black"/>
<circle cx="643.5" cy="453.5" r="5.5" fill="black"/>
<path d="M777 891V917" stroke="black"/>
<path d="M800 891V917" stroke="black"/>
<path d="M824 891V917" stroke="black"/>
</g>
<defs>
<linearGradient id="paint0_linear_150_7603" x1="109.194" y1="48.2195" x2="12.022" y2="117.492" gradientUnits="userSpaceOnUse">
<stop stop-color="#66B2FF"/>
<stop offset="1" stop-color="#0071E3"/>
</linearGradient>
<linearGradient id="paint1_linear_150_7603" x1="110.464" y1="-25.9828" x2="-44.7961" y2="-16.6921" gradientUnits="userSpaceOnUse">
<stop stop-color="#66B2FF"/>
<stop offset="1" stop-color="#0071E3"/>
</linearGradient>
<linearGradient id="paint2_linear_150_7603" x1="73.1347" y1="73.1347" x2="66.7775" y2="-35.6807" gradientUnits="userSpaceOnUse">
<stop stop-color="#66B2FF"/>
<stop offset="1" stop-color="#0071E3"/>
</linearGradient>
<linearGradient id="paint3_linear_150_7603" x1="73.1347" y1="73.1347" x2="66.7775" y2="-35.6807" gradientUnits="userSpaceOnUse">
<stop stop-color="#66B2FF"/>
<stop offset="1" stop-color="#0071E3"/>
</linearGradient>
<linearGradient id="paint4_linear_150_7603" x1="73.1347" y1="73.1347" x2="66.7775" y2="-35.6807" gradientUnits="userSpaceOnUse">
<stop stop-color="#66B2FF"/>
<stop offset="1" stop-color="#0071E3"/>
</linearGradient>
<clipPath id="clip0_150_7603">
<rect width="1067" height="1067" fill="white"/>
</clipPath>
</defs>
</svg>
