<svg width="1067" height="1067" viewBox="0 0 1067 1067" fill="none" xmlns="http://www.w3.org/2000/svg">
<g clip-path="url(#clip0_142_40926)">
<path d="M490.271 512.853H340.053L255 752.556L336.212 787.368M777.915 734.704C779.643 738.352 780.736 742.308 781.108 746.405C781.934 755.518 779.121 764.587 773.283 771.633C767.728 778.245 759.903 782.543 751.343 783.686C742.784 784.828 734.106 782.732 727.011 777.809C731.041 784.005 732.985 791.327 732.559 798.706C732.133 806.085 729.36 813.135 724.645 818.826C718.763 825.836 710.347 830.233 701.235 831.059C692.122 831.885 683.053 829.072 676.007 823.235L661.064 810.782C661.031 810.749 660.986 810.731 660.94 810.731C660.893 810.731 660.848 810.749 660.815 810.782C660.782 810.815 660.764 810.86 660.764 810.907C660.764 810.954 660.782 810.998 660.815 811.032C665.68 817.257 668.27 824.958 668.157 832.858C668.044 840.757 665.234 848.381 660.193 854.465C654.311 861.474 645.895 865.871 636.783 866.697C627.67 867.523 618.601 864.71 611.555 858.873L601.593 850.579C601.561 850.559 601.523 850.55 601.485 850.554C601.448 850.557 601.412 850.573 601.384 850.598C601.356 850.623 601.337 850.657 601.329 850.694C601.322 850.731 601.327 850.77 601.344 850.804C605.174 856.672 606.77 863.721 605.843 870.667C604.916 877.613 601.527 883.996 596.292 888.655C591.057 893.314 584.324 895.94 577.317 896.055C570.31 896.17 563.495 893.766 558.11 889.281L521.675 866.867L461.768 841.188M394.871 812.512L401.86 815.508" stroke="#1D1D1F" stroke-miterlimit="10"/>
<path d="M726.894 777.636L637.513 696.622" stroke="#1D1D1F" stroke-linecap="round" stroke-linejoin="round"/>
<path d="M662.642 812.801L573.26 731.787" stroke="#1D1D1F" stroke-linecap="round" stroke-linejoin="round"/>
<path d="M602.219 851.607L516 769" stroke="#1D1D1F" stroke-linecap="round" stroke-linejoin="round"/>
<path d="M224.874 790.934H240.265L342.87 504.236L307.133 496.366L224.874 790.934Z" fill="#1D1D1F" stroke="#1D1D1F" stroke-miterlimit="10"/>
<path d="M214.862 823.907L312.014 478.958L101 436.861V803.809L214.862 823.907Z" stroke="#1D1D1F" stroke-miterlimit="10"/>
<path d="M357.805 828.711C349.727 826.345 342.914 820.879 338.854 813.506C334.795 806.133 333.818 797.453 336.138 789.362L352.699 732.232C355.065 724.154 360.531 717.341 367.904 713.281C375.277 709.222 383.957 708.245 392.048 710.565V710.565C400.122 712.936 406.931 718.404 410.99 725.775C415.049 733.146 416.028 741.823 413.715 749.914L397.154 807.044C394.788 815.122 389.322 821.935 381.949 825.995C374.576 830.054 365.896 831.031 357.805 828.711V828.711Z" stroke="#1D1D1F" stroke-miterlimit="10"/>
<path d="M421.46 860.887C413.379 858.528 406.562 853.062 402.501 845.687C398.44 838.313 397.466 829.629 399.793 821.539L416.355 764.433C418.714 756.352 424.18 749.534 431.555 745.474C438.929 741.413 447.613 740.439 455.703 742.766C463.781 745.132 470.594 750.598 474.654 757.971C478.714 765.344 479.69 774.024 477.37 782.115L460.809 839.221C458.449 847.302 452.984 854.119 445.609 858.18C438.234 862.241 429.551 863.214 421.46 860.887Z" stroke="#1D1D1F" stroke-miterlimit="10"/>
<path d="M433.912 637.722L490.221 514.296C490.221 514.296 505.96 469.942 558.882 480.675C611.804 491.409 723.25 515.716 723.25 515.716L802.645 736.044H779.036L595.043 576.482C592.938 574.647 590.239 573.639 587.447 573.643H563.39C561.368 573.649 559.384 574.185 557.636 575.199C555.887 576.213 554.436 577.669 553.428 579.421L512.46 649.875C507.86 657.819 500.337 663.651 491.497 666.126C482.657 668.601 473.199 667.524 465.142 663.124L437.349 647.957C435.592 646.998 434.262 645.411 433.625 643.513C432.987 641.615 433.09 639.547 433.912 637.722Z" stroke="#1D1D1F" stroke-miterlimit="10"/>
<path d="M837.769 790.934H822.378L719.772 504.236L755.51 496.366L837.769 790.934Z" fill="#1D1D1F" stroke="#1D1D1F" stroke-miterlimit="10"/>
<path d="M847.779 823.907L750.628 478.957L966 436V797.906L847.779 823.907Z" stroke="#1D1D1F" stroke-miterlimit="10"/>
<path d="M459 141L384 216L534 366L684 216L609 141L534 216L459 141Z" stroke="#1D1D1F"/>
<path d="M459 171L384 246L534 396L684 246L609 171L534 246L459 171Z" fill="#1D1D1F"/>
<path d="M459 171L384 246L534 396L684 246L609 171L534 246L459 171Z" fill="url(#paint0_linear_142_40926)"/>
</g>
<defs>
<linearGradient id="paint0_linear_142_40926" x1="622.675" y1="350.006" x2="610.987" y2="83.2702" gradientUnits="userSpaceOnUse">
<stop stop-color="#66B2FF"/>
<stop offset="1" stop-color="#0071E3"/>
</linearGradient>
<clipPath id="clip0_142_40926">
<rect width="1067" height="1067" fill="white"/>
</clipPath>
</defs>
</svg>
