<svg width="1440" height="900" viewBox="0 0 1440 900" fill="none" xmlns="http://www.w3.org/2000/svg">
<path d="M670.005 420.59H496.342L398.015 697.704L491.902 737.948M1002.54 677.065C1004.54 681.283 1005.8 685.856 1006.23 690.593C1007.19 701.128 1003.94 711.612 997.186 719.758C990.764 727.402 981.719 732.371 971.823 733.692C961.927 735.013 951.895 732.59 943.693 726.898C948.351 734.061 950.599 742.526 950.107 751.056C949.615 759.587 946.409 767.737 940.957 774.317C934.158 782.42 924.429 787.504 913.894 788.459C903.359 789.414 892.874 786.162 884.728 779.413L867.454 765.017C867.416 764.979 867.364 764.958 867.31 764.958C867.256 764.958 867.204 764.979 867.166 765.017C867.128 765.056 867.106 765.107 867.106 765.161C867.106 765.215 867.128 765.267 867.166 765.305C872.79 772.502 875.784 781.405 875.653 790.538C875.523 799.671 872.274 808.484 866.446 815.517C859.647 823.62 849.917 828.704 839.382 829.659C828.848 830.614 818.363 827.362 810.217 820.613L798.701 811.026C798.664 811.002 798.62 810.992 798.576 810.996C798.533 811 798.492 811.018 798.459 811.047C798.427 811.076 798.405 811.115 798.396 811.158C798.388 811.201 798.394 811.245 798.413 811.285C802.841 818.069 804.686 826.218 803.615 834.248C802.543 842.279 798.625 849.658 792.573 855.044C786.521 860.43 778.737 863.466 770.636 863.598C762.536 863.731 754.657 860.952 748.431 855.767L706.31 829.855L637.053 800.168M559.715 767.017L567.796 770.481" stroke="#1D1D1F" stroke-miterlimit="10"/>
<path d="M943.577 726.752L840.246 633.095" stroke="#1D1D1F" stroke-linecap="round" stroke-linejoin="round"/>
<path d="M869.297 767.405L765.966 673.748" stroke="#1D1D1F" stroke-linecap="round" stroke-linejoin="round"/>
<path d="M801.781 812.98L702.106 717.48" stroke="#1D1D1F" stroke-linecap="round" stroke-linejoin="round"/>
<path d="M363.207 742.126H381L499.619 410.683L458.304 401.585L363.207 742.126Z" fill="#1D1D1F" stroke="#1D1D1F" stroke-miterlimit="10"/>
<path d="M351.633 780.246L463.947 381.461L220 332.794V757.011L351.633 780.246Z" stroke="#1D1D1F" stroke-miterlimit="10"/>
<path d="M516.865 785.744C507.527 783.009 499.65 776.69 494.957 768.166C490.264 759.642 489.135 749.607 491.817 740.254L510.963 674.207C513.697 664.869 520.017 656.993 528.541 652.299C537.064 647.606 547.099 646.477 556.453 649.159V649.159C565.787 651.9 573.658 658.221 578.35 666.743C583.043 675.264 584.175 685.296 581.501 694.649L562.355 760.696C559.62 770.034 553.301 777.91 544.777 782.604C536.253 787.297 526.218 788.426 516.865 785.744V785.744Z" stroke="#1D1D1F" stroke-miterlimit="10"/>
<path d="M590.455 822.942C581.112 820.214 573.231 813.895 568.536 805.369C563.842 796.844 562.717 786.805 565.407 777.452L584.553 711.434C587.281 702.091 593.599 694.21 602.125 689.515C610.651 684.821 620.689 683.696 630.043 686.386C639.381 689.12 647.257 695.44 651.95 703.963C656.644 712.487 657.773 722.522 655.091 731.875L635.945 797.893C633.217 807.236 626.898 815.117 618.372 819.812C609.847 824.506 599.808 825.632 590.455 822.942Z" stroke="#1D1D1F" stroke-miterlimit="10"/>
<path d="M604.851 564.946L669.947 422.258C669.947 422.258 688.143 370.981 749.324 383.39C810.505 395.799 939.345 423.899 939.345 423.899L1031.13 678.614H1003.84L791.129 494.149C788.696 492.028 785.575 490.862 782.348 490.867H754.535C752.199 490.873 749.905 491.494 747.884 492.666C745.862 493.838 744.185 495.522 743.019 497.547L695.658 578.997C690.339 588.18 681.642 594.922 671.422 597.784C661.202 600.646 650.269 599.4 640.955 594.313L608.824 576.78C606.792 575.671 605.255 573.836 604.518 571.642C603.781 569.448 603.9 567.057 604.851 564.946Z" stroke="#1D1D1F" stroke-miterlimit="10"/>
<path d="M1071.76 742.126H1053.96L935.344 410.683L976.659 401.585L1071.76 742.126Z" fill="#1D1D1F" stroke="#1D1D1F" stroke-miterlimit="10"/>
<path d="M1083.33 780.245L971.015 381.46L1220 331.798V750.187L1083.33 780.245Z" stroke="#1D1D1F" stroke-miterlimit="10"/>
<path d="M633.873 37L547.168 123.705L720.578 297.116L893.988 123.705L807.283 37L720.578 123.705L633.873 37Z" stroke="#1D1D1F"/>
<path d="M633.873 71.6816L547.168 158.387L720.578 331.797L893.988 158.387L807.283 71.6816L720.578 158.387L633.873 71.6816Z" fill="#1D1D1F"/>
<path d="M633.873 71.6816L547.168 158.387L720.578 331.797L893.988 158.387L807.283 71.6816L720.578 158.387L633.873 71.6816Z" fill="url(#paint0_linear_157_7214)"/>
<defs>
<linearGradient id="paint0_linear_157_7214" x1="823.092" y1="278.625" x2="809.581" y2="-29.7401" gradientUnits="userSpaceOnUse">
<stop stop-color="#66B2FF"/>
<stop offset="1" stop-color="#0071E3"/>
</linearGradient>
</defs>
</svg>
