<svg width="1440" height="900" viewBox="0 0 1440 900" fill="none" xmlns="http://www.w3.org/2000/svg">
<g clip-path="url(#clip0_158_7349)">
<path d="M572.327 124.721C572.327 132.442 576.136 137.555 582.553 137.555C588.936 137.555 592.745 132.442 592.745 124.721C592.745 117.034 588.764 111.818 582.553 111.818C576.308 111.818 572.327 117.034 572.327 124.721ZM575.656 124.721C575.656 118.544 578.195 114.838 582.553 114.838C586.911 114.838 589.416 118.544 589.416 124.721C589.416 130.829 586.911 134.535 582.553 134.535C578.195 134.535 575.656 130.829 575.656 124.721Z" fill="#1D1D1F"/>
<path d="M572.327 232.94C572.327 240.661 576.136 245.774 582.553 245.774C588.936 245.774 592.745 240.661 592.745 232.94C592.745 225.253 588.764 220.037 582.553 220.037C576.308 220.037 572.327 225.253 572.327 232.94ZM575.656 232.94C575.656 226.763 578.195 223.057 582.553 223.057C586.911 223.057 589.416 226.763 589.416 232.94C589.416 239.048 586.911 242.754 582.553 242.754C578.195 242.754 575.656 239.048 575.656 232.94Z" fill="#1D1D1F"/>
<path d="M572.327 395.94C572.327 403.661 576.136 408.774 582.553 408.774C588.936 408.774 592.745 403.661 592.745 395.94C592.745 388.253 588.764 383.037 582.553 383.037C576.308 383.037 572.327 388.253 572.327 395.94ZM575.656 395.94C575.656 389.763 578.195 386.057 582.553 386.057C586.911 386.057 589.416 389.763 589.416 395.94C589.416 402.048 586.911 405.754 582.553 405.754C578.195 405.754 575.656 402.048 575.656 395.94Z" fill="#1D1D1F"/>
<path d="M572.327 450.274C572.327 457.995 576.136 463.108 582.553 463.108C588.936 463.108 592.745 457.995 592.745 450.274C592.745 442.587 588.764 437.371 582.553 437.371C576.308 437.371 572.327 442.587 572.327 450.274ZM575.656 450.274C575.656 444.097 578.195 440.391 582.553 440.391C586.911 440.391 589.416 444.097 589.416 450.274C589.416 456.382 586.911 460.088 582.553 460.088C578.195 460.088 575.656 456.382 575.656 450.274Z" fill="#1D1D1F"/>
<path d="M572.327 558.942C572.327 566.663 576.136 571.776 582.553 571.776C588.936 571.776 592.745 566.663 592.745 558.942C592.745 551.255 588.764 546.039 582.553 546.039C576.308 546.039 572.327 551.255 572.327 558.942ZM575.656 558.942C575.656 552.765 578.195 549.059 582.553 549.059C586.911 549.059 589.416 552.765 589.416 558.942C589.416 565.05 586.911 568.756 582.553 568.756C578.195 568.756 575.656 565.05 575.656 558.942Z" fill="#1D1D1F"/>
<path d="M572.327 613.274C572.327 620.995 576.136 626.108 582.553 626.108C588.936 626.108 592.745 620.995 592.745 613.274C592.745 605.587 588.764 600.371 582.553 600.371C576.308 600.371 572.327 605.587 572.327 613.274ZM575.656 613.274C575.656 607.097 578.195 603.391 582.553 603.391C586.911 603.391 589.416 607.097 589.416 613.274C589.416 619.382 586.911 623.088 582.553 623.088C578.195 623.088 575.656 619.382 575.656 613.274Z" fill="#1D1D1F"/>
<path d="M572.327 667.606C572.327 675.327 576.136 680.44 582.553 680.44C588.936 680.44 592.745 675.327 592.745 667.606C592.745 659.919 588.764 654.703 582.553 654.703C576.308 654.703 572.327 659.919 572.327 667.606ZM575.656 667.606C575.656 661.429 578.195 657.723 582.553 657.723C586.911 657.723 589.416 661.429 589.416 667.606C589.416 673.714 586.911 677.42 582.553 677.42C578.195 677.42 575.656 673.714 575.656 667.606Z" fill="#1D1D1F"/>
<path d="M584.441 168.724V190.514H587.666V165.704H579.225V168.724H584.441Z" fill="#1D1D1F"/>
<path d="M584.441 277.392V299.182H587.666V274.372H579.225V277.392H584.441Z" fill="#1D1D1F"/>
<path d="M584.441 331.724V353.514H587.666V328.704H579.225V331.724H584.441Z" fill="#1D1D1F"/>
<path d="M584.441 494.725V516.515H587.666V491.705H579.225V494.725H584.441Z" fill="#1D1D1F"/>
<path d="M584.441 712.059V733.849H587.666V709.039H579.225V712.059H584.441Z" fill="#1D1D1F"/>
<path d="M584.441 766.391V788.181H587.666V763.371H579.225V766.391H584.441Z" fill="#1D1D1F"/>
<path d="M495.673 232.94C495.673 240.661 499.482 245.774 505.899 245.774C512.282 245.774 516.091 240.661 516.091 232.94C516.091 225.253 512.11 220.037 505.899 220.037C499.653 220.037 495.673 225.253 495.673 232.94ZM499.001 232.94C499.001 226.763 501.541 223.057 505.899 223.057C510.257 223.057 512.762 226.763 512.762 232.94C512.762 239.048 510.257 242.754 505.899 242.754C501.541 242.754 499.001 239.048 499.001 232.94Z" fill="#1D1D1F"/>
<path d="M495.673 395.94C495.673 403.661 499.482 408.774 505.899 408.774C512.282 408.774 516.091 403.661 516.091 395.94C516.091 388.253 512.11 383.037 505.899 383.037C499.653 383.037 495.673 388.253 495.673 395.94ZM499.001 395.94C499.001 389.763 501.541 386.057 505.899 386.057C510.257 386.057 512.762 389.763 512.762 395.94C512.762 402.048 510.257 405.754 505.899 405.754C501.541 405.754 499.001 402.048 499.001 395.94Z" fill="#1D1D1F"/>
<path d="M495.673 450.274C495.673 457.995 499.482 463.108 505.899 463.108C512.282 463.108 516.091 457.995 516.091 450.274C516.091 442.587 512.11 437.371 505.899 437.371C499.653 437.371 495.673 442.587 495.673 450.274ZM499.001 450.274C499.001 444.097 501.541 440.391 505.899 440.391C510.257 440.391 512.762 444.097 512.762 450.274C512.762 456.382 510.257 460.088 505.899 460.088C501.541 460.088 499.001 456.382 499.001 450.274Z" fill="#1D1D1F"/>
<path d="M495.673 558.942C495.673 566.663 499.482 571.776 505.899 571.776C512.282 571.776 516.091 566.663 516.091 558.942C516.091 551.255 512.11 546.039 505.899 546.039C499.653 546.039 495.673 551.255 495.673 558.942ZM499.001 558.942C499.001 552.765 501.541 549.059 505.899 549.059C510.257 549.059 512.762 552.765 512.762 558.942C512.762 565.05 510.257 568.756 505.899 568.756C501.541 568.756 499.001 565.05 499.001 558.942Z" fill="#1D1D1F"/>
<path d="M495.673 613.276C495.673 620.997 499.482 626.11 505.899 626.11C512.282 626.11 516.091 620.997 516.091 613.276C516.091 605.589 512.11 600.373 505.899 600.373C499.653 600.373 495.673 605.589 495.673 613.276ZM499.001 613.276C499.001 607.099 501.541 603.393 505.899 603.393C510.257 603.393 512.762 607.099 512.762 613.276C512.762 619.384 510.257 623.09 505.899 623.09C501.541 623.09 499.001 619.384 499.001 613.276Z" fill="#1D1D1F"/>
<path d="M495.673 667.606C495.673 675.327 499.482 680.44 505.899 680.44C512.282 680.44 516.091 675.327 516.091 667.606C516.091 659.919 512.11 654.703 505.899 654.703C499.653 654.703 495.673 659.919 495.673 667.606ZM499.001 667.606C499.001 661.429 501.541 657.723 505.899 657.723C510.257 657.723 512.762 661.429 512.762 667.606C512.762 673.714 510.257 677.42 505.899 677.42C501.541 677.42 499.001 673.714 499.001 667.606Z" fill="#1D1D1F"/>
<path d="M507.786 168.724V190.514H511.012V165.704H502.57V168.724H507.786Z" fill="#1D1D1F"/>
<path d="M507.786 277.392V299.182H511.012V274.372H502.57V277.392H507.786Z" fill="#1D1D1F"/>
<path d="M507.786 331.726V353.516H511.012V328.706H502.57V331.726H507.786Z" fill="#1D1D1F"/>
<path d="M507.786 494.725V516.515H511.012V491.705H502.57V494.725H507.786Z" fill="#1D1D1F"/>
<path d="M507.786 712.059V733.849H511.012V709.039H502.57V712.059H507.786Z" fill="#1D1D1F"/>
<path d="M847.382 124.721C847.382 132.442 851.191 137.555 857.608 137.555C863.991 137.555 867.8 132.442 867.8 124.721C867.8 117.034 863.819 111.818 857.608 111.818C851.362 111.818 847.382 117.034 847.382 124.721ZM850.71 124.721C850.71 118.544 853.25 114.838 857.608 114.838C861.966 114.838 864.471 118.544 864.471 124.721C864.471 130.829 861.966 134.535 857.608 134.535C853.25 134.535 850.71 130.829 850.71 124.721Z" fill="#1D1D1F"/>
<path d="M847.382 232.94C847.382 240.661 851.191 245.774 857.608 245.774C863.991 245.774 867.8 240.661 867.8 232.94C867.8 225.253 863.819 220.037 857.608 220.037C851.362 220.037 847.382 225.253 847.382 232.94ZM850.71 232.94C850.71 226.763 853.25 223.057 857.608 223.057C861.966 223.057 864.471 226.763 864.471 232.94C864.471 239.048 861.966 242.754 857.608 242.754C853.25 242.754 850.71 239.048 850.71 232.94Z" fill="#1D1D1F"/>
<path d="M847.382 395.94C847.382 403.661 851.191 408.774 857.608 408.774C863.991 408.774 867.8 403.661 867.8 395.94C867.8 388.253 863.819 383.037 857.608 383.037C851.362 383.037 847.382 388.253 847.382 395.94ZM850.71 395.94C850.71 389.763 853.25 386.057 857.608 386.057C861.966 386.057 864.471 389.763 864.471 395.94C864.471 402.048 861.966 405.754 857.608 405.754C853.25 405.754 850.71 402.048 850.71 395.94Z" fill="#1D1D1F"/>
<path d="M847.382 450.274C847.382 457.995 851.191 463.108 857.608 463.108C863.991 463.108 867.8 457.995 867.8 450.274C867.8 442.587 863.819 437.371 857.608 437.371C851.362 437.371 847.382 442.587 847.382 450.274ZM850.71 450.274C850.71 444.097 853.25 440.391 857.608 440.391C861.966 440.391 864.471 444.097 864.471 450.274C864.471 456.382 861.966 460.088 857.608 460.088C853.25 460.088 850.71 456.382 850.71 450.274Z" fill="#1D1D1F"/>
<path d="M847.382 558.942C847.382 566.663 851.191 571.776 857.608 571.776C863.991 571.776 867.8 566.663 867.8 558.942C867.8 551.255 863.819 546.039 857.608 546.039C851.362 546.039 847.382 551.255 847.382 558.942ZM850.71 558.942C850.71 552.765 853.25 549.059 857.608 549.059C861.966 549.059 864.471 552.765 864.471 558.942C864.471 565.05 861.966 568.756 857.608 568.756C853.25 568.756 850.71 565.05 850.71 558.942Z" fill="#1D1D1F"/>
<path d="M847.382 613.274C847.382 620.995 851.191 626.108 857.608 626.108C863.991 626.108 867.8 620.995 867.8 613.274C867.8 605.587 863.819 600.371 857.608 600.371C851.362 600.371 847.382 605.587 847.382 613.274ZM850.71 613.274C850.71 607.097 853.25 603.391 857.608 603.391C861.966 603.391 864.471 607.097 864.471 613.274C864.471 619.382 861.966 623.088 857.608 623.088C853.25 623.088 850.71 619.382 850.71 613.274Z" fill="#1D1D1F"/>
<path d="M847.382 667.606C847.382 675.327 851.191 680.44 857.608 680.44C863.991 680.44 867.8 675.327 867.8 667.606C867.8 659.919 863.819 654.703 857.608 654.703C851.362 654.703 847.382 659.919 847.382 667.606ZM850.71 667.606C850.71 661.429 853.25 657.723 857.608 657.723C861.966 657.723 864.471 661.429 864.471 667.606C864.471 673.714 861.966 677.42 857.608 677.42C853.25 677.42 850.71 673.714 850.71 667.606Z" fill="#1D1D1F"/>
<path d="M859.495 168.724V190.514H862.72V165.704H854.279V168.724H859.495Z" fill="#1D1D1F"/>
<path d="M859.495 277.392V299.182H862.72V274.372H854.279V277.392H859.495Z" fill="#1D1D1F"/>
<path d="M859.495 331.724V353.514H862.72V328.704H854.279V331.724H859.495Z" fill="#1D1D1F"/>
<path d="M859.495 494.725V516.515H862.72V491.705H854.279V494.725H859.495Z" fill="#1D1D1F"/>
<path d="M859.495 712.059V733.849H862.72V709.039H854.279V712.059H859.495Z" fill="#1D1D1F"/>
<path d="M859.495 766.391V788.181H862.72V763.371H854.279V766.391H859.495Z" fill="#1D1D1F"/>
<path d="M915.018 232.94C915.018 240.661 918.827 245.774 925.244 245.774C931.626 245.774 935.435 240.661 935.435 232.94C935.435 225.253 931.455 220.037 925.244 220.037C918.998 220.037 915.018 225.253 915.018 232.94ZM918.346 232.94C918.346 226.763 920.886 223.057 925.244 223.057C929.602 223.057 932.107 226.763 932.107 232.94C932.107 239.048 929.602 242.754 925.244 242.754C920.886 242.754 918.346 239.048 918.346 232.94Z" fill="#1D1D1F"/>
<path d="M915.018 395.94C915.018 403.661 918.827 408.774 925.244 408.774C931.626 408.774 935.435 403.661 935.435 395.94C935.435 388.253 931.455 383.037 925.244 383.037C918.998 383.037 915.018 388.253 915.018 395.94ZM918.346 395.94C918.346 389.763 920.886 386.057 925.244 386.057C929.602 386.057 932.107 389.763 932.107 395.94C932.107 402.048 929.602 405.754 925.244 405.754C920.886 405.754 918.346 402.048 918.346 395.94Z" fill="#1D1D1F"/>
<path d="M915.018 450.274C915.018 457.995 918.827 463.108 925.244 463.108C931.626 463.108 935.435 457.995 935.435 450.274C935.435 442.587 931.455 437.371 925.244 437.371C918.998 437.371 915.018 442.587 915.018 450.274ZM918.346 450.274C918.346 444.097 920.886 440.391 925.244 440.391C929.602 440.391 932.107 444.097 932.107 450.274C932.107 456.382 929.602 460.088 925.244 460.088C920.886 460.088 918.346 456.382 918.346 450.274Z" fill="#1D1D1F"/>
<path d="M915.018 558.942C915.018 566.663 918.827 571.776 925.244 571.776C931.626 571.776 935.435 566.663 935.435 558.942C935.435 551.255 931.455 546.039 925.244 546.039C918.998 546.039 915.018 551.255 915.018 558.942ZM918.346 558.942C918.346 552.765 920.886 549.059 925.244 549.059C929.602 549.059 932.107 552.765 932.107 558.942C932.107 565.05 929.602 568.756 925.244 568.756C920.886 568.756 918.346 565.05 918.346 558.942Z" fill="#1D1D1F"/>
<path d="M915.018 613.276C915.018 620.997 918.827 626.11 925.244 626.11C931.626 626.11 935.435 620.997 935.435 613.276C935.435 605.589 931.455 600.373 925.244 600.373C918.998 600.373 915.018 605.589 915.018 613.276ZM918.346 613.276C918.346 607.099 920.886 603.393 925.244 603.393C929.602 603.393 932.107 607.099 932.107 613.276C932.107 619.384 929.602 623.09 925.244 623.09C920.886 623.09 918.346 619.384 918.346 613.276Z" fill="#1D1D1F"/>
<path d="M915.018 667.606C915.018 675.327 918.827 680.44 925.244 680.44C931.626 680.44 935.435 675.327 935.435 667.606C935.435 659.919 931.455 654.703 925.244 654.703C918.998 654.703 915.018 659.919 915.018 667.606ZM918.346 667.606C918.346 661.429 920.886 657.723 925.244 657.723C929.602 657.723 932.107 661.429 932.107 667.606C932.107 673.714 929.602 677.42 925.244 677.42C920.886 677.42 918.346 673.714 918.346 667.606Z" fill="#1D1D1F"/>
<path d="M927.131 168.724V190.514H930.356V165.704H921.915V168.724H927.131Z" fill="#1D1D1F"/>
<path d="M927.131 277.392V299.182H930.356V274.372H921.915V277.392H927.131Z" fill="#1D1D1F"/>
<path d="M927.131 331.726V353.516H930.356V328.706H921.915V331.726H927.131Z" fill="#1D1D1F"/>
<path d="M927.131 494.725V516.515H930.356V491.705H921.915V494.725H927.131Z" fill="#1D1D1F"/>
<path d="M927.131 712.059V733.849H930.356V709.039H921.915V712.059H927.131Z" fill="#1D1D1F"/>
<path fill-rule="evenodd" clip-rule="evenodd" d="M719.436 186.217C728.239 186.217 736.46 190.617 741.343 197.941L899.322 434.91C905.218 443.754 905.218 455.276 899.322 464.12L741.343 701.089C736.46 708.414 728.239 712.813 719.436 712.813C710.632 712.813 702.411 708.414 697.528 701.089L539.549 464.12C533.653 455.276 533.653 443.754 539.549 434.91L697.528 197.941C702.411 190.617 710.632 186.217 719.436 186.217ZM593.101 449.515L719.436 639.017L845.77 449.515L719.436 260.013L593.101 449.515Z" fill="#F5F5F7" stroke="#1D1D1F" stroke-linecap="round" stroke-linejoin="round"/>
<path fill-rule="evenodd" clip-rule="evenodd" d="M707.661 346.975C715.074 343.269 723.799 343.269 731.211 346.975L889.19 425.964C898.715 430.727 904.433 440.758 903.679 451.381C902.924 462.004 895.844 471.126 885.741 474.493L727.762 527.153C722.358 528.954 716.514 528.954 711.11 527.153L553.131 474.493C543.028 471.126 535.948 462.004 535.194 451.381C534.439 440.758 540.157 430.727 549.682 425.964L707.661 346.975ZM630.087 444.637L719.436 474.42L808.785 444.637L719.436 399.963L630.087 444.637Z" fill="#F5F5F7" stroke="#1D1D1F" stroke-linecap="round" stroke-linejoin="round"/>
<rect width="103.626" height="103.626" transform="matrix(0.866025 -0.5 2.20305e-08 1 292.536 449.562)" fill="url(#paint0_linear_158_7349)"/>
<rect width="103.626" height="103.626" transform="matrix(0.866025 0.5 -2.20305e-08 1 202.792 397.749)" fill="url(#paint1_linear_158_7349)"/>
<g style="mix-blend-mode:darken">
<rect width="103.626" height="103.626" transform="matrix(0.866025 -0.5 0.866025 0.5 202.792 397.749)" fill="url(#paint2_linear_158_7349)"/>
</g>
<g style="mix-blend-mode:screen" opacity="0.4">
<rect width="103.626" height="103.626" transform="matrix(0.866025 -0.5 0.866025 0.5 203.128 436.024)" fill="url(#paint3_linear_158_7349)"/>
</g>
<g style="mix-blend-mode:screen" opacity="0.4">
<rect width="103.626" height="103.626" transform="matrix(0.866025 -0.5 0.866025 0.5 203.128 473.268)" fill="url(#paint4_linear_158_7349)"/>
</g>
<rect width="149.658" height="149.301" transform="matrix(0.866025 -0.5 0.866025 0.5 163.127 374.902)" stroke="#1D1D1F" stroke-linejoin="bevel"/>
<rect width="149.301" height="150.376" transform="matrix(0.866025 -0.5 2.20305e-08 1 293.14 449.552)" stroke="#1D1D1F" stroke-linejoin="bevel"/>
<path d="M163.127 375.795L291.711 450.033L291.711 599.21L163.127 524.972L163.127 375.795Z" stroke="#1D1D1F" stroke-linejoin="round"/>
<rect width="103.626" height="103.626" transform="matrix(0.866025 -0.5 2.20305e-08 1 1145.88 449.562)" fill="url(#paint5_linear_158_7349)"/>
<rect width="103.626" height="103.626" transform="matrix(0.866025 0.5 -2.20305e-08 1 1056.14 397.749)" fill="url(#paint6_linear_158_7349)"/>
<g style="mix-blend-mode:darken">
<rect width="103.626" height="103.626" transform="matrix(0.866025 -0.5 0.866025 0.5 1056.14 397.749)" fill="url(#paint7_linear_158_7349)"/>
</g>
<g style="mix-blend-mode:screen" opacity="0.4">
<rect width="103.626" height="103.626" transform="matrix(0.866025 -0.5 0.866025 0.5 1056.47 436.024)" fill="url(#paint8_linear_158_7349)"/>
</g>
<g style="mix-blend-mode:screen" opacity="0.4">
<rect width="103.626" height="103.626" transform="matrix(0.866025 -0.5 0.866025 0.5 1056.47 473.268)" fill="url(#paint9_linear_158_7349)"/>
</g>
<rect width="149.658" height="149.301" transform="matrix(0.866025 -0.5 0.866025 0.5 1016.47 374.902)" stroke="#1D1D1F" stroke-linejoin="bevel"/>
<rect width="149.301" height="150.376" transform="matrix(0.866025 -0.5 2.20305e-08 1 1146.49 449.552)" stroke="#1D1D1F" stroke-linejoin="bevel"/>
<path d="M1016.47 375.795L1145.06 450.033L1145.06 599.21L1016.47 524.972L1016.47 375.795Z" stroke="#1D1D1F" stroke-linejoin="round"/>
<circle cx="163.127" cy="374.473" r="7.89091" fill="#1D1D1F"/>
<circle cx="292.763" cy="300.073" r="7.89091" fill="#1D1D1F"/>
<circle cx="422.4" cy="374.473" r="7.89091" fill="#1D1D1F"/>
<circle cx="292.763" cy="450" r="7.89091" fill="#1D1D1F"/>
<circle cx="422.4" cy="525.528" r="7.89091" fill="#1D1D1F"/>
<circle cx="163.127" cy="525.528" r="7.89091" fill="#1D1D1F"/>
<circle cx="292.763" cy="598.799" r="7.89091" fill="#1D1D1F"/>
<circle cx="1016.47" cy="374.473" r="7.89091" fill="#1D1D1F"/>
<circle cx="1146.11" cy="300.073" r="7.89091" fill="#1D1D1F"/>
<circle cx="1275.75" cy="374.473" r="7.89091" fill="#1D1D1F"/>
<circle cx="1146.11" cy="450" r="7.89091" fill="#1D1D1F"/>
<circle cx="1275.75" cy="525.528" r="7.89091" fill="#1D1D1F"/>
<circle cx="1016.47" cy="525.528" r="7.89091" fill="#1D1D1F"/>
<circle cx="1146.11" cy="598.799" r="7.89091" fill="#1D1D1F"/>
</g>
<defs>
<linearGradient id="paint0_linear_158_7349" x1="123.092" y1="54.3565" x2="13.5521" y2="132.445" gradientUnits="userSpaceOnUse">
<stop stop-color="#66B2FF"/>
<stop offset="1" stop-color="#0071E3"/>
</linearGradient>
<linearGradient id="paint1_linear_158_7349" x1="124.523" y1="-29.2897" x2="-50.4974" y2="-18.8165" gradientUnits="userSpaceOnUse">
<stop stop-color="#66B2FF"/>
<stop offset="1" stop-color="#0071E3"/>
</linearGradient>
<linearGradient id="paint2_linear_158_7349" x1="82.4428" y1="82.4428" x2="75.2764" y2="-40.2219" gradientUnits="userSpaceOnUse">
<stop stop-color="#66B2FF"/>
<stop offset="1" stop-color="#0071E3"/>
</linearGradient>
<linearGradient id="paint3_linear_158_7349" x1="82.4428" y1="82.4428" x2="75.2764" y2="-40.2219" gradientUnits="userSpaceOnUse">
<stop stop-color="#66B2FF"/>
<stop offset="1" stop-color="#0071E3"/>
</linearGradient>
<linearGradient id="paint4_linear_158_7349" x1="82.4428" y1="82.4428" x2="75.2764" y2="-40.2219" gradientUnits="userSpaceOnUse">
<stop stop-color="#66B2FF"/>
<stop offset="1" stop-color="#0071E3"/>
</linearGradient>
<linearGradient id="paint5_linear_158_7349" x1="123.092" y1="54.3565" x2="13.5521" y2="132.445" gradientUnits="userSpaceOnUse">
<stop stop-color="#66B2FF"/>
<stop offset="1" stop-color="#0071E3"/>
</linearGradient>
<linearGradient id="paint6_linear_158_7349" x1="124.523" y1="-29.2897" x2="-50.4974" y2="-18.8165" gradientUnits="userSpaceOnUse">
<stop stop-color="#66B2FF"/>
<stop offset="1" stop-color="#0071E3"/>
</linearGradient>
<linearGradient id="paint7_linear_158_7349" x1="82.4428" y1="82.4428" x2="75.2764" y2="-40.2219" gradientUnits="userSpaceOnUse">
<stop stop-color="#66B2FF"/>
<stop offset="1" stop-color="#0071E3"/>
</linearGradient>
<linearGradient id="paint8_linear_158_7349" x1="82.4428" y1="82.4428" x2="75.2764" y2="-40.2219" gradientUnits="userSpaceOnUse">
<stop stop-color="#66B2FF"/>
<stop offset="1" stop-color="#0071E3"/>
</linearGradient>
<linearGradient id="paint9_linear_158_7349" x1="82.4428" y1="82.4428" x2="75.2764" y2="-40.2219" gradientUnits="userSpaceOnUse">
<stop stop-color="#66B2FF"/>
<stop offset="1" stop-color="#0071E3"/>
</linearGradient>
<clipPath id="clip0_158_7349">
<rect width="1240" height="676.364" fill="white" transform="translate(100 111.818)"/>
</clipPath>
</defs>
</svg>
