<svg width="720" height="720" viewBox="0 0 720 720" fill="none" xmlns="http://www.w3.org/2000/svg">
<g clip-path="url(#clip0_128_8670)">
<path d="M420.243 332.704H376.153V360.198H420.243V332.704Z" fill="#DDB99F"/>
<path d="M420.455 258.006H376.967V334.791H420.455V258.006Z" fill="#BFA08C"/>
<path d="M376.932 319.187H293.883V359.702H376.932V319.187Z" fill="#BFA08C"/>
<path d="M376.684 168.411H251.846V335.782H376.684V168.411Z" fill="#DDB99F"/>
<path d="M307.683 155H305.631H232.702V192.331H305.631H307.683H378.63V155H307.683Z" fill="#313131"/>
<path d="M420.314 189.96H376.79V278.953H420.314V189.96Z" fill="#313131"/>
<path d="M295.44 424.422H170V697.205C170 697.205 546.78 694.976 549.009 697.205C551.238 699.434 549.009 424.422 549.009 424.422H295.44V424.422Z" fill="white"/>
<path d="M461.679 424.209H251.881V696.072H461.679V424.209Z" fill="#E2E2E2"/>
<path d="M209.985 697.205H170.035V738.889H209.985V697.205Z" fill="#DDB99F"/>
<path d="M546.214 696.392H504.53V738.889H546.214V696.392Z" fill="#DDB99F"/>
<path d="M306.268 335.994H251.668V359.454H306.268V335.994Z" fill="#BFA08C"/>
<path d="M379.479 401.351H335.106V442.574H379.479V401.351Z" fill="#DDB99F"/>
<path d="M335.85 359.915L294.732 359.172L294.626 401.917V424.422H420.491V359.809H376.684V401.174H335.956L335.85 359.915Z" fill="#DDB99F"/>
<path d="M379.656 359.844H335.106V401.35H379.656V359.844Z" fill="#DDB99F"/>
<path d="M504.53 649.824H209.985V738.181H504.53V649.824Z" fill="white"/>
<path d="M251.527 487.69H209.136V738.11H251.527V487.69Z" fill="#E2E2E2"/>
<path d="M503.54 487.69H461.998V738.11H503.54V487.69Z" fill="#E2E2E2"/>
<path d="M379.196 452.624H334.859V623.994H379.196V452.624Z" fill="#424242"/>
<path d="M379.196 442.539H334.859V482.418H379.196V442.539Z" fill="#1E1E1E"/>
<path d="M315.751 457.047H288.611V490.663H315.751V457.047Z" fill="white"/>
<path d="M435.777 457.047H403.506V491.193H435.777V457.047Z" fill="white"/>
<path d="M503.079 424.811H420.951V473.147H503.079V424.811Z" fill="white"/>
<path d="M295.865 457.507H240.452V712.881H295.865V457.507Z" fill="white"/>
<path d="M475.656 459.453H419.783V712.916H475.656V459.453Z" fill="white"/>
<path d="M295.865 534.54H210.41V1025.01H295.865V534.54Z" fill="white"/>
<path d="M504.636 534.54H420.349V1025.01H504.636V534.54Z" fill="white"/>
<path d="M295.015 424.528H208.287V472.581H295.015V424.528Z" fill="white"/>
<path d="M240.345 521.519H209.454V1024.87H240.345V521.519Z" fill="#E2E2E2"/>
<path d="M505.344 487.301H475.408V1025.58H505.344V487.301Z" fill="#E2E2E2"/>
<path d="M373.322 618.19H340.768V631.248H373.322V618.19Z" fill="#424242"/>
<path d="M367.272 626.966H347.456V640.023H367.272V626.966Z" fill="#424242"/>
<path d="M282.135 229.379H263.417V295.62H282.135V229.379Z" fill="#BFA08C"/>
<path d="M317.945 222.515H283.515V248.7H317.945V222.515Z" fill="#1E1E1E"/>
<path d="M306.48 236.173H292.821V248.735H306.48V236.173Z" fill="#1E1E1E"/>
<path d="M317.874 222.479H306.48V235.89H317.874V222.479Z" fill="#1E1E1E"/>
<path d="M314.265 229.804H288.752V239.499H314.265V229.804Z" fill="white"/>
<path d="M312.142 235.076H290.627V243.179H312.142V235.076Z" fill="white"/>
<path d="M312.142 227.469H290.627V235.572H312.142V227.469Z" fill="white"/>
<path d="M309.417 239.924H293.246V246.505H309.417V239.924Z" fill="white"/>
<path d="M309.417 224.107H293.246V230.689H309.417V224.107Z" fill="white"/>
<path d="M315.468 218.764H286.523V223.718H315.468V218.764Z" fill="#1E1E1E"/>
<path d="M315.468 247.284H286.523V252.238H315.468V247.284Z" fill="#1E1E1E"/>
<path d="M312.566 249.974H289.92V254.928H312.566V249.974Z" fill="#1E1E1E"/>
<path d="M312.566 216.11H289.92V221.064H312.566V216.11Z" fill="#1E1E1E"/>
<path d="M325.057 225.522H316.777V245.161H325.057V225.522Z" fill="#1E1E1E"/>
<path d="M259.878 222.515H251.846V248.7H259.878V222.515Z" fill="#313131"/>
<path d="M259.807 222.479H251.846V235.89H259.807V222.479Z" fill="#1E1E1E"/>
<path d="M257.543 219.047H251.846V222.727H257.543V219.047Z" fill="#1E1E1E"/>
<path d="M257.543 246.612H251.846V250.292H257.543V246.612Z" fill="#1E1E1E"/>
<path d="M258.321 228.813H251.846V238.509H258.321V228.813Z" fill="white"/>
<path d="M256.198 234.369H251.846V242.472H256.198V234.369Z" fill="white"/>
<path d="M256.198 224.496H251.846V232.599H256.198V224.496Z" fill="white"/>
<path d="M253.509 239.394H251.846V245.975H253.509V239.394Z" fill="white"/>
<path d="M253.509 220.71H251.846V227.292H253.509V220.71Z" fill="white"/>
<path d="M285.426 228.672H257.437V235.395H285.426V228.672Z" fill="#1E1E1E"/>
<path d="M445.437 1025.01V487.018H389.989V547.915H378.418V579.337H337.867V547.915H324.668V487.018H277.606V1025.01H445.437Z" fill="white"/>
<path d="M463.837 500.322H403.223V516.316H463.837V500.322Z" fill="#E2E2E2"/>
<path d="M361.858 579.231H355.701V1024.98H361.858V579.231Z" fill="#E2E2E2"/>
</g>
<defs>
<clipPath id="clip0_128_8670">
<rect width="720" height="720" fill="white"/>
</clipPath>
</defs>
</svg>
