<svg width="720" height="720" viewBox="0 0 720 720" fill="none" xmlns="http://www.w3.org/2000/svg">
<g clip-path="url(#clip0_129_9638)">
<path d="M455.489 688.801H252.86V730.29H455.489V688.801Z" fill="white"/>
<path d="M279.671 178.918H235.052V401.509H279.671V178.918Z" fill="#49361C"/>
<path d="M300.689 398.299H244.092V423.975H300.689V398.299Z" fill="#49361C"/>
<path d="M309.731 353.994H278.81V413.527H309.731V353.994Z" fill="#49361C"/>
<path d="M423.864 327.219H378.03V355.83H423.864V327.219Z" fill="#DDB99F"/>
<path d="M424.059 249.565H383.98V329.412H424.059V249.565Z" fill="#BFA08C"/>
<path d="M383.392 313.367H291.843V355.482H383.392V313.367Z" fill="#DDB99F"/>
<path d="M383.901 156.412H246.871V336.34H383.901V156.412Z" fill="#DDB99F"/>
<path d="M330.631 143.34H327.813H226.283V181.267H327.813H330.631H429.343V143.34H330.631Z" fill="#604925"/>
<path d="M325.152 124.943H322.882H239.982V158.056H322.882H325.152H405.82V124.943H325.152Z" fill="#604925"/>
<path d="M320.925 106H319.164H255.287V139.113H319.164H320.925H383.08V106H320.925Z" fill="#604925"/>
<path d="M496.391 422.528H222.8V680.698H496.391V422.528Z" fill="white"/>
<path d="M548.957 433.017H501.988V705.198C530.287 705.198 548.448 705.629 548.957 706.098C551.305 708.329 548.957 433.017 548.957 433.017Z" fill="white"/>
<path d="M466.957 416.695H248.867V653.142H466.957V416.695Z" fill="white"/>
<path d="M213.171 702.614H171.644V745.943H213.171V702.614Z" fill="#DDB99F"/>
<path d="M546.06 706.139H502.732V750.289H546.06V706.139Z" fill="#DDB99F"/>
<path d="M305.621 329.531H259.983V353.916H305.621V329.531Z" fill="#DDB99F"/>
<path d="M381.475 398.535H335.368V441.394H381.475V398.535Z" fill="#DDB99F"/>
<path d="M276.344 228.589H261.94V297.437H276.344V228.589Z" fill="#BFA08C"/>
<path d="M340.965 355.48L300.494 354.697L300.416 399.161V422.527H424.099V355.363H381.084V398.339H341.043L340.965 355.48Z" fill="#DDB99F"/>
<path d="M384.606 355.4H335.368V398.533H384.606V355.4Z" fill="#DDB99F"/>
<path d="M478.895 650.715H234.542V711.343H478.895V650.715Z" fill="white"/>
<path d="M467.427 538.576H249.063V581.357H467.427V538.576Z" fill="white"/>
<path d="M358.46 351.839H279.24V370.665H358.46V351.839Z" fill="#DDB99F"/>
<path d="M448.365 176.804H383.94V401.273H448.365V176.804Z" fill="#604925"/>
<path d="M401.945 181.815H380.927V334.893H401.945V181.815Z" fill="#49361C"/>
<path d="M381.514 334.424H360.222V353.681H381.514V334.424Z" fill="#49361C"/>
<path d="M381.319 353.405H351.416V372.662H381.319V353.405Z" fill="#49361C"/>
<path d="M234.894 161.423H226.323V181.267H234.894V161.423Z" fill="#49361C"/>
<path d="M241.196 428.28H210.119V618.463H241.196V428.28Z" fill="white"/>
<path d="M514.239 428.28H483.161V618.463H514.239V428.28Z" fill="white"/>
<path d="M513.535 438.379H482.457V618.463H513.535V438.379Z" fill="white"/>
<path d="M207.496 439.946H176.419V582.3H207.496V439.946Z" fill="#465A6D"/>
<path d="M433.297 618.463H464.374V457.009H433.297V618.463Z" fill="white"/>
<path d="M452.984 601.006H484.062V480.141H452.984V601.006Z" fill="white"/>
<path d="M460.147 714.241H246.794V748.92H460.147V714.241Z" fill="#E2E2E2"/>
<path d="M216.968 433.017H170V705.198C198.298 705.198 216.46 705.629 216.968 706.098C219.317 708.329 216.968 433.017 216.968 433.017Z" fill="white"/>
<path d="M297.441 228.94H284.603V241.778H297.441V228.94Z" fill="#4F381A"/>
<path d="M251.92 228.902H245.893V241.897H251.92V228.902Z" fill="#4F381A"/>
<path d="M222.918 488.164H218.104V618.58H222.918V488.164Z" fill="#E2E2E2"/>
<path d="M502.066 488.164H496.821V618.58H502.066V488.164Z" fill="#E2E2E2"/>
<path d="M296.854 215.397V212.657H286.364V215.397H279.867V220.368H286.677V218.489H297.206V220.368H303.703V215.397H296.854Z" fill="#604925"/>
<path d="M246.245 215.397V218.49H246.441V220.368H252.938V215.397H246.245Z" fill="#604925"/>
<path d="M336.111 437.086H330.162V432.154H324.761V427.653H307.97V432.154H303.116V480.414H307.97V484.916H324.761V480.414H330.162V475.483H336.111V437.086Z" fill="#424242"/>
<path d="M362.453 437.086H368.402V432.154H373.803V427.653H390.634V432.154H395.448V480.414H390.634V484.916H373.803V480.414H368.402V475.483H362.453V437.086Z" fill="#424242"/>
<path d="M365.349 441.433H333.215V470.357H365.349V441.433Z" fill="#2B2B2B"/>
<path d="M429.618 176.804H381.358V442.41H429.618V176.804Z" fill="#604925"/>
<path d="M390.868 372.742H351.767V442.099H390.868V372.742Z" fill="#604925"/>
<path d="M361.083 353.405H351.416V442.097H361.083V353.405Z" fill="#49361C"/>
<path d="M419.441 442.098H361.083V464.055H419.441V442.098Z" fill="#604925"/>
<path d="M463.278 488.597H403.393V505.231H463.278V488.597Z" fill="#D39807"/>
</g>
<defs>
<clipPath id="clip0_129_9638">
<rect width="720" height="720" fill="white"/>
</clipPath>
</defs>
</svg>
