<svg width="40" height="40" viewBox="0 0 40 40" fill="none" xmlns="http://www.w3.org/2000/svg">
<path d="M23.3333 8.33333C22.8913 8.33333 22.4674 8.15774 22.1548 7.84518C21.8423 7.53262 21.6667 7.10869 21.6667 6.66667C21.6667 6.22464 21.8423 5.80072 22.1548 5.48816C22.4674 5.17559 22.8913 5 23.3333 5H33.3333C33.7754 5 34.1993 5.17559 34.5118 5.48816C34.8244 5.80072 35 6.22464 35 6.66667V16.6667C35 17.1087 34.8244 17.5326 34.5118 17.8452C34.1993 18.1577 33.7754 18.3333 33.3333 18.3333C32.8913 18.3333 32.4674 18.1577 32.1548 17.8452C31.8423 17.5326 31.6667 17.1087 31.6667 16.6667V10.69L16.1783 26.1783C15.864 26.4819 15.443 26.6499 15.006 26.6461C14.569 26.6423 14.151 26.467 13.842 26.158C13.533 25.849 13.3577 25.431 13.3539 24.994C13.3501 24.557 13.5181 24.136 13.8217 23.8217L29.31 8.33333H23.3333ZM5 11.6667C5 10.7826 5.35119 9.93477 5.97631 9.30964C6.60143 8.68452 7.44928 8.33333 8.33333 8.33333H16.6667C17.1087 8.33333 17.5326 8.50893 17.8452 8.82149C18.1577 9.13405 18.3333 9.55797 18.3333 10C18.3333 10.442 18.1577 10.866 17.8452 11.1785C17.5326 11.4911 17.1087 11.6667 16.6667 11.6667H8.33333V31.6667H28.3333V23.3333C28.3333 22.8913 28.5089 22.4674 28.8215 22.1548C29.134 21.8423 29.558 21.6667 30 21.6667C30.442 21.6667 30.866 21.8423 31.1785 22.1548C31.4911 22.4674 31.6667 22.8913 31.6667 23.3333V31.6667C31.6667 32.5507 31.3155 33.3986 30.6904 34.0237C30.0652 34.6488 29.2174 35 28.3333 35H8.33333C7.44928 35 6.60143 34.6488 5.97631 34.0237C5.35119 33.3986 5 32.5507 5 31.6667V11.6667Z" fill="white"/>
</svg>
