<svg width="375" height="224" viewBox="0 0 375 224" fill="none" xmlns="http://www.w3.org/2000/svg">
<g clip-path="url(#clip0_2979_223436)">
<path fill-rule="evenodd" clip-rule="evenodd" d="M0 0H375V151L209.261 197.849C195.032 201.871 179.968 201.871 165.739 197.849L0 151V0ZM73.5548 40.8H61.0628V66H67.9028V57.864H70.4228L76.2908 66H84.2828L77.4068 57.18C79.1348 56.532 80.4548 55.548 81.3668 54.228C82.2788 52.908 82.7348 51.312 82.7348 49.44C82.7348 47.736 82.3508 46.236 81.5828 44.94C80.8388 43.644 79.7708 42.636 78.3788 41.916C76.9868 41.172 75.3788 40.8 73.5548 40.8ZM75.1028 51.816C74.5028 52.344 73.6388 52.608 72.5108 52.608H67.8308V46.488H72.5108C73.6388 46.488 74.5028 46.752 75.1028 47.28C75.7028 47.808 76.0028 48.564 76.0028 49.548C76.0028 50.532 75.7028 51.288 75.1028 51.816ZM109.577 40.8H90.0287V66H110.081V60.384H96.6167V55.884H108.857V50.556H96.6167V46.344H109.577V40.8ZM127.612 40.8H116.956V66H127.612C130.276 66 132.592 65.484 134.56 64.452C136.552 63.42 138.076 61.956 139.132 60.06C140.212 58.164 140.752 55.944 140.752 53.4C140.752 50.856 140.212 48.636 139.132 46.74C138.076 44.844 136.552 43.38 134.56 42.348C132.592 41.316 130.276 40.8 127.612 40.8ZM132.184 58.368C131.056 59.568 129.532 60.168 127.612 60.168H123.796V46.632H127.612C129.532 46.632 131.056 47.232 132.184 48.432C133.336 49.632 133.912 51.288 133.912 53.4C133.912 55.512 133.336 57.168 132.184 58.368ZM166.876 40.8H147.328V66H167.38V60.384H153.916V55.884H166.156V50.556H153.916V46.344H166.876V40.8ZM193.263 40.8H174.255V66H181.095V57.36H192.543V51.672H181.095V46.632H193.263V40.8ZM207.072 40.8H200.232V66H207.072V40.8ZM221.149 40.8H215.065V66H221.869V57.9L221.725 51.816L231.949 66H238.033V40.8H231.229V48.9L231.373 55.056L221.149 40.8ZM252.875 40.8H246.035V66H252.875V40.8ZM266.952 40.8H260.868V66H267.672V57.9L267.528 51.816L277.752 66H283.836V40.8H277.032V48.9L277.176 55.056L266.952 40.8ZM296.734 64.992C298.774 66.072 301.15 66.612 303.862 66.612C306.19 66.612 308.326 66.24 310.27 65.496C312.214 64.728 313.786 63.66 314.986 62.292V50.772H302.674V56.028H309.37V59.232C308.746 59.76 307.966 60.168 307.03 60.456C306.118 60.744 305.122 60.888 304.042 60.888C302.674 60.888 301.462 60.576 300.406 59.952C299.374 59.328 298.57 58.452 297.994 57.324C297.418 56.196 297.13 54.888 297.13 53.4C297.13 51.024 297.754 49.188 299.002 47.892C300.25 46.572 302.014 45.912 304.294 45.912C305.374 45.912 306.418 46.116 307.426 46.524C308.434 46.932 309.31 47.508 310.054 48.252L314.122 44.328C312.778 42.864 311.314 41.808 309.73 41.16C308.17 40.488 306.382 40.152 304.366 40.152C301.606 40.152 299.17 40.716 297.058 41.844C294.97 42.948 293.338 44.508 292.162 46.524C291.01 48.516 290.434 50.808 290.434 53.4C290.434 56.064 290.974 58.392 292.054 60.384C293.158 62.376 294.718 63.912 296.734 64.992ZM166.985 76.8H147.977V102H154.817V93.36H166.265V87.672H154.817V82.632H166.985V76.8ZM187.921 76.8H180.721L169.417 102H176.725L178.417 97.824H190.117L191.773 102H199.153L187.921 76.8ZM184.285 83.208L187.777 92.064H180.721L184.285 83.208ZM210.129 76.8H204.045V102H210.849V93.9L210.705 87.816L220.929 102H227.013V76.8H220.209V84.9L220.353 91.056L210.129 76.8ZM77.3237 112.8H57.7757V138H77.8277V132.384H64.3637V127.884H76.6037V122.556H64.3637V118.344H77.3237V112.8ZM94.9986 130.296L97.2666 134.184L99.7146 138H108.031L99.5346 125.148L107.527 112.8H99.3906L97.0506 116.616L94.8186 120.576L92.6946 116.616L90.4986 112.8H82.4346L90.2826 125.508L81.9306 138H90.3546L92.8386 134.148L94.9986 130.296ZM125.451 112.8H113.247V138H120.087V131.16H125.451C128.523 131.16 130.947 130.344 132.723 128.712C134.499 127.056 135.387 124.812 135.387 121.98C135.387 119.148 134.499 116.916 132.723 115.284C130.947 113.628 128.523 112.8 125.451 112.8ZM127.647 124.392C127.047 124.968 126.219 125.256 125.163 125.256H120.015V118.776H125.163C126.219 118.776 127.047 119.076 127.647 119.676C128.271 120.252 128.583 121.032 128.583 122.016C128.583 123 128.271 123.792 127.647 124.392ZM160.952 112.8H141.404V138H161.456V132.384H147.992V127.884H160.232V122.556H147.992V118.344H160.952V112.8ZM180.823 112.8H168.331V138H175.171V129.864H177.691L183.559 138H191.551L184.675 129.18C186.403 128.532 187.723 127.548 188.635 126.228C189.547 124.908 190.003 123.312 190.003 121.44C190.003 119.736 189.619 118.236 188.851 116.94C188.107 115.644 187.039 114.636 185.647 113.916C184.255 113.172 182.647 112.8 180.823 112.8ZM182.371 123.816C181.771 124.344 180.907 124.608 179.779 124.608H175.099V118.488H179.779C180.907 118.488 181.771 118.752 182.371 119.28C182.971 119.808 183.271 120.564 183.271 121.548C183.271 122.532 182.971 123.288 182.371 123.816ZM204.137 112.8H197.297V138H204.137V112.8ZM231.678 112.8H212.13V138H232.182V132.384H218.718V127.884H230.958V122.556H218.718V118.344H231.678V112.8ZM245.141 112.8H239.057V138H245.861V129.9L245.717 123.816L255.941 138H262.025V112.8H255.221V120.9L255.365 127.056L245.141 112.8ZM275.067 136.956C277.155 138.06 279.591 138.612 282.375 138.612C286.263 138.612 289.587 137.28 292.347 134.616L288.495 130.152C287.679 130.944 286.743 131.556 285.687 131.988C284.655 132.396 283.551 132.6 282.375 132.6C280.311 132.6 278.643 131.94 277.371 130.62C276.099 129.3 275.463 127.56 275.463 125.4C275.463 123.24 276.099 121.5 277.371 120.18C278.643 118.86 280.311 118.2 282.375 118.2C283.431 118.2 284.403 118.38 285.291 118.74C286.179 119.076 287.019 119.616 287.811 120.36L291.915 116.148C289.227 113.508 285.999 112.188 282.231 112.188C279.591 112.188 277.239 112.728 275.175 113.808C273.111 114.888 271.503 116.436 270.351 118.452C269.199 120.444 268.623 122.76 268.623 125.4C268.623 128.016 269.175 130.32 270.279 132.312C271.407 134.304 273.003 135.852 275.067 136.956ZM317.837 112.8H298.289V138H318.341V132.384H304.877V127.884H317.117V122.556H304.877V118.344H317.837V112.8Z" fill="black"/>
<path d="M0 151L165.52 197.782C179.729 201.798 194.772 201.804 208.984 197.798L375 151V216V224H0V151Z" fill="#6AD4C8"/>
</g>
<defs>
<clipPath id="clip0_2979_223436">
<rect width="375" height="224" fill="white"/>
</clipPath>
</defs>
</svg>
