<svg width="32" height="32" viewBox="0 0 32 32" fill="none" xmlns="http://www.w3.org/2000/svg">
<path d="M8 24.3332C8 24.8855 8.44772 25.3332 9 25.3332H12.3333C12.8856 25.3332 13.3333 24.8855 13.3333 24.3332V7.6665C13.3333 7.11422 12.8856 6.6665 12.3333 6.6665H9C8.44772 6.6665 8 7.11422 8 7.6665V24.3332ZM19.6667 6.6665C19.1144 6.6665 18.6667 7.11422 18.6667 7.6665V24.3332C18.6667 24.8855 19.1144 25.3332 19.6667 25.3332H23C23.5523 25.3332 24 24.8855 24 24.3332V7.6665C24 7.11422 23.5523 6.6665 23 6.6665H19.6667Z" fill="white"/>
</svg>
