<svg width="720" height="720" viewBox="0 0 720 720" fill="none" xmlns="http://www.w3.org/2000/svg">
<g clip-path="url(#clip0_128_8070)">
<path d="M213.601 574.207H177.117V705.534H213.601V574.207Z" fill="#DDB99F"/>
<path d="M538.604 574.207H502.12V705.534H538.604V574.207Z" fill="#DDB99F"/>
<path d="M309.309 213.323H247.975V304.401H309.309V213.323Z" fill="#A5312F"/>
<path d="M296.659 260.799H258.292V335.574H296.659V260.799Z" fill="#313131"/>
<path d="M312.283 170.399H237.018V261.477H312.283V170.399Z" fill="#A5312F"/>
<path d="M420.229 334.332H376.14V361.855H420.229V334.332Z" fill="#DDB99F"/>
<path d="M420.456 259.633H376.969V336.441H420.456V259.633Z" fill="#BFA08C"/>
<path d="M376.478 320.779H293.872V361.292H376.478V320.779Z" fill="#BFA08C"/>
<path d="M376.854 193.442H252.003V337.383H376.854V193.442Z" fill="#DDB99F"/>
<path d="M319.287 151.574H316.011H198.163V193.932H316.011H319.287H433.897V151.574H319.287Z" fill="#B94F49"/>
<path d="M330.997 115.354H328.662H243.646V157.749H328.662H330.997H413.716V115.354H330.997Z" fill="#B94F49"/>
<path d="M297.486 115.354H296.658H267.214V157.749H296.658H297.486H326.138V115.354H297.486Z" fill="white"/>
<path d="M331.787 98.5244H329.904H262.17V129.097H329.904H331.787H397.714V98.5244H331.787Z" fill="#B94F49"/>
<path d="M328.699 80H327.381H280.694V118.178H327.381H328.699H374.144V80H328.699Z" fill="#B94F49"/>
<path d="M452.044 170.399H376.779V261.477H452.044V170.399Z" fill="#B94F49"/>
<path d="M449.146 213.323H391.954V304.401H449.146V213.323Z" fill="#B94F49"/>
<path d="M440.636 260.799H402.27V335.574H440.636V260.799Z" fill="#B94F49"/>
<path d="M295.453 426.015H170V616.303C170 616.303 546.737 614.722 548.996 616.303C551.255 617.885 548.996 426.015 548.996 426.015H295.453Z" fill="#B94F49"/>
<path d="M461.683 426.125H251.891V697.665H461.683V426.125Z" fill="#B94F49"/>
<path d="M209.984 698.794H170.037V740.474H209.984V698.794Z" fill="#DDB99F"/>
<path d="M545.08 698.004H503.4V740.474H545.08V698.004Z" fill="#DDB99F"/>
<path d="M293.647 302.256H246.207V321.458H293.647V302.256Z" fill="#604925"/>
<path d="M293.646 337.608H251.665V361.14H293.646V337.608Z" fill="#604925"/>
<path d="M310.174 302.256H293.646V337.987H310.174V302.256Z" fill="#604925"/>
<path d="M379.454 402.972H335.101V444.124H379.454V402.972Z" fill="#B94F49"/>
<path d="M284.648 235.462H260.513V294.687H284.648V235.462Z" fill="#D8988D"/>
<path d="M261.869 200.41H248.955V211.065H261.869V200.41Z" fill="#604925"/>
<path d="M304.34 200.41H280.958V211.065H304.34V200.41Z" fill="#604925"/>
<path d="M302.57 218.894H286.305V235.159H302.57V218.894Z" fill="#4F381A"/>
<path d="M259.385 218.894H251.854V235.159H259.385V218.894Z" fill="#4F381A"/>
<path d="M335.853 361.519L294.7 360.766L294.587 403.537V426.015H420.455V361.406H376.704V402.747H335.965L335.853 361.519Z" fill="#DDB99F"/>
<path d="M379.642 361.442H335.101V402.934H379.642V361.442Z" fill="#DDB99F"/>
<path d="M504.53 683.433H209.986V789.232H504.53V683.433Z" fill="#B94F49"/>
<path d="M252.645 489.305H209.986V789.196H252.645V489.305Z" fill="#A5312F"/>
<path d="M504.455 489.305H460.366V789.196H504.455V489.305Z" fill="#A5312F"/>
<path d="M434.725 220.89H406.11V257.637H434.725V220.89Z" fill="white"/>
<path d="M379.19 151.574H220.039V175.144H379.19V151.574Z" fill="#A5312F"/>
<path d="M397.676 98.5244H372.713V123.487H397.676V98.5244Z" fill="#A5312F"/>
<path d="M413.414 115.354H388.452V140.316H413.414V115.354Z" fill="#A5312F"/>
<path d="M434.461 151.574H409.498V176.537H434.461V151.574Z" fill="#A5312F"/>
<path d="M374.144 418.709H332.615V460.238H374.144V418.709Z" fill="#DDB99F"/>
<path d="M269.173 426.015H257.953V461.407H269.173V426.015Z" fill="white"/>
<path d="M280.13 461.254H268.91V479.477H280.13V461.254Z" fill="white"/>
<path d="M291.048 479.216H279.828V497.891H291.048V479.216Z" fill="white"/>
<path d="M302.156 497.739H290.936V789.611H302.156V497.739Z" fill="white"/>
<path d="M439.694 461.441H450.914V426.049H439.694V461.441Z" fill="white"/>
<path d="M428.7 479.439H439.92V461.216H428.7V479.439Z" fill="white"/>
<path d="M417.782 497.854H429.002V479.179H417.782V497.854Z" fill="white"/>
<path d="M406.713 789.572H417.933L417.933 497.701H406.713L406.713 789.572Z" fill="white"/>
</g>
<defs>
<clipPath id="clip0_128_8070">
<rect width="720" height="720" fill="white"/>
</clipPath>
</defs>
</svg>
