<svg width="720" height="720" viewBox="0 0 720 720" fill="none" xmlns="http://www.w3.org/2000/svg">
<g clip-path="url(#clip0_128_8609)">
<path d="M420.229 333.163H376.14V360.686H420.229V333.163Z" fill="#DDB99F"/>
<path d="M420.456 258.464H376.969V335.272H420.456V258.464Z" fill="#BFA08C"/>
<path d="M376.478 319.61H293.872V360.123H376.478V319.61Z" fill="#BFA08C"/>
<path d="M376.854 192.273H252.003V336.214H376.854V192.273Z" fill="#DDB99F"/>
<path d="M305.733 155.453H303.7H230.205V192.765H303.7H305.733H377.27V155.453H305.733Z" fill="#313131"/>
<path d="M420.304 169.233H376.779V260.311H420.304V169.233Z" fill="#313131"/>
<path d="M295.453 424.846H170V697.628C170 697.628 546.737 695.406 548.996 697.628C551.255 699.849 548.996 424.846 548.996 424.846H295.453V424.846Z" fill="#B94F49"/>
<path d="M461.683 424.96H251.891V696.5H461.683V424.96Z" fill="#B94F49"/>
<path d="M209.984 697.629H170.037V739.309H209.984V697.629Z" fill="#DDB99F"/>
<path d="M546.21 696.838H504.53V739.308H546.21V696.838Z" fill="#DDB99F"/>
<path d="M318.384 278.345H234.61V301.086H318.384V278.345Z" fill="#313131"/>
<path d="M293.645 301.086H243.607V320.288H293.645V301.086Z" fill="#313131"/>
<path d="M293.646 336.439H251.665V359.971H293.646V336.439Z" fill="#313131"/>
<path d="M310.174 301.086H293.646V336.817H310.174V301.086Z" fill="#313131"/>
<path d="M286.869 336.59H261.53V372.885H286.869V336.59Z" fill="#313131"/>
<path d="M379.454 401.803H335.101V442.955H379.454V401.803Z" fill="#B94F49"/>
<path d="M284.648 234.292H260.513V300.52H284.648V234.292Z" fill="#BFA08C"/>
<path d="M304.376 199.24H247.222V216.033H304.376V199.24Z" fill="#313131"/>
<path d="M302.607 217.728H286.341V233.993H302.607V217.728Z" fill="#313131"/>
<path d="M259.385 217.728H251.854V233.993H259.385V217.728Z" fill="#313131"/>
<path d="M415.673 98.1855H246.582V169.723H415.673V98.1855Z" fill="#B94F49"/>
<path d="M249.293 135.233H190.105V169.722H249.293V135.233Z" fill="#B94F49"/>
<path d="M460.667 135.233H401.141V169.722H460.667V135.233Z" fill="#B94F49"/>
<path d="M301.439 97.7705H246.582V152.628H301.439V97.7705Z" fill="#FFBC00"/>
<path d="M407.842 76.3086H262.547V98.8993H407.842V76.3086Z" fill="#B94F49"/>
<path d="M335.853 360.349L294.7 359.596L294.587 402.367V424.845H420.455V360.236H376.704V401.614H335.965L335.853 360.349Z" fill="#B94F49"/>
<path d="M379.642 360.272H335.101V401.764H379.642V360.272Z" fill="#DDB99F"/>
<path d="M390.145 46H281.258V87.5292H390.145V46Z" fill="#B94F49"/>
<path d="M504.53 682.267H209.986V788.066H504.53V682.267Z" fill="#B94F49"/>
<path d="M251.515 488.136H209.986V788.027H251.515V488.136Z" fill="#A5312F"/>
<path d="M503.513 488.136H461.983V788.027H503.513V488.136Z" fill="#A5312F"/>
<path d="M503.401 536.479H209.986V577.632H503.401V536.479Z" fill="#D39807"/>
<path d="M503.401 603.839H209.986V644.991H503.401V603.839Z" fill="#D39807"/>
<path d="M462.134 536.479H252.079V577.632H462.134V536.479Z" fill="#FFBC00"/>
<path d="M462.134 603.839H252.079V644.991H462.134V603.839Z" fill="#FFBC00"/>
</g>
<defs>
<clipPath id="clip0_128_8609">
<rect width="720" height="720" fill="white"/>
</clipPath>
</defs>
</svg>
