<svg width="286" height="36" viewBox="0 0 286 36" fill="none" xmlns="http://www.w3.org/2000/svg">
<path d="M18.0004 0.599609L22.7764 14.0436H35.6004L25.1364 21.9396L28.8784 35.7956L18.0004 27.4876L7.12444 35.7956L10.8644 21.9396L0.398438 14.0436H13.2224L18.0004 0.599609Z" fill="#1D1D1F"/>
<path d="M68.0004 0.599609L72.7764 14.0436H85.6004L75.1364 21.9396L78.8784 35.7956L68.0004 27.4876L57.1244 35.7956L60.8644 21.9396L50.3984 14.0436H63.2224L68.0004 0.599609Z" fill="#1D1D1F"/>
<path d="M118 0.599609L122.776 14.0436H135.6L125.136 21.9396L128.878 35.7956L118 27.4876L107.124 35.7956L110.864 21.9396L100.398 14.0436H113.222L118 0.599609Z" fill="#1D1D1F"/>
<path d="M168 0.599609L172.776 14.0436H185.6L175.136 21.9396L178.878 35.7956L168 27.4876L157.124 35.7956L160.864 21.9396L150.398 14.0436H163.222L168 0.599609Z" fill="#1D1D1F"/>
<path d="M218 0.599609L222.776 14.0436H235.6L225.136 21.9396L228.878 35.7956L218 27.4876L207.124 35.7956L210.864 21.9396L200.398 14.0436H213.222L218 0.599609Z" fill="#1D1D1F" fill-opacity="0.12"/>
<path d="M267.602 0.599609L272.378 14.0436H285.202L274.738 21.9396L278.48 35.7956L267.602 27.4876L256.726 35.7956L260.466 21.9396L250 14.0436H262.824L267.602 0.599609Z" fill="#1D1D1F" fill-opacity="0.12"/>
</svg>
