<svg width="32" height="32" viewBox="0 0 32 32" fill="none" xmlns="http://www.w3.org/2000/svg">
<path d="M30.7072 9.70714L26.9367 13.4777C26.1838 22.2128 18.8173 29 10 29C8.18445 29 6.68824 28.7122 5.5528 28.1445C4.63648 27.6863 4.26111 27.1946 4.16797 27.0547C4.08441 26.9294 4.03025 26.7868 4.00953 26.6376C3.9888 26.4884 4.00206 26.3364 4.0483 26.1931C4.09453 26.0497 4.17257 25.9186 4.27656 25.8097C4.38055 25.7007 4.50783 25.6166 4.64887 25.5637C4.68104 25.5516 7.62989 24.419 9.53577 22.2626C8.35031 21.4185 7.30695 20.3908 6.44495 19.2182C4.73145 16.8928 2.9192 12.8544 4.01612 6.82115C4.04877 6.6416 4.12993 6.47441 4.2508 6.33769C4.37168 6.20096 4.52766 6.09992 4.70186 6.04551C4.87605 5.9911 5.06182 5.9854 5.23902 6.02901C5.41623 6.07263 5.57812 6.16391 5.70716 6.29295C5.75123 6.3369 9.91242 10.4393 14.9993 11.7645L15 10.9996C15.0108 9.39848 15.6568 7.86718 16.7962 6.74226C17.9356 5.61733 19.475 4.99084 21.0761 5.00048C22.1162 5.01488 23.1348 5.29882 24.0324 5.82455C24.9299 6.35028 25.6758 7.09983 26.1971 7.99999L30 8.00005C30.1978 8.00005 30.3911 8.05869 30.5556 8.16857C30.72 8.27845 30.8482 8.43463 30.9239 8.61735C30.9996 8.80007 31.0194 9.00113 30.9808 9.19512C30.9422 9.3891 30.847 9.56728 30.7072 9.70714Z" fill="#1D1D1F"/>
</svg>
