<svg width="720" height="720" viewBox="0 0 720 720" fill="none" xmlns="http://www.w3.org/2000/svg">
<g clip-path="url(#clip0_129_9426)">
<path d="M380.357 358.099H335.816V399.59H380.357V358.099Z" fill="#DDB99F"/>
<path d="M420.907 330.952H376.817V358.475H420.907V330.952Z" fill="#DDB99F"/>
<path d="M421.133 256.253H377.646V333.061H421.133V256.253Z" fill="#BFA08C"/>
<path d="M377.646 317.436H294.588V357.948H377.646V317.436Z" fill="#BFA08C"/>
<path d="M377.57 166.644H252.719V334.003H377.57V166.644Z" fill="#DDB99F"/>
<path d="M329.528 153.238H327.269H246.319V176.243H327.269H329.528H408.256V153.238H329.528Z" fill="#604925"/>
<path d="M421.02 167.06H377.496V258.138H421.02V167.06Z" fill="#604925"/>
<path d="M295.453 424.477H170V697.259C170 697.259 546.737 695 548.996 697.259C551.255 699.518 548.996 424.477 548.996 424.477H295.453V424.477Z" fill="#6E94B6"/>
<path d="M462.398 422.105H252.606V694.323H462.398V422.105Z" fill="#6E94B6"/>
<path d="M210.701 695.454H170.753V737.134H210.701V695.454Z" fill="#DDB99F"/>
<path d="M546.888 694.623H505.208V737.093H546.888V694.623Z" fill="#DDB99F"/>
<path d="M306.974 334.229H252.38V357.685H306.974V334.229Z" fill="#BFA08C"/>
<path d="M380.169 399.592H335.816V443.305H380.169V399.592Z" fill="#6E94B6"/>
<path d="M289.278 236.714H264.73V302.679H289.278V236.714Z" fill="#BFA08C"/>
<path d="M319.475 199.475H247.9V213.82H319.475V199.475Z" fill="#604925"/>
<path d="M421.284 128.427H201.439V167.509H421.284V128.427Z" fill="#D39807"/>
<path d="M336.569 358.137L295.416 357.422L295.303 400.156V422.671H421.171V358.062H377.382V399.403H336.644L336.569 358.137Z" fill="#DDB99F"/>
<path d="M336.569 369.808L295.416 369.206L295.303 404.222V422.671H421.171V369.733H377.382V403.619H336.644L336.569 369.808Z" fill="#6E94B6"/>
<path d="M419.702 69.0527H224.971V110.582H419.702V69.0527Z" fill="#FFBC00"/>
<path d="M505.246 648.052H210.701V736.419H505.246V648.052Z" fill="#6E94B6"/>
<path d="M462.85 534.305H252.795V575.457H462.85V534.305Z" fill="white"/>
<path d="M462.85 601.665H252.795V642.818H462.85V601.665Z" fill="white"/>
<path d="M427.91 107.115H211.981V139.232H427.91V107.115Z" fill="#FFBC00"/>
<path d="M381.787 450.873H335.552V681.298H381.787V450.873Z" fill="#6E94B6"/>
<path d="M317.366 289.914H252.493V302.828H317.366V289.914Z" fill="#604925"/>
<path d="M296.282 334.04H252.719V357.572H296.282V334.04Z" fill="#604925"/>
<path d="M431.6 135.847H182.086V160.809H431.6V135.847Z" fill="#FFBC00"/>
<path d="M425.462 138.821H181.897V161.111H425.462V138.821Z" fill="#D39807"/>
<path d="M323.051 455.73H295.905V489.315H323.051V455.73Z" fill="#FF8F29"/>
<path d="M424.522 457.462H392.255V491.611H424.522V457.462Z" fill="#FF8F29"/>
<path d="M503.174 422.105H421.057V457.949H503.174V422.105Z" fill="#FF8F29"/>
<path d="M295.981 455.767H240.558V711.154H295.981V455.767Z" fill="#FF8F29"/>
<path d="M475.765 457.687H419.891V711.116H475.765V457.687Z" fill="#FF8F29"/>
<path d="M295.981 505.467H210.513V710.891H295.981V505.467Z" fill="#FF8F29"/>
<path d="M504.718 505.467H420.455V710.891H504.718V505.467Z" fill="#FF8F29"/>
<path d="M426.705 710.851V485.811H383.294V504.749H374.22V531.067H342.442V504.749H332.126V485.811H295.265V710.851H426.705Z" fill="#FF8F29"/>
<path d="M364.355 531.143H352.57V711.04H364.355V531.143Z" fill="#FFAD69"/>
<path d="M335.552 422.105H295.303V440.329H335.552V422.105Z" fill="#6E94B6"/>
<path d="M420.982 422.105H379.528V440.329H420.982V422.105Z" fill="#6E94B6"/>
<path d="M295.152 422.105H208.404V457.347H295.152V422.105Z" fill="#FF8F29"/>
<path d="M352.118 709.573H222.749V727.721H352.118V709.573Z" fill="#FF8F29"/>
<path d="M493.987 709.573H364.468V727.721H493.987V709.573Z" fill="#FF8F29"/>
<path d="M240.709 485.925H210.437V710.589H240.709V485.925Z" fill="#D17D2A"/>
<path d="M505.433 485.925H475.5V710.852H505.433V485.925Z" fill="#D17D2A"/>
<path d="M262.885 710.323H222.749V727.718H262.885V710.323Z" fill="#D17D2A"/>
<path d="M494.138 710.323H454.002V727.718H494.138V710.323Z" fill="#D17D2A"/>
<path d="M211.83 122.669H192.176V135.809H211.83V122.669Z" fill="#FFBC00"/>
<path d="M385 46H242V69H385V46Z" fill="#FFBC00"/>
<path d="M318.571 220.032H302.306V236.297H318.571V220.032Z" fill="#3F2E17"/>
<path d="M260.702 220.032H252.946V236.297H260.702V220.032Z" fill="#3F2E17"/>
<path d="M352.57 610.401H210.286V635.665H352.57V610.401Z" fill="white"/>
<path d="M240.596 610.401H210.286V635.665H240.596V610.401Z" fill="#E8E8E8"/>
<path d="M364.468 635.665H505.359V610.401H364.468V635.665Z" fill="white"/>
<path d="M475.501 635.665H505.509V610.401H475.501V635.665Z" fill="#E8E8E8"/>
<path d="M380.169 433.213H336.004V473.085H380.169V433.213Z" fill="#6E94B6"/>
<path d="M413.301 124.059H239.24V138.667H413.301V124.059Z" fill="#D39807"/>
<path d="M405.093 108.321H249.933V124.097H405.093V108.321Z" fill="#D39807"/>
<path d="M397.149 73.6816H262.96V108.923H397.149V73.6816Z" fill="#D39807"/>
<path d="M383.105 53.5029H279.113V73.5333H383.105V53.5029Z" fill="#D39807"/>
</g>
<defs>
<clipPath id="clip0_129_9426">
<rect width="720" height="720" fill="white"/>
</clipPath>
</defs>
</svg>
